<svg width="305" height="65" viewBox="0 0 305 65" fill="none" xmlns="http://www.w3.org/2000/svg">
<g filter="url(#filter0_d_502_48)">
<rect x="5" width="295" height="55" rx="20" fill="white"/>
</g>
<ellipse cx="37.5" cy="27.647" rx="14.5" ry="14.4866" fill="#36D8FF"/>
<path d="M77.9766 21.5234C79.2786 21.1328 80.5807 20.9375 81.8828 20.9375C85.2357 20.9375 86.9121 22.207 86.9121 24.7461C86.9121 26.2826 86.3001 27.3405 85.0762 27.9199C86.3001 28.4733 86.9121 29.5312 86.9121 31.0938C86.9121 33.763 85.2357 35.0977 81.8828 35.0977C80.5807 35.0977 79.2786 34.9023 77.9766 34.5117V32.9492C79.2786 33.4049 80.5807 33.6328 81.8828 33.6328C84.0312 33.6328 85.1055 32.7865 85.1055 31.0938C85.1055 29.4661 84.2852 28.6523 82.6445 28.6523H79.4414V27.1875H82.6152C84.2754 27.1875 85.1055 26.3737 85.1055 24.7461C85.1055 23.1836 84.0312 22.4023 81.8828 22.4023C80.5807 22.4023 79.2786 22.6302 77.9766 23.0859V21.5234ZM94.9688 33.5352C98.3867 33.5352 100.096 31.569 100.096 27.6367C100.096 24.2122 98.3867 22.5 94.9688 22.5H91.6973V33.5352H94.9688ZM89.8906 35V21.0352H94.9688C99.5911 21.0352 101.902 23.2357 101.902 27.6367C101.902 32.5456 99.5911 35 94.9688 35H89.8906ZM109.338 35V24.56H111.158L115.038 31.4L118.938 24.56H120.718V35H119.038V27.1L115.598 33.14H114.478L111.018 27.1V35H109.338ZM128.117 35.2C127.33 35.2 126.617 35.06 125.977 34.78C125.337 34.4867 124.783 34.0933 124.317 33.6C123.85 33.0933 123.49 32.5133 123.237 31.86C122.983 31.2067 122.857 30.52 122.857 29.8C122.857 29.0667 122.983 28.3733 123.237 27.72C123.49 27.0667 123.85 26.4933 124.317 26C124.783 25.4933 125.337 25.1 125.977 24.82C126.63 24.5267 127.343 24.38 128.117 24.38C128.903 24.38 129.617 24.5267 130.257 24.82C130.897 25.1 131.45 25.4933 131.917 26C132.397 26.4933 132.763 27.0667 133.017 27.72C133.27 28.3733 133.397 29.0667 133.397 29.8C133.397 30.52 133.27 31.2067 133.017 31.86C132.763 32.5133 132.403 33.0933 131.937 33.6C131.47 34.0933 130.91 34.4867 130.257 34.78C129.617 35.06 128.903 35.2 128.117 35.2ZM124.657 29.82C124.657 30.54 124.81 31.1933 125.117 31.78C125.437 32.3667 125.857 32.8333 126.377 33.18C126.897 33.5133 127.477 33.68 128.117 33.68C128.757 33.68 129.337 33.5067 129.857 33.16C130.39 32.8133 130.81 32.3467 131.117 31.76C131.437 31.16 131.597 30.5 131.597 29.78C131.597 29.06 131.437 28.4067 131.117 27.82C130.81 27.2333 130.39 26.7667 129.857 26.42C129.337 26.0733 128.757 25.9 128.117 25.9C127.477 25.9 126.897 26.08 126.377 26.44C125.857 26.7867 125.437 27.2533 125.117 27.84C124.81 28.4267 124.657 29.0867 124.657 29.82ZM134.369 37.46V33.44H134.589C134.883 33.44 135.149 33.3533 135.389 33.18C135.643 33.0067 135.863 32.7067 136.049 32.28C136.249 31.84 136.409 31.24 136.529 30.48C136.649 29.72 136.729 28.7533 136.769 27.58L136.869 24.56H143.969V33.44H145.389V37.46H143.829V35H135.929V37.46H134.369ZM137.049 33.44H142.209V26.12H138.429L138.369 27.74C138.329 28.8733 138.249 29.8267 138.129 30.6C138.023 31.36 137.876 31.9667 137.689 32.42C137.516 32.8733 137.303 33.2133 137.049 33.44ZM151.966 35.2C151.179 35.2 150.459 35.06 149.806 34.78C149.166 34.4867 148.606 34.0933 148.126 33.6C147.659 33.0933 147.292 32.5133 147.026 31.86C146.772 31.2067 146.646 30.5133 146.646 29.78C146.646 28.7933 146.872 27.8933 147.326 27.08C147.779 26.2667 148.406 25.6133 149.206 25.12C150.019 24.6267 150.946 24.38 151.986 24.38C153.039 24.38 153.952 24.6333 154.726 25.14C155.512 25.6333 156.119 26.2867 156.546 27.1C156.986 27.9 157.206 28.7667 157.206 29.7C157.206 29.8333 157.199 29.9667 157.186 30.1C157.186 30.22 157.179 30.3133 157.166 30.38H148.506C148.559 31.06 148.746 31.6667 149.066 32.2C149.399 32.72 149.826 33.1333 150.346 33.44C150.866 33.7333 151.426 33.88 152.026 33.88C152.666 33.88 153.266 33.72 153.826 33.4C154.399 33.08 154.792 32.66 155.006 32.14L156.526 32.56C156.299 33.0667 155.959 33.52 155.506 33.92C155.066 34.32 154.539 34.6333 153.926 34.86C153.326 35.0867 152.672 35.2 151.966 35.2ZM148.446 29.16H155.566C155.512 28.48 155.319 27.88 154.986 27.36C154.652 26.84 154.226 26.4333 153.706 26.14C153.186 25.8467 152.612 25.7 151.986 25.7C151.372 25.7 150.806 25.8467 150.286 26.14C149.766 26.4333 149.339 26.84 149.006 27.36C148.686 27.88 148.499 28.48 148.446 29.16ZM158.242 35.08V33.5C158.589 33.5 158.896 33.4133 159.162 33.24C159.442 33.0533 159.689 32.7467 159.902 32.32C160.116 31.88 160.282 31.28 160.402 30.52C160.536 29.7467 160.622 28.7667 160.662 27.58L160.782 24.56H167.882V35H166.122V26.12H162.342L162.302 27.74C162.249 29.1667 162.129 30.3533 161.942 31.3C161.756 32.2467 161.496 32.9933 161.162 33.54C160.829 34.0867 160.416 34.48 159.922 34.72C159.442 34.96 158.882 35.08 158.242 35.08ZM170.705 35V24.58H172.465V32.64L178.305 24.56H179.905V35H178.145V27.1L172.385 35H170.705ZM188.337 35.2C187.484 35.2 186.724 34.9867 186.057 34.56C185.39 34.1333 184.864 33.5933 184.477 32.94V39.26H182.717V24.56H184.277V26.52C184.69 25.88 185.23 25.3667 185.897 24.98C186.564 24.58 187.29 24.38 188.077 24.38C188.797 24.38 189.457 24.5267 190.057 24.82C190.657 25.1133 191.177 25.5133 191.617 26.02C192.057 26.5267 192.397 27.1067 192.637 27.76C192.89 28.4 193.017 29.0733 193.017 29.78C193.017 30.7667 192.817 31.6733 192.417 32.5C192.03 33.3267 191.484 33.9867 190.777 34.48C190.07 34.96 189.257 35.2 188.337 35.2ZM187.797 33.68C188.317 33.68 188.784 33.5733 189.197 33.36C189.624 33.1333 189.984 32.84 190.277 32.48C190.584 32.1067 190.817 31.6867 190.977 31.22C191.137 30.7533 191.217 30.2733 191.217 29.78C191.217 29.26 191.124 28.7667 190.937 28.3C190.764 27.8333 190.51 27.42 190.177 27.06C189.857 26.7 189.477 26.42 189.037 26.22C188.61 26.0067 188.144 25.9 187.637 25.9C187.317 25.9 186.984 25.96 186.637 26.08C186.304 26.2 185.984 26.3733 185.677 26.6C185.37 26.8133 185.11 27.06 184.897 27.34C184.684 27.62 184.544 27.92 184.477 28.24V31.22C184.677 31.6733 184.944 32.0867 185.277 32.46C185.61 32.8333 185.997 33.1333 186.437 33.36C186.877 33.5733 187.33 33.68 187.797 33.68ZM199.738 35.2C198.951 35.2 198.238 35.06 197.598 34.78C196.958 34.4867 196.404 34.0933 195.938 33.6C195.471 33.0933 195.111 32.5133 194.858 31.86C194.604 31.2067 194.478 30.52 194.478 29.8C194.478 29.0667 194.604 28.3733 194.858 27.72C195.111 27.0667 195.471 26.4933 195.938 26C196.404 25.4933 196.958 25.1 197.598 24.82C198.251 24.5267 198.964 24.38 199.738 24.38C200.524 24.38 201.238 24.5267 201.878 24.82C202.518 25.1 203.071 25.4933 203.538 26C204.018 26.4933 204.384 27.0667 204.638 27.72C204.891 28.3733 205.018 29.0667 205.018 29.8C205.018 30.52 204.891 31.2067 204.638 31.86C204.384 32.5133 204.024 33.0933 203.558 33.6C203.091 34.0933 202.531 34.4867 201.878 34.78C201.238 35.06 200.524 35.2 199.738 35.2ZM196.278 29.82C196.278 30.54 196.431 31.1933 196.738 31.78C197.058 32.3667 197.478 32.8333 197.998 33.18C198.518 33.5133 199.098 33.68 199.738 33.68C200.378 33.68 200.958 33.5067 201.478 33.16C202.011 32.8133 202.431 32.3467 202.738 31.76C203.058 31.16 203.218 30.5 203.218 29.78C203.218 29.06 203.058 28.4067 202.738 27.82C202.431 27.2333 202.011 26.7667 201.478 26.42C200.958 26.0733 200.378 25.9 199.738 25.9C199.098 25.9 198.518 26.08 197.998 26.44C197.478 26.7867 197.058 27.2533 196.738 27.84C196.431 28.4267 196.278 29.0867 196.278 29.82ZM207.13 35V24.56H212.53C213.157 24.56 213.677 24.6867 214.09 24.94C214.504 25.18 214.81 25.4933 215.01 25.88C215.224 26.2667 215.33 26.68 215.33 27.12C215.33 27.68 215.197 28.1867 214.93 28.64C214.664 29.08 214.277 29.4133 213.77 29.64C214.37 29.8133 214.857 30.1267 215.23 30.58C215.604 31.02 215.79 31.5667 215.79 32.22C215.79 32.8067 215.65 33.3067 215.37 33.72C215.09 34.1333 214.697 34.4533 214.19 34.68C213.684 34.8933 213.097 35 212.43 35H207.13ZM208.81 33.76H212.39C212.71 33.76 212.997 33.68 213.25 33.52C213.517 33.36 213.724 33.1467 213.87 32.88C214.017 32.6133 214.09 32.3333 214.09 32.04C214.09 31.72 214.017 31.4333 213.87 31.18C213.737 30.9133 213.544 30.7067 213.29 30.56C213.05 30.4 212.77 30.32 212.45 30.32H208.81V33.76ZM208.81 29.16H212.07C212.39 29.16 212.67 29.08 212.91 28.92C213.15 28.7467 213.337 28.5267 213.47 28.26C213.604 27.9933 213.67 27.7133 213.67 27.42C213.67 26.98 213.524 26.6 213.23 26.28C212.95 25.96 212.584 25.8 212.13 25.8H208.81V29.16ZM217.209 31.98C217.209 31.3133 217.396 30.74 217.769 30.26C218.156 29.7667 218.683 29.3867 219.349 29.12C220.016 28.8533 220.789 28.72 221.669 28.72C222.136 28.72 222.629 28.76 223.149 28.84C223.669 28.9067 224.129 29.0133 224.529 29.16V28.4C224.529 27.6 224.289 26.9733 223.809 26.52C223.329 26.0533 222.649 25.82 221.769 25.82C221.196 25.82 220.643 25.9267 220.109 26.14C219.589 26.34 219.036 26.6333 218.449 27.02L217.809 25.78C218.489 25.3133 219.169 24.9667 219.849 24.74C220.529 24.5 221.236 24.38 221.969 24.38C223.303 24.38 224.356 24.7533 225.129 25.5C225.903 26.2333 226.289 27.26 226.289 28.58V33C226.289 33.2133 226.329 33.3733 226.409 33.48C226.503 33.5733 226.649 33.6267 226.849 33.64V35C226.676 35.0267 226.523 35.0467 226.389 35.06C226.269 35.0733 226.169 35.08 226.089 35.08C225.676 35.08 225.363 34.9667 225.149 34.74C224.949 34.5133 224.836 34.2733 224.809 34.02L224.769 33.36C224.316 33.9467 223.723 34.4 222.989 34.72C222.256 35.04 221.529 35.2 220.809 35.2C220.116 35.2 219.496 35.06 218.949 34.78C218.403 34.4867 217.976 34.1 217.669 33.62C217.363 33.1267 217.209 32.58 217.209 31.98ZM224.009 32.72C224.169 32.5333 224.296 32.3467 224.389 32.16C224.483 31.96 224.529 31.7933 224.529 31.66V30.36C224.116 30.2 223.683 30.08 223.229 30C222.776 29.9067 222.329 29.86 221.889 29.86C220.996 29.86 220.269 30.04 219.709 30.4C219.163 30.7467 218.889 31.2267 218.889 31.84C218.889 32.1733 218.976 32.5 219.149 32.82C219.336 33.1267 219.603 33.38 219.949 33.58C220.309 33.78 220.749 33.88 221.269 33.88C221.816 33.88 222.336 33.7733 222.829 33.56C223.323 33.3333 223.716 33.0533 224.009 32.72ZM229.084 35V24.56H230.844V28.88H236.284V24.56H238.044V35H236.284V30.44H230.844V35H229.084ZM240.861 35V24.58H242.621V32.64L248.461 24.56H250.061V35H248.301V27.1L242.541 35H240.861ZM257.493 35.2C256.706 35.2 255.986 35.06 255.333 34.78C254.693 34.4867 254.133 34.0933 253.653 33.6C253.186 33.0933 252.82 32.5133 252.553 31.86C252.3 31.2067 252.173 30.5133 252.173 29.78C252.173 28.7933 252.4 27.8933 252.853 27.08C253.306 26.2667 253.933 25.6133 254.733 25.12C255.546 24.6267 256.473 24.38 257.513 24.38C258.566 24.38 259.48 24.6333 260.253 25.14C261.04 25.6333 261.646 26.2867 262.073 27.1C262.513 27.9 262.733 28.7667 262.733 29.7C262.733 29.8333 262.726 29.9667 262.713 30.1C262.713 30.22 262.706 30.3133 262.693 30.38H254.033C254.086 31.06 254.273 31.6667 254.593 32.2C254.926 32.72 255.353 33.1333 255.873 33.44C256.393 33.7333 256.953 33.88 257.553 33.88C258.193 33.88 258.793 33.72 259.353 33.4C259.926 33.08 260.32 32.66 260.533 32.14L262.053 32.56C261.826 33.0667 261.486 33.52 261.033 33.92C260.593 34.32 260.066 34.6333 259.453 34.86C258.853 35.0867 258.2 35.2 257.493 35.2ZM253.973 29.16H261.093C261.04 28.48 260.846 27.88 260.513 27.36C260.18 26.84 259.753 26.4333 259.233 26.14C258.713 25.8467 258.14 25.7 257.513 25.7C256.9 25.7 256.333 25.8467 255.813 26.14C255.293 26.4333 254.866 26.84 254.533 27.36C254.213 27.88 254.026 28.48 253.973 29.16Z" fill="black"/>
<defs>
<filter id="filter0_d_502_48" x="0" y="0" width="305" height="65" filterUnits="userSpaceOnUse" color-interpolation-filters="sRGB">
<feFlood flood-opacity="0" result="BackgroundImageFix"/>
<feColorMatrix in="SourceAlpha" type="matrix" values="0 0 0 0 0 0 0 0 0 0 0 0 0 0 0 0 0 0 127 0" result="hardAlpha"/>
<feOffset dy="5"/>
<feGaussianBlur stdDeviation="2.5"/>
<feComposite in2="hardAlpha" operator="out"/>
<feColorMatrix type="matrix" values="0 0 0 0 1 0 0 0 0 1 0 0 0 0 1 0 0 0 0.25 0"/>
<feBlend mode="normal" in2="BackgroundImageFix" result="effect1_dropShadow_502_48"/>
<feBlend mode="normal" in="SourceGraphic" in2="effect1_dropShadow_502_48" result="shape"/>
</filter>
</defs>
</svg>
