<svg xmlns="http://www.w3.org/2000/svg" width="270" height="84" fill="none"><g filter="url(#a)"><rect width="259" height="72.933" x="5.5" y=".346" fill="#fff" rx="36.466"/></g><path fill="#000" d="M125.528 36.336c0-1.04.192-2.056.576-3.048.4-1.008.976-1.92 1.728-2.736a8.26 8.26 0 0 1 2.736-1.944c1.088-.496 2.312-.744 3.672-.744 1.632 0 3.056.344 4.272 1.032 1.216.672 2.12 1.568 2.712 2.688l-3.576 2.544c-.208-.56-.512-.992-.912-1.296a3.262 3.262 0 0 0-1.272-.624 4.79 4.79 0 0 0-1.32-.192c-.672 0-1.256.136-1.752.408-.48.256-.88.6-1.2 1.032a5.006 5.006 0 0 0-.696 1.44 5.997 5.997 0 0 0-.216 1.584c0 .592.088 1.16.264 1.704.176.544.432 1.032.768 1.464.336.416.744.744 1.224.984.496.24 1.048.36 1.656.36a4.79 4.79 0 0 0 1.32-.192 3.67 3.67 0 0 0 1.224-.672c.368-.304.648-.712.84-1.224l3.816 2.28c-.336.832-.896 1.544-1.68 2.136a8.932 8.932 0 0 1-2.664 1.368c-.992.304-1.976.456-2.952.456-1.264 0-2.424-.248-3.48-.744a9.16 9.16 0 0 1-2.712-2.016 9.63 9.63 0 0 1-1.752-2.832 8.708 8.708 0 0 1-.624-3.216m25.282-1.656v3.6h-2.04v2.28h-4.08v-2.28h-2.04v-3.6h2.04V32.4h4.08v2.28zm10.265 0v3.6h-2.04v2.28h-4.08v-2.28h-2.04v-3.6h2.04V32.4h4.08v2.28z"/><g clip-path="url(#b)"><path fill="#5C8DBC" d="M85.916 25.547c0-.944-.202-1.777-.61-2.492-.401-.704-1.001-1.294-1.806-1.76-6.646-3.832-13.298-7.652-19.941-11.488-1.791-1.034-3.528-.996-5.305.053-2.646 1.56-15.889 9.147-19.835 11.433-1.625.94-2.416 2.38-2.416 4.252-.003 7.706 0 15.412-.003 23.118 0 .923.194 1.74.584 2.445.4.725 1.01 1.33 1.833 1.807 3.946 2.286 17.191 9.873 19.836 11.433 1.778 1.05 3.515 1.087 5.306.053 6.644-3.836 13.296-7.656 19.943-11.488.823-.476 1.432-1.083 1.833-1.807.39-.705.583-1.522.583-2.445 0 0 0-15.408-.002-23.114"/><path fill="#1A4674" d="M61.035 37.03 36.584 51.107c.4.725 1.01 1.33 1.833 1.807 3.946 2.286 17.191 9.873 19.836 11.433 1.778 1.05 3.515 1.087 5.306.053 6.644-3.836 13.296-7.656 19.943-11.488.823-.476 1.432-1.083 1.833-1.807z"/><path fill="#1A4674" d="M53.793 41.2a8.25 8.25 0 0 0 7.166 4.159 8.25 8.25 0 0 0 7.193-4.208l-7.117-4.122z"/><path fill="#1B598E" d="M85.916 25.547c0-.944-.202-1.777-.61-2.493L61.036 37.03l24.3 14.077c.389-.705.582-1.522.582-2.445 0 0 0-15.408-.002-23.114"/><path fill="#fff" d="M84.58 38.035h-1.9v1.9h-1.899v-1.9h-1.898v-1.898h1.898v-1.9h1.9v1.9h1.899zm-6.93 0h-1.898v1.9h-1.899v-1.9h-1.898v-1.898h1.898v-1.9h1.9v1.9h1.898z"/><path fill="#fff" d="M68.152 41.152a8.25 8.25 0 0 1-7.193 4.207 8.25 8.25 0 0 1-7.166-4.16 8.255 8.255 0 0 1 14.305-8.237l7.215-4.154c-2.868-4.95-8.222-8.28-14.354-8.28-9.156 0-16.577 7.421-16.577 16.576 0 3.004.799 5.82 2.195 8.25 2.86 4.976 8.23 8.327 14.382 8.327 6.163 0 11.54-3.364 14.397-8.355z"/></g><defs><clipPath id="b"><path fill="#fff" d="M36 9h50v56.256H36z"/></clipPath><filter id="a" width="269" height="82.933" x=".5" y=".346" color-interpolation-filters="sRGB" filterUnits="userSpaceOnUse"><feFlood flood-opacity="0" result="BackgroundImageFix"/><feColorMatrix in="SourceAlpha" result="hardAlpha" values="0 0 0 0 0 0 0 0 0 0 0 0 0 0 0 0 0 0 127 0"/><feOffset dy="5"/><feGaussianBlur stdDeviation="2.5"/><feComposite in2="hardAlpha" operator="out"/><feColorMatrix values="0 0 0 0 0 0 0 0 0 0 0 0 0 0 0 0 0 0 0.25 0"/><feBlend in2="BackgroundImageFix" result="effect1_dropShadow_330_329"/><feBlend in="SourceGraphic" in2="effect1_dropShadow_330_329" result="shape"/></filter></defs></svg>