<svg xmlns="http://www.w3.org/2000/svg" width="270" height="84" fill="none"><g filter="url(#a)"><rect width="259" height="72.933" x="5.5" y=".346" fill="#fff" rx="36.466"/></g><path fill="#000" d="M120.528 36.336c0-1.04.192-2.056.576-3.048.4-1.008.976-1.92 1.728-2.736a8.26 8.26 0 0 1 2.736-1.944c1.088-.496 2.312-.744 3.672-.744 1.632 0 3.056.344 4.272 1.032 1.216.672 2.12 1.568 2.712 2.688l-3.576 2.544c-.208-.56-.512-.992-.912-1.296a3.262 3.262 0 0 0-1.272-.624 4.79 4.79 0 0 0-1.32-.192c-.672 0-1.256.136-1.752.408-.48.256-.88.6-1.2 1.032a5.006 5.006 0 0 0-.696 1.44 5.997 5.997 0 0 0-.216 1.584c0 .592.088 1.16.264 1.704.176.544.432 1.032.768 1.464.336.416.744.744 1.224.984.496.24 1.048.36 1.656.36a4.79 4.79 0 0 0 1.32-.192 3.67 3.67 0 0 0 1.224-.672c.368-.304.648-.712.84-1.224l3.816 2.28c-.336.832-.896 1.544-1.68 2.136a8.932 8.932 0 0 1-2.664 1.368c-.992.304-1.976.456-2.952.456-1.264 0-2.424-.248-3.48-.744a9.16 9.16 0 0 1-2.712-2.016 9.63 9.63 0 0 1-1.752-2.832 8.708 8.708 0 0 1-.624-3.216Zm33.37-.864h-3.816l-.48 2.088h3.072v3.36h-3.888l-.984 4.08h-3.624l1.008-4.08h-1.44l-.984 4.08h-3.624l1.008-4.08h-2.688v-3.36h3.504l.48-2.088h-2.76v-3.12h3.528l1.08-4.392h3.624l-1.104 4.392h1.44l1.08-4.392h3.624l-1.104 4.392h3.048v3.12Zm-7.896 2.088.48-2.088h-1.44l-.48 2.088h1.44ZM80.698 23.375l-17.709-10.25a3.926 3.926 0 0 0-3.916 0l-17.709 10.25a3.906 3.906 0 0 0-1.947 3.386V47.24a3.906 3.906 0 0 0 1.947 3.385l17.709 10.25a3.927 3.927 0 0 0 3.916 0l17.709-10.25a3.907 3.907 0 0 0 1.948-3.385V26.76a3.908 3.908 0 0 0-1.948-3.385Zm-20.01 27.323c-8.907 0-13.48-5.667-13.48-13.542S52.417 23.22 61.062 23.22c9.646 0 12.334 6.354 12.5 9.375h-7.75c-.479-2.146-1.802-3.636-4.895-3.636-3.626 0-5.678 2.917-5.678 8.01 0 5.595 2.178 8.147 5.646 8.147a4.813 4.813 0 0 0 4.886-3.459h7.78c-.989 4.323-4.343 9.042-12.864 9.042Zm18.145-14.583h-1.041l-.313 1.28h.844v1.157h-1.104l-.448 1.865h-1.042l.458-1.865h-1.156l-.49 1.823H73.5l.458-1.864h-.812v-1.157h1.104l.291-1.281h-.885v-1.156h1.167l.427-1.719h1.041l-.385 1.719h1.156l.417-1.719h1.042l-.427 1.719h.75l-.01 1.198Z"/><path fill="#000" d="M75.313 37.354h1.145l.313-1.281h-1.146l-.313 1.281Z"/><defs><filter id="a" width="269" height="82.933" x=".5" y=".346" color-interpolation-filters="sRGB" filterUnits="userSpaceOnUse"><feFlood flood-opacity="0" result="BackgroundImageFix"/><feColorMatrix in="SourceAlpha" result="hardAlpha" values="0 0 0 0 0 0 0 0 0 0 0 0 0 0 0 0 0 0 127 0"/><feOffset dy="5"/><feGaussianBlur stdDeviation="2.5"/><feComposite in2="hardAlpha" operator="out"/><feColorMatrix values="0 0 0 0 0 0 0 0 0 0 0 0 0 0 0 0 0 0 0.25 0"/><feBlend in2="BackgroundImageFix" result="effect1_dropShadow_330_330"/><feBlend in="SourceGraphic" in2="effect1_dropShadow_330_330" result="shape"/></filter></defs></svg>