<svg width="265" height="65" viewBox="0 0 265 65" fill="none" xmlns="http://www.w3.org/2000/svg">
<g filter="url(#filter0_d_309_116)">
<rect x="5" width="255" height="54.9493" rx="20" fill="white"/>
</g>
<ellipse cx="37.5" cy="27.4747" rx="14.5" ry="14.4866" fill="#36D8FF"/>
<path d="M78.7 34.9854V20.7854H84.62C85.2467 20.7854 85.82 20.9187 86.34 21.1854C86.86 21.4387 87.3133 21.7854 87.7 22.2254C88.0867 22.652 88.3867 23.1387 88.6 23.6854C88.8133 24.2187 88.92 24.7654 88.92 25.3254C88.92 26.0987 88.7467 26.8387 88.4 27.5454C88.0533 28.2387 87.5667 28.8054 86.94 29.2454C86.3133 29.672 85.58 29.8854 84.74 29.8854H80.5V34.9854H78.7ZM80.5 28.2854H84.64C85.1333 28.2854 85.56 28.152 85.92 27.8854C86.2933 27.6187 86.58 27.2587 86.78 26.8054C86.9933 26.352 87.1 25.8587 87.1 25.3254C87.1 24.7654 86.98 24.2654 86.74 23.8254C86.5 23.372 86.1867 23.0187 85.8 22.7654C85.4133 22.512 84.9867 22.3854 84.52 22.3854H80.5V28.2854ZM89.9438 31.9654C89.9438 31.2987 90.1304 30.7254 90.5038 30.2454C90.8904 29.752 91.4171 29.372 92.0838 29.1054C92.7504 28.8387 93.5238 28.7054 94.4038 28.7054C94.8704 28.7054 95.3638 28.7454 95.8838 28.8254C96.4038 28.892 96.8638 28.9987 97.2638 29.1454V28.3854C97.2638 27.5854 97.0238 26.9587 96.5438 26.5054C96.0638 26.0387 95.3838 25.8054 94.5038 25.8054C93.9304 25.8054 93.3771 25.912 92.8438 26.1254C92.3238 26.3254 91.7704 26.6187 91.1838 27.0054L90.5438 25.7654C91.2238 25.2987 91.9038 24.952 92.5838 24.7254C93.2638 24.4854 93.9704 24.3654 94.7038 24.3654C96.0371 24.3654 97.0904 24.7387 97.8638 25.4854C98.6371 26.2187 99.0238 27.2454 99.0238 28.5654V32.9854C99.0238 33.1987 99.0638 33.3587 99.1438 33.4654C99.2371 33.5587 99.3838 33.612 99.5838 33.6254V34.9854C99.4104 35.012 99.2571 35.032 99.1238 35.0454C99.0038 35.0587 98.9038 35.0654 98.8238 35.0654C98.4104 35.0654 98.0971 34.952 97.8838 34.7254C97.6838 34.4987 97.5704 34.2587 97.5438 34.0054L97.5038 33.3454C97.0504 33.932 96.4571 34.3854 95.7238 34.7054C94.9904 35.0254 94.2638 35.1854 93.5438 35.1854C92.8504 35.1854 92.2304 35.0454 91.6838 34.7654C91.1371 34.472 90.7104 34.0854 90.4038 33.6054C90.0971 33.112 89.9438 32.5654 89.9438 31.9654ZM96.7438 32.7054C96.9038 32.5187 97.0304 32.332 97.1238 32.1454C97.2171 31.9454 97.2638 31.7787 97.2638 31.6454V30.3454C96.8504 30.1854 96.4171 30.0654 95.9638 29.9854C95.5104 29.892 95.0638 29.8454 94.6237 29.8454C93.7304 29.8454 93.0038 30.0254 92.4438 30.3854C91.8971 30.732 91.6238 31.212 91.6238 31.8254C91.6238 32.1587 91.7104 32.4854 91.8838 32.8054C92.0704 33.112 92.3371 33.3654 92.6838 33.5654C93.0438 33.7654 93.4838 33.8654 94.0038 33.8654C94.5504 33.8654 95.0704 33.7587 95.5638 33.5454C96.0571 33.3187 96.4504 33.0387 96.7438 32.7054ZM105.098 35.1254C104.085 35.1254 103.225 34.9387 102.518 34.5654C101.825 34.1787 101.291 33.6454 100.918 32.9654L102.358 32.3254C102.598 32.752 102.938 33.0854 103.378 33.3254C103.831 33.5654 104.378 33.6854 105.018 33.6854C105.778 33.6854 106.378 33.5187 106.818 33.1854C107.258 32.852 107.478 32.4054 107.478 31.8454C107.478 31.3387 107.298 30.932 106.938 30.6254C106.591 30.3054 106.098 30.1387 105.458 30.1254H104.398V28.9654H105.518C105.798 28.9654 106.045 28.8987 106.258 28.7654C106.485 28.6187 106.658 28.4254 106.778 28.1854C106.911 27.9454 106.978 27.6787 106.978 27.3854C106.978 26.9187 106.811 26.5454 106.478 26.2654C106.145 25.972 105.645 25.8254 104.978 25.8254C104.431 25.8254 103.971 25.932 103.598 26.1454C103.238 26.3587 102.945 26.6787 102.718 27.1054L101.378 26.3854C101.711 25.7587 102.191 25.272 102.818 24.9254C103.458 24.5654 104.205 24.3854 105.058 24.3854C105.738 24.3854 106.338 24.4987 106.858 24.7254C107.391 24.9387 107.805 25.252 108.098 25.6654C108.405 26.0787 108.558 26.5787 108.558 27.1654C108.558 27.6587 108.438 28.1187 108.198 28.5454C107.971 28.9587 107.631 29.272 107.178 29.4854C107.805 29.672 108.285 29.9987 108.618 30.4654C108.951 30.9187 109.118 31.4587 109.118 32.0854C109.118 32.7254 108.945 33.272 108.598 33.7254C108.251 34.1787 107.778 34.5254 107.178 34.7654C106.578 35.0054 105.885 35.1254 105.098 35.1254ZM116.853 35.1854C115.999 35.1854 115.239 34.972 114.573 34.5454C113.906 34.1187 113.379 33.5787 112.993 32.9254V39.2454H111.233V24.5454H112.793V26.5054C113.206 25.8654 113.746 25.352 114.413 24.9654C115.079 24.5654 115.806 24.3654 116.593 24.3654C117.313 24.3654 117.973 24.512 118.573 24.8054C119.173 25.0987 119.693 25.4987 120.133 26.0054C120.573 26.512 120.913 27.092 121.153 27.7454C121.406 28.3854 121.533 29.0587 121.533 29.7654C121.533 30.752 121.333 31.6587 120.933 32.4854C120.546 33.312 119.999 33.972 119.293 34.4654C118.586 34.9454 117.773 35.1854 116.853 35.1854ZM116.313 33.6654C116.833 33.6654 117.299 33.5587 117.713 33.3454C118.139 33.1187 118.499 32.8254 118.793 32.4654C119.099 32.092 119.333 31.672 119.493 31.2054C119.653 30.7387 119.733 30.2587 119.733 29.7654C119.733 29.2454 119.639 28.752 119.453 28.2854C119.279 27.8187 119.026 27.4054 118.693 27.0454C118.373 26.6854 117.993 26.4054 117.553 26.2054C117.126 25.992 116.659 25.8854 116.153 25.8854C115.833 25.8854 115.499 25.9454 115.153 26.0654C114.819 26.1854 114.499 26.3587 114.193 26.5854C113.886 26.7987 113.626 27.0454 113.413 27.3254C113.199 27.6054 113.059 27.9054 112.993 28.2254V31.2054C113.193 31.6587 113.459 32.072 113.793 32.4454C114.126 32.8187 114.513 33.1187 114.952 33.3454C115.393 33.5587 115.846 33.6654 116.313 33.6654ZM122.873 31.9654C122.873 31.2987 123.06 30.7254 123.433 30.2454C123.82 29.752 124.347 29.372 125.013 29.1054C125.68 28.8387 126.453 28.7054 127.333 28.7054C127.8 28.7054 128.293 28.7454 128.813 28.8254C129.333 28.892 129.793 28.9987 130.193 29.1454V28.3854C130.193 27.5854 129.953 26.9587 129.473 26.5054C128.993 26.0387 128.313 25.8054 127.433 25.8054C126.86 25.8054 126.307 25.912 125.773 26.1254C125.253 26.3254 124.7 26.6187 124.113 27.0054L123.473 25.7654C124.153 25.2987 124.833 24.952 125.513 24.7254C126.193 24.4854 126.9 24.3654 127.633 24.3654C128.967 24.3654 130.02 24.7387 130.793 25.4854C131.567 26.2187 131.953 27.2454 131.953 28.5654V32.9854C131.953 33.1987 131.993 33.3587 132.073 33.4654C132.167 33.5587 132.313 33.612 132.513 33.6254V34.9854C132.34 35.012 132.187 35.032 132.053 35.0454C131.933 35.0587 131.833 35.0654 131.753 35.0654C131.34 35.0654 131.027 34.952 130.813 34.7254C130.613 34.4987 130.5 34.2587 130.473 34.0054L130.433 33.3454C129.98 33.932 129.387 34.3854 128.653 34.7054C127.92 35.0254 127.193 35.1854 126.473 35.1854C125.78 35.1854 125.16 35.0454 124.613 34.7654C124.067 34.472 123.64 34.0854 123.333 33.6054C123.027 33.112 122.873 32.5654 122.873 31.9654ZM129.673 32.7054C129.833 32.5187 129.96 32.332 130.053 32.1454C130.147 31.9454 130.193 31.7787 130.193 31.6454V30.3454C129.78 30.1854 129.347 30.0654 128.893 29.9854C128.44 29.892 127.993 29.8454 127.553 29.8454C126.66 29.8454 125.933 30.0254 125.373 30.3854C124.827 30.732 124.553 31.212 124.553 31.8254C124.553 32.1587 124.64 32.4854 124.813 32.8054C125 33.112 125.267 33.3654 125.613 33.5654C125.973 33.7654 126.413 33.8654 126.933 33.8654C127.48 33.8654 128 33.7587 128.493 33.5454C128.987 33.3187 129.38 33.0387 129.673 32.7054ZM139.688 35.1854C137.968 35.1854 136.668 34.6654 135.788 33.6254C134.908 32.5854 134.468 31.1187 134.468 29.2254C134.468 27.932 134.574 26.8454 134.788 25.9654C135.001 25.072 135.321 24.3387 135.748 23.7654C136.174 23.1787 136.701 22.7054 137.328 22.3454C137.954 21.972 138.674 21.6654 139.488 21.4254L143.908 20.0854L144.008 21.6054L139.708 22.9054C138.974 23.1454 138.361 23.452 137.868 23.8254C137.374 24.1987 136.988 24.6787 136.708 25.2654C136.428 25.852 136.241 26.6054 136.148 27.5254C136.494 26.8187 137.014 26.272 137.708 25.8854C138.401 25.4854 139.208 25.2854 140.128 25.2854C141.114 25.2854 141.961 25.492 142.668 25.9054C143.388 26.3054 143.934 26.872 144.308 27.6054C144.694 28.3254 144.888 29.1587 144.888 30.1054C144.888 31.1187 144.688 32.0054 144.288 32.7654C143.888 33.5254 143.301 34.1187 142.528 34.5454C141.754 34.972 140.808 35.1854 139.688 35.1854ZM139.688 33.6654C140.768 33.6654 141.601 33.352 142.188 32.7254C142.788 32.0854 143.088 31.2387 143.088 30.1854C143.088 29.1587 142.794 28.3254 142.208 27.6854C141.621 27.0454 140.781 26.7254 139.688 26.7254C139.048 26.7254 138.468 26.8587 137.948 27.1254C137.441 27.392 137.034 27.7854 136.728 28.3054C136.434 28.812 136.288 29.4387 136.288 30.1854C136.288 30.852 136.414 31.452 136.668 31.9854C136.934 32.5054 137.321 32.9187 137.828 33.2254C138.334 33.5187 138.954 33.6654 139.688 33.6654ZM151.593 35.1854C150.807 35.1854 150.093 35.0454 149.453 34.7654C148.813 34.472 148.26 34.0787 147.793 33.5854C147.327 33.0787 146.967 32.4987 146.713 31.8454C146.46 31.192 146.333 30.5054 146.333 29.7854C146.333 29.052 146.46 28.3587 146.713 27.7054C146.967 27.052 147.327 26.4787 147.793 25.9854C148.26 25.4787 148.813 25.0854 149.453 24.8054C150.107 24.512 150.82 24.3654 151.593 24.3654C152.38 24.3654 153.093 24.512 153.733 24.8054C154.373 25.0854 154.927 25.4787 155.393 25.9854C155.873 26.4787 156.24 27.052 156.493 27.7054C156.747 28.3587 156.873 29.052 156.873 29.7854C156.873 30.5054 156.747 31.192 156.493 31.8454C156.24 32.4987 155.88 33.0787 155.413 33.5854C154.947 34.0787 154.387 34.472 153.733 34.7654C153.093 35.0454 152.38 35.1854 151.593 35.1854ZM148.133 29.8054C148.133 30.5254 148.287 31.1787 148.593 31.7654C148.913 32.352 149.333 32.8187 149.853 33.1654C150.373 33.4987 150.953 33.6654 151.593 33.6654C152.233 33.6654 152.813 33.492 153.333 33.1454C153.867 32.7987 154.287 32.332 154.593 31.7454C154.913 31.1454 155.073 30.4854 155.073 29.7654C155.073 29.0454 154.913 28.392 154.593 27.8054C154.287 27.2187 153.867 26.752 153.333 26.4054C152.813 26.0587 152.233 25.8854 151.593 25.8854C150.953 25.8854 150.373 26.0654 149.853 26.4254C149.333 26.772 148.913 27.2387 148.593 27.8254C148.287 28.412 148.133 29.072 148.133 29.8054ZM161.546 34.9854V26.1054H157.946V24.5454H166.906V26.1054H163.306V34.9854H161.546ZM168.654 34.9854V24.5454H170.414V28.8454H171.574L174.854 24.5454H176.854L172.954 29.6054L177.314 34.9854H175.274L171.574 30.4654H170.414V34.9854H168.654ZM178.225 31.9654C178.225 31.2987 178.412 30.7254 178.785 30.2454C179.172 29.752 179.698 29.372 180.365 29.1054C181.032 28.8387 181.805 28.7054 182.685 28.7054C183.152 28.7054 183.645 28.7454 184.165 28.8254C184.685 28.892 185.145 28.9987 185.545 29.1454V28.3854C185.545 27.5854 185.305 26.9587 184.825 26.5054C184.345 26.0387 183.665 25.8054 182.785 25.8054C182.212 25.8054 181.658 25.912 181.125 26.1254C180.605 26.3254 180.052 26.6187 179.465 27.0054L178.825 25.7654C179.505 25.2987 180.185 24.952 180.865 24.7254C181.545 24.4854 182.252 24.3654 182.985 24.3654C184.318 24.3654 185.372 24.7387 186.145 25.4854C186.918 26.2187 187.305 27.2454 187.305 28.5654V32.9854C187.305 33.1987 187.345 33.3587 187.425 33.4654C187.518 33.5587 187.665 33.612 187.865 33.6254V34.9854C187.692 35.012 187.538 35.032 187.405 35.0454C187.285 35.0587 187.185 35.0654 187.105 35.0654C186.692 35.0654 186.378 34.952 186.165 34.7254C185.965 34.4987 185.852 34.2587 185.825 34.0054L185.785 33.3454C185.332 33.932 184.738 34.3854 184.005 34.7054C183.272 35.0254 182.545 35.1854 181.825 35.1854C181.132 35.1854 180.512 35.0454 179.965 34.7654C179.418 34.472 178.992 34.0854 178.685 33.6054C178.378 33.112 178.225 32.5654 178.225 31.9654ZM185.025 32.7054C185.185 32.5187 185.312 32.332 185.405 32.1454C185.498 31.9454 185.545 31.7787 185.545 31.6454V30.3454C185.132 30.1854 184.698 30.0654 184.245 29.9854C183.792 29.892 183.345 29.8454 182.905 29.8454C182.012 29.8454 181.285 30.0254 180.725 30.3854C180.178 30.732 179.905 31.212 179.905 31.8254C179.905 32.1587 179.992 32.4854 180.165 32.8054C180.352 33.112 180.618 33.3654 180.965 33.5654C181.325 33.7654 181.765 33.8654 182.285 33.8654C182.832 33.8654 183.352 33.7587 183.845 33.5454C184.338 33.3187 184.732 33.0387 185.025 32.7054ZM195.158 34.9854V24.5654H196.918V32.6254L202.758 24.5454H204.358V34.9854H202.598V27.0854L196.838 34.9854H195.158ZM207.15 34.9854V24.5454H213.59V26.1054H208.91V34.9854H207.15ZM221.013 35.1854C220.159 35.1854 219.399 34.972 218.733 34.5454C218.066 34.1187 217.539 33.5787 217.153 32.9254V39.2454H215.393V24.5454H216.953V26.5054C217.366 25.8654 217.906 25.352 218.573 24.9654C219.239 24.5654 219.966 24.3654 220.753 24.3654C221.473 24.3654 222.133 24.512 222.733 24.8054C223.333 25.0987 223.853 25.4987 224.293 26.0054C224.733 26.512 225.073 27.092 225.313 27.7454C225.566 28.3854 225.693 29.0587 225.693 29.7654C225.693 30.752 225.493 31.6587 225.093 32.4854C224.706 33.312 224.159 33.972 223.453 34.4654C222.746 34.9454 221.933 35.1854 221.013 35.1854ZM220.473 33.6654C220.993 33.6654 221.459 33.5587 221.873 33.3454C222.299 33.1187 222.659 32.8254 222.953 32.4654C223.259 32.092 223.493 31.672 223.653 31.2054C223.813 30.7387 223.893 30.2587 223.893 29.7654C223.893 29.2454 223.799 28.752 223.613 28.2854C223.439 27.8187 223.186 27.4054 222.853 27.0454C222.533 26.6854 222.153 26.4054 221.713 26.2054C221.286 25.992 220.819 25.8854 220.313 25.8854C219.993 25.8854 219.659 25.9454 219.313 26.0654C218.979 26.1854 218.659 26.3587 218.353 26.5854C218.046 26.7987 217.786 27.0454 217.573 27.3254C217.359 27.6054 217.219 27.9054 217.153 28.2254V31.2054C217.353 31.6587 217.619 32.072 217.953 32.4454C218.286 32.8187 218.673 33.1187 219.113 33.3454C219.553 33.5587 220.006 33.6654 220.473 33.6654Z" fill="black"/>
<defs>
<filter id="filter0_d_309_116" x="0" y="0" width="265" height="64.9492" filterUnits="userSpaceOnUse" color-interpolation-filters="sRGB">
<feFlood flood-opacity="0" result="BackgroundImageFix"/>
<feColorMatrix in="SourceAlpha" type="matrix" values="0 0 0 0 0 0 0 0 0 0 0 0 0 0 0 0 0 0 127 0" result="hardAlpha"/>
<feOffset dy="5"/>
<feGaussianBlur stdDeviation="2.5"/>
<feComposite in2="hardAlpha" operator="out"/>
<feColorMatrix type="matrix" values="0 0 0 0 1 0 0 0 0 1 0 0 0 0 1 0 0 0 0.25 0"/>
<feBlend mode="normal" in2="BackgroundImageFix" result="effect1_dropShadow_309_116"/>
<feBlend mode="normal" in="SourceGraphic" in2="effect1_dropShadow_309_116" result="shape"/>
</filter>
</defs>
</svg>
