<svg xmlns="http://www.w3.org/2000/svg" width="269" height="84" fill="none"><g filter="url(#a)"><rect width="259" height="72.933" x="5" y=".432" fill="#fff" rx="36.466"/></g><path fill="#000" d="M109.536 27.96V45h-4.68v-6.672h-5.712V45h-4.68V27.96h4.68v6.288h5.712V27.96h4.68Zm16.2 4.08h-4.896V45h-4.68V32.04h-4.92v-4.08h14.496v4.08ZM140.329 45v-8.976l-2.856 6.312h-2.496l-2.856-6.312V45h-4.68V27.96h5.112l3.672 8.016 3.696-8.016h5.088V45h-4.68Zm7.596 0V27.96h4.68v12.96h7.728V45h-12.408Zm24.719 0-7.584-8.112a28.839 28.839 0 0 1-1.608-1.848c-.4-.512-.688-.992-.864-1.44a4.323 4.323 0 0 1-.24-1.464c0-.928.216-1.72.648-2.376a4.053 4.053 0 0 1 1.776-1.488c.768-.352 1.624-.528 2.568-.528.832 0 1.624.144 2.376.432.768.272 1.4.712 1.896 1.32.496.592.744 1.376.744 2.352 0 .784-.176 1.504-.528 2.16a6.226 6.226 0 0 1-1.416 1.8 11.75 11.75 0 0 1-2.04 1.488 38.1 38.1 0 0 0-1.392.864c-.4.256-.712.52-.936.792a1.278 1.278 0 0 0-.336.864c0 .224.064.488.192.792.144.288.368.544.672.768.32.208.736.312 1.248.312.528 0 1.072-.136 1.632-.408.576-.288 1.104-.712 1.584-1.272.496-.56.888-1.256 1.176-2.088.304-.832.456-1.8.456-2.904h3.672c-.016 1.744-.288 3.264-.816 4.56-.528 1.28-1.232 2.344-2.112 3.192a8.757 8.757 0 0 1-2.88 1.872c-1.056.4-2.12.6-3.192.6-1.312 0-2.416-.264-3.312-.792-.896-.544-1.568-1.232-2.016-2.064-.448-.832-.672-1.688-.672-2.568 0-.928.208-1.736.624-2.424a7.408 7.408 0 0 1 1.584-1.8 17.256 17.256 0 0 1 1.824-1.32c.688-.432 1.232-.768 1.632-1.008.416-.24.712-.456.888-.648a1.03 1.03 0 0 0 .288-.72c0-.272-.08-.48-.24-.624-.144-.144-.344-.216-.6-.216a.972.972 0 0 0-.48.12.77.77 0 0 0-.288.312c-.064.128-.096.28-.096.456 0 .208.064.4.192.576.144.16.376.384.696.672.32.272.752.704 1.296 1.296L178.62 45h-5.976Zm6.361-8.664c0-1.04.192-2.056.576-3.048.4-1.008.976-1.92 1.728-2.736a8.26 8.26 0 0 1 2.736-1.944c1.088-.496 2.312-.744 3.672-.744 1.632 0 3.056.344 4.272 1.032 1.216.672 2.12 1.568 2.712 2.688l-3.576 2.544c-.208-.56-.512-.992-.912-1.296a3.262 3.262 0 0 0-1.272-.624 4.79 4.79 0 0 0-1.32-.192c-.672 0-1.256.136-1.752.408-.48.256-.88.6-1.2 1.032a5.006 5.006 0 0 0-.696 1.44 5.997 5.997 0 0 0-.216 1.584c0 .592.088 1.16.264 1.704.176.544.432 1.032.768 1.464.336.416.744.744 1.224.984.496.24 1.048.36 1.656.36a4.79 4.79 0 0 0 1.32-.192 3.67 3.67 0 0 0 1.224-.672c.368-.304.648-.712.84-1.224l3.816 2.28c-.336.832-.896 1.544-1.68 2.136a8.932 8.932 0 0 1-2.664 1.368c-.992.304-1.976.456-2.952.456-1.264 0-2.424-.248-3.48-.744a9.16 9.16 0 0 1-2.712-2.016 9.63 9.63 0 0 1-1.752-2.832 8.708 8.708 0 0 1-.624-3.216Zm27.849-2.808-.408-.24a9.817 9.817 0 0 0-1.08-.528 11.162 11.162 0 0 0-1.464-.552 5.36 5.36 0 0 0-1.56-.24c-.4 0-.728.064-.984.192s-.384.344-.384.648c0 .288.128.52.384.696.256.176.616.336 1.08.48.48.144 1.048.32 1.704.528 1.056.32 1.968.688 2.736 1.104.768.416 1.36.952 1.776 1.608.416.64.624 1.496.624 2.568 0 1.024-.184 1.888-.552 2.592a4.508 4.508 0 0 1-1.488 1.656 6.63 6.63 0 0 1-2.088.912c-.768.176-1.552.264-2.352.264-.816 0-1.672-.08-2.568-.24a19.58 19.58 0 0 1-2.568-.696 14.273 14.273 0 0 1-2.28-1.056l2.016-4.104.48.288c.32.192.744.408 1.272.648.528.24 1.112.456 1.752.648a6.976 6.976 0 0 0 1.968.288c.512 0 .864-.064 1.056-.192.208-.144.312-.328.312-.552 0-.336-.176-.592-.528-.768-.352-.192-.816-.368-1.392-.528-.56-.176-1.184-.376-1.872-.6-.992-.336-1.808-.712-2.448-1.128-.64-.432-1.112-.936-1.416-1.512-.304-.592-.456-1.304-.456-2.136 0-1.264.296-2.32.888-3.168a5.572 5.572 0 0 1 2.328-1.92 7.446 7.446 0 0 1 3.144-.672 9.14 9.14 0 0 1 2.4.312c.784.192 1.512.432 2.184.72.688.288 1.288.56 1.8.816l-2.016 3.864Zm14.813 0-.408-.24a9.817 9.817 0 0 0-1.08-.528 11.162 11.162 0 0 0-1.464-.552 5.36 5.36 0 0 0-1.56-.24c-.4 0-.728.064-.984.192s-.384.344-.384.648c0 .288.128.52.384.696.256.176.616.336 1.08.48.48.144 1.048.32 1.704.528 1.056.32 1.968.688 2.736 1.104.768.416 1.36.952 1.776 1.608.416.64.624 1.496.624 2.568 0 1.024-.184 1.888-.552 2.592a4.508 4.508 0 0 1-1.488 1.656 6.63 6.63 0 0 1-2.088.912c-.768.176-1.552.264-2.352.264-.816 0-1.672-.08-2.568-.24a19.58 19.58 0 0 1-2.568-.696 14.273 14.273 0 0 1-2.28-1.056l2.016-4.104.48.288c.32.192.744.408 1.272.648.528.24 1.112.456 1.752.648a6.976 6.976 0 0 0 1.968.288c.512 0 .864-.064 1.056-.192.208-.144.312-.328.312-.552 0-.336-.176-.592-.528-.768-.352-.192-.816-.368-1.392-.528-.56-.176-1.184-.376-1.872-.6-.992-.336-1.808-.712-2.448-1.128-.64-.432-1.112-.936-1.416-1.512-.304-.592-.456-1.304-.456-2.136 0-1.264.296-2.32.888-3.168a5.572 5.572 0 0 1 2.328-1.92 7.446 7.446 0 0 1 3.144-.672 9.14 9.14 0 0 1 2.4.312c.784.192 1.512.432 2.184.72.688.288 1.288.56 1.8.816l-2.016 3.864Z"/><g clip-path="url(#b)"><path fill="#E44D26" d="m78.927 19.39-3.631 38.224-16.322 4.252-16.277-4.246-3.628-38.23h39.858Z"/><path fill="#F16529" d="m58.998 58.616 13.19-3.436 3.102-32.665H58.998v36.1Z"/><path fill="#EBEBEB" d="M51.94 31.893h7.058v-4.689H46.486l.12 1.258 1.226 12.921h11.166v-4.689h-6.602l-.456-4.801Zm1.124 11.835h-5.009l.7 7.362 10.22 2.666.023-.006v-4.878l-.022.005-5.557-1.41-.355-3.74Z"/><path fill="#000" d="M42.778 9h2.536v2.354h2.32V9h2.535v7.129h-2.536v-2.387h-2.32v2.387h-2.535V9Zm10.726 2.364h-2.232V9h7.001v2.364H56.04v4.765h-2.536v-4.765ZM59.384 9h2.644l1.627 2.505L65.28 9h2.645v7.129h-2.526v-3.534l-1.744 2.535h-.044l-1.746-2.535v3.534h-2.48V9Zm9.803 0h2.536v4.773h3.566v2.356h-6.103V9Z"/><path fill="#fff" d="M58.981 41.383h6.144l-.579 6.081-5.565 1.412v4.878l10.23-2.664.074-.792 1.173-12.345.122-1.259H58.98v4.69Zm0-9.501v.011h12.053l.1-1.054.227-2.377.12-1.258h-12.5v4.678Z"/></g><defs><clipPath id="b"><path fill="#fff" d="M39 9h40v53H39z"/></clipPath><filter id="a" width="269" height="82.933" x="0" y=".432" color-interpolation-filters="sRGB" filterUnits="userSpaceOnUse"><feFlood flood-opacity="0" result="BackgroundImageFix"/><feColorMatrix in="SourceAlpha" result="hardAlpha" values="0 0 0 0 0 0 0 0 0 0 0 0 0 0 0 0 0 0 127 0"/><feOffset dy="5"/><feGaussianBlur stdDeviation="2.5"/><feComposite in2="hardAlpha" operator="out"/><feColorMatrix values="0 0 0 0 0 0 0 0 0 0 0 0 0 0 0 0 0 0 0.25 0"/><feBlend in2="BackgroundImageFix" result="effect1_dropShadow_330_324"/><feBlend in="SourceGraphic" in2="effect1_dropShadow_330_324" result="shape"/></filter></defs></svg>