<svg xmlns="http://www.w3.org/2000/svg" width="269" height="84" fill="none"><g filter="url(#a)"><rect width="259" height="72.933" x="5" y=".432" fill="#fff" rx="36.466"/></g><path fill="#000" d="M115.008 40.392c.096.064.4.2.912.408.512.208 1.112.312 1.8.312.496 0 .896-.08 1.2-.24.304-.176.528-.44.672-.792.16-.352.264-.808.312-1.368.064-.576.096-1.272.096-2.088V27.96h4.68v8.664c0 1.296-.08 2.472-.24 3.528-.144 1.056-.448 1.968-.912 2.736-.464.768-1.16 1.36-2.088 1.776-.928.4-2.168.6-3.72.6a7.235 7.235 0 0 1-2.016-.264 5.783 5.783 0 0 1-1.68-.792l.984-3.816Zm15.923-12.432h5.232L141.587 45h-4.752l-1.032-3.336h-4.536L130.259 45h-4.776l5.448-17.04Zm4.128 10.584-1.512-6-1.584 6h3.096Zm9.849-10.584 3.336 11.64 3.288-11.64h4.92L150.572 45h-4.656l-5.952-17.04h4.944Zm15.39 0h5.232L170.954 45h-4.752l-1.032-3.336h-4.536L159.626 45h-4.776l5.448-17.04Zm4.128 10.584-1.512-6-1.584 6h3.096Z"/><g fill-rule="evenodd" clip-path="url(#b)" clip-rule="evenodd"><path fill="#fff" d="M27 12h50v50H27V12Z"/><path fill="#3174B9" d="M47.848 38.388s-1.194.695.85.93c2.48.283 3.745.242 6.475-.274 0 0 .719.45 1.722.839-6.122 2.623-13.855-.152-9.047-1.495Zm-.748-3.423s-1.34.991.707 1.203c2.647.274 4.737.296 8.355-.4 0 0 .5.507 1.286.784-7.4 2.165-15.643.17-10.348-1.587Z"/><path fill="#CA3132" d="M53.406 29.157c1.509 1.737-.396 3.3-.396 3.3s3.83-1.977 2.071-4.454c-1.642-2.308-2.902-3.455 3.917-7.41 0 0-10.705 2.673-5.592 8.564Z"/><path fill="#3174B9" d="M61.502 40.92s.884.73-.974 1.293c-3.532 1.07-14.706 1.392-17.81.042-1.114-.485.977-1.158 1.636-1.3.686-.149 1.078-.122 1.078-.122-1.241-.873-8.02 1.716-3.443 2.459 12.48 2.023 22.75-.911 19.513-2.372Zm-13.08-9.502s-5.682 1.35-2.011 1.84c1.55.208 4.638.16 7.517-.081 2.353-.198 4.714-.62 4.714-.62s-.83.355-1.43.765c-5.771 1.518-16.92.811-13.71-.741 2.714-1.313 4.92-1.163 4.92-1.163Zm10.196 5.698c5.867-3.048 3.154-5.978 1.26-5.583-.463.097-.67.18-.67.18s.172-.27.5-.386c3.747-1.317 6.627 3.884-1.207 5.943 0 0 .09-.082.117-.154Z"/><path fill="#CA3132" d="M55.081 14.206s3.249 3.25-3.082 8.247c-5.076 4.01-1.157 6.295-.001 8.908-2.964-2.674-5.138-5.028-3.68-7.218 2.141-3.215 8.074-4.775 6.763-9.937Z"/><path fill="#3174B9" d="M49 45.377c5.63.36 14.278-.2 14.484-2.864 0 0-.394 1.01-4.654 1.811-4.807.905-10.736.8-14.25.22 0 0 .72.595 4.42.834Z"/><path fill="#CA3132" d="M63.223 50.156h-.17v-.096h.461v.096h-.171v.48h-.12v-.48Zm.922.024h-.002l-.17.455h-.078l-.17-.455h-.001v.455h-.114v-.575h.167l.157.407.156-.407h.165v.575h-.11v-.455Zm-16.068 5.378c-.53.46-1.092.719-1.596.719-.718 0-1.108-.431-1.108-1.122 0-.747.417-1.294 2.087-1.294h.617v1.697Zm1.466 1.653v-5.118c0-1.308-.746-2.172-2.545-2.172-1.049 0-1.969.26-2.716.59l.215.906c.589-.216 1.35-.416 2.098-.416 1.036 0 1.482.416 1.482 1.28v.647h-.518c-2.517 0-3.652.976-3.652 2.444 0 1.265.748 1.984 2.157 1.984.906 0 1.582-.374 2.214-.921l.115.776h1.15Zm4.891 0h-1.827l-2.2-7.16h1.596l1.365 4.4.304 1.322c.69-1.912 1.178-3.853 1.423-5.721h1.552c-.416 2.357-1.164 4.945-2.213 7.16Zm7.014-1.653c-.533.46-1.094.719-1.597.719-.718 0-1.108-.431-1.108-1.122 0-.747.418-1.294 2.086-1.294h.618v1.697Zm1.466 1.653v-5.118c0-1.308-.749-2.172-2.545-2.172-1.05 0-1.97.26-2.718.59l.215.906c.59-.216 1.352-.416 2.1-.416 1.035 0 1.481.416 1.481 1.28v.647h-.518c-2.517 0-3.651.976-3.651 2.444 0 1.265.747 1.984 2.156 1.984.906 0 1.581-.374 2.215-.921l.115.776h1.15ZM42.3 58.428c-.418.61-1.093 1.094-1.832 1.366l-.723-.852c.562-.289 1.044-.755 1.269-1.189.193-.386.273-.883.273-2.073v-8.175h1.558v8.062c0 1.591-.127 2.234-.545 2.86Z"/></g><defs><clipPath id="b"><path fill="#fff" d="M27 12h50v50H27z"/></clipPath><filter id="a" width="269" height="82.933" x="0" y=".432" color-interpolation-filters="sRGB" filterUnits="userSpaceOnUse"><feFlood flood-opacity="0" result="BackgroundImageFix"/><feColorMatrix in="SourceAlpha" result="hardAlpha" values="0 0 0 0 0 0 0 0 0 0 0 0 0 0 0 0 0 0 127 0"/><feOffset dy="5"/><feGaussianBlur stdDeviation="2.5"/><feComposite in2="hardAlpha" operator="out"/><feColorMatrix values="0 0 0 0 0 0 0 0 0 0 0 0 0 0 0 0 0 0 0.25 0"/><feBlend in2="BackgroundImageFix" result="effect1_dropShadow_330_327"/><feBlend in="SourceGraphic" in2="effect1_dropShadow_330_327" result="shape"/></filter></defs></svg>