<svg xmlns="http://www.w3.org/2000/svg" width="269" height="83" fill="none"><g filter="url(#a)"><rect width="259" height="72.933" x="5" fill="#fff" rx="36.466"/></g><path fill="#000" d="M120.464 47V29.96h4.68v12.96h7.728V47h-12.408Zm26.183-4.08V47h-12.144V29.96h11.928v4.08h-7.248v2.4h6.192v3.792h-6.192v2.688h7.464Zm9.287 4.2a8.824 8.824 0 0 1-3.168-.576 8.033 8.033 0 0 1-2.64-1.728 8.474 8.474 0 0 1-1.824-2.76c-.432-1.088-.648-2.328-.648-3.72 0-1.2.224-2.312.672-3.336a8.486 8.486 0 0 1 1.848-2.688 8.575 8.575 0 0 1 2.784-1.824c1.056-.432 2.2-.648 3.432-.648 1.536 0 2.928.336 4.176 1.008 1.248.656 2.176 1.56 2.784 2.712l-3.48 2.664a3.847 3.847 0 0 0-1.512-1.608 3.992 3.992 0 0 0-2.136-.624c-.56 0-1.072.112-1.536.336a3.847 3.847 0 0 0-1.224.936c-.336.4-.6.88-.792 1.44a5.823 5.823 0 0 0-.264 1.8c0 .672.096 1.28.288 1.824.192.544.456 1.016.792 1.416.352.384.768.688 1.248.912.48.208 1.016.312 1.608.312.752 0 1.472-.184 2.16-.552.688-.384 1.312-.92 1.872-1.608v4.56c-1.28 1.168-2.76 1.752-4.44 1.752Zm4.2-5.832h-3.144v-3.36h7.008V47h-3.864v-5.712Zm13.854 5.856c-1.296 0-2.472-.24-3.528-.72a8.927 8.927 0 0 1-2.736-1.968 9.4 9.4 0 0 1-1.752-2.784c-.4-1.04-.6-2.112-.6-3.216a8.25 8.25 0 0 1 .648-3.24 8.93 8.93 0 0 1 1.8-2.736 8.564 8.564 0 0 1 2.76-1.92c1.072-.464 2.24-.696 3.504-.696 1.296 0 2.472.248 3.528.744a8.162 8.162 0 0 1 2.712 1.968 8.94 8.94 0 0 1 1.728 2.808 8.343 8.343 0 0 1-.024 6.384 8.658 8.658 0 0 1-1.8 2.76c-.768.8-1.68 1.44-2.736 1.92-1.056.464-2.224.696-3.504.696Zm-3.864-8.64c0 .576.08 1.136.24 1.68.16.528.4 1.008.72 1.44.32.416.72.752 1.2 1.008.496.24 1.08.36 1.752.36.672 0 1.256-.128 1.752-.384s.896-.6 1.2-1.032c.32-.448.552-.936.696-1.464a5.84 5.84 0 0 0 0-3.312c-.16-.528-.4-1-.72-1.416a3.27 3.27 0 0 0-1.224-1.008c-.496-.24-1.072-.36-1.728-.36-.672 0-1.256.128-1.752.384-.48.256-.88.6-1.2 1.032-.32.416-.56.896-.72 1.44a6.175 6.175 0 0 0-.216 1.632Z"/><g clip-path="url(#b)"><path fill="#fff" d="M35.258 16.268h37.493v39.465H35.258V16.268Z"/><path fill="#FF0" d="M70.256 32.673c-.063 1.23-.434 2.761-.761 3.785-1.319 4.124-2.848 6.678-6.386 6.678-1.042 0-2.892-.29-3.572-2.241l-.162-.464-.29.387c-1.107 1.477-2.752 2.329-4.513 2.337-1.35.007-2.436-.47-3.138-1.377l-.193-.25-.204.237c-.751.872-2.057 1.371-3.584 1.371-1.199 0-2.234-.427-2.916-1.205l-.185-.214-.194.207c-.757.804-1.95 1.21-3.45 1.173-1.821-.046-2.93-1.116-2.965-2.862-.055-2.694 2.421-8.36 3.447-10.083.666-1.15 1.58-1.709 2.798-1.709.83 0 1.395.183 1.733.558.306.343.367.63.394 1.323l.036.896.448-.761c1.088-1.845 2.888-2.098 4.674-2.098 1.24 0 2.323.48 2.758 1.224l.16.273.233-.208c.92-.823 2.218-1.277 3.654-1.277 1.567 0 2.707.41 3.387 1.221.154.184.256.312.398.626l.175.386.263-.326c.993-1.24 2.353-1.868 4.04-1.868 1.334 0 2.347.373 3.01 1.11.833.924.952 2.224.905 3.15Zm-34.998 23.06h37.493V16.268H35.258v39.465Z"/><path fill="red" d="M71.312 34.187c-.17 1.436-1.093 4.097-1.582 5.16-1.315 2.851-3.072 5.042-6.455 5.042-1.807 0-3.294-.608-4.164-1.773-1.273 1.174-2.85 1.79-4.546 1.79-1.308 0-2.463-.398-3.343-1.133-.973.721-2.285 1.123-3.74 1.123-1.214 0-2.306-.35-3.162-.999-.946.66-2.186.99-3.642.952-2.421-.06-4.094-1.676-4.142-4.024-.064-3.119 2.432-8.827 3.608-10.805.88-1.521 2.224-2.339 3.869-2.339 1.786 0 2.434.538 2.752 1.221 1.38-1.233 3.206-1.303 4.507-1.303 1.437 0 2.337.4 3.103 1.044 1.06-.669 2.273-1.016 3.72-1.016 1.85 0 3.222.453 4.18 1.45 1.117-.98 2.518-1.426 4.083-1.426 2.072 0 3.434.787 4.235 1.959 1.127 1.653.926 3.318.719 5.077ZM35.258 55.733h37.493V16.268H35.258v39.465Z"/><path fill="#000" d="M35.523 16.551h36.954v38.9H35.522v-38.9ZM35 56.001h38V16H35v40Z"/><path fill="#000" d="M71.295 27.109a.87.87 0 0 0-.349.073.91.91 0 0 0-.296.208 1 1 0 0 0-.197 1.046.96.96 0 0 0 .198.31.866.866 0 0 0 .644.28c.505 0 .912-.426.912-.957a1 1 0 0 0-.267-.68.908.908 0 0 0-.296-.207.87.87 0 0 0-.35-.073Zm0 .19c.404 0 .734.344.734.77 0 .424-.33.77-.734.77-.404 0-.729-.346-.729-.77 0-.426.325-.77.729-.77Zm.463 1.27-.109-.2c-.095-.176-.122-.202-.202-.233v-.005c.16-.02.255-.128.255-.278 0-.157-.095-.277-.298-.277h-.469v.993h.194v-.407h.035c.083 0 .117.01.155.05.037.04.095.123.129.195l.075.162h.236Zm-.63-.566v-.272h.175c.13 0 .197.048.197.135 0 .07-.043.136-.174.136h-.197Zm-4.538 4.59c-.039 1.023-1.461 5.11-1.966 6.01-.22.392-.466.715-.911.714-.389 0-.561-.29-.572-.62-.029-.922 1.58-5.545 2.13-6.298.244-.396.516-.46.829-.456.456.006.501.353.49.65Zm2.593 1.67c-.323 1.693-1.05 3.697-1.84 5.19-1.287 2.436-2.85 2.777-4.215 2.76-1.364-.017-2.904-.548-2.915-2.764-.009-1.592.643-3.838 1.198-5.31.964-2.67 1.95-4.846 5.068-4.807 3.636.045 2.987 3.449 2.704 4.93ZM57.64 31.887c-.527 0-.87.35-1.127.73-.563.832-1.785 4.17-1.975 5.541-.128.94.256 1.13.678 1.13.675 0 1.432-.752 1.69-1.993 0 0-1.286-.033-.931-1.234.344-1.165.998-1.417 2.081-1.464 2.135-.092 1.924 1.568 1.754 2.452-.555 2.873-2.498 5.181-5.246 5.181-1.881 0-3.048-1.096-3.048-3.115 0-1.438.678-3.697 1.215-5.018 1.144-2.814 2.344-4.783 5.4-4.783 1.834 0 3.281.694 3.068 2.502-.155 1.328-.785 2.107-1.932 2.202-.32.026-1.633-.01-1.198-1.316.152-.456.215-.815-.43-.815Zm-9.564 4.975c-.127.36-.364 1.11-.556 1.905.623-.163 1.091-.279 1.893-.257.914.023 1.498.423 1.498 1.217 0 1.928-2.024 2.495-3.428 2.495-1.543 0-2.897-.925-2.897-2.7 0-2.081 1.072-5.236 2.077-7.337 1.235-2.582 2.498-2.925 4.67-2.925.956 0 2.056.43 2.056 1.378 0 1.316-1.059 1.818-2.11 1.882-.447.027-1.137.053-1.55.022 0 0-.35.562-.721 1.56 1.944-.289 2.77.176 2.44 1.36-.443 1.599-1.76 1.704-3.372 1.4Zm-6.193 1.85c1.902-.348 2.38.377 2.32 1.045-.179 2.007-1.928 2.455-3.447 2.418-1.1-.027-2.09-.558-2.118-1.904-.048-2.354 2.233-7.8 3.307-9.605.495-.858 1.1-1.28 2.063-1.28.913 0 1.14.492 1.126 1.083-.035 1.577-2.457 6.37-3.251 8.243ZM66.34 28.137c-1.964 0-3.321.82-4.24 1.963a2.564 2.564 0 0 0-.44-.69c-.751-.894-1.961-1.312-3.583-1.312-1.585 0-2.907.521-3.824 1.342-.476-.815-1.611-1.356-2.981-1.356-1.79 0-3.739.268-4.896 2.229-.027-.707-.089-1.08-.466-1.501-.458-.51-1.2-.644-1.923-.644-1.317 0-2.308.605-3.02 1.838-1.035 1.74-3.543 7.463-3.486 10.234.036 1.792 1.178 3.081 3.22 3.132 1.596.04 2.847-.409 3.643-1.254.715.815 1.805 1.295 3.109 1.295 1.451 0 2.914-.458 3.777-1.461.728.939 1.872 1.486 3.343 1.478 1.924-.009 3.613-.969 4.717-2.441.605 1.735 2.14 2.424 3.819 2.424 3.676 0 5.29-2.66 6.634-6.867.304-.949.708-2.53.775-3.858.111-2.212-.778-4.551-4.178-4.551Z"/></g><defs><clipPath id="b"><path fill="#fff" d="M35 16h38v40H35z"/></clipPath><filter id="a" width="269" height="82.933" x="0" y="0" color-interpolation-filters="sRGB" filterUnits="userSpaceOnUse"><feFlood flood-opacity="0" result="BackgroundImageFix"/><feColorMatrix in="SourceAlpha" result="hardAlpha" values="0 0 0 0 0 0 0 0 0 0 0 0 0 0 0 0 0 0 127 0"/><feOffset dy="5"/><feGaussianBlur stdDeviation="2.5"/><feComposite in2="hardAlpha" operator="out"/><feColorMatrix values="0 0 0 0 0 0 0 0 0 0 0 0 0 0 0 0 0 0 0.25 0"/><feBlend in2="BackgroundImageFix" result="effect1_dropShadow_330_61"/><feBlend in="SourceGraphic" in2="effect1_dropShadow_330_61" result="shape"/></filter></defs></svg>