<svg width="483" height="65" viewBox="0 0 483 65" fill="none" xmlns="http://www.w3.org/2000/svg">
<g filter="url(#filter0_d_309_128)">
<rect x="5" width="473" height="55" rx="20" fill="white"/>
</g>
<ellipse cx="37.5" cy="27.5843" rx="14.5" ry="14.4866" fill="#36D8FF"/>
<path d="M78.7 35.095V20.895H89.66V35.095H87.86V22.495H80.5V35.095H78.7ZM98.3955 35.295C97.5421 35.295 96.7821 35.0816 96.1155 34.655C95.4488 34.2283 94.9221 33.6883 94.5355 33.035V39.355H92.7755V24.655H94.3355V26.615C94.7488 25.975 95.2888 25.4616 95.9555 25.075C96.6221 24.675 97.3488 24.475 98.1355 24.475C98.8555 24.475 99.5155 24.6216 100.115 24.915C100.715 25.2083 101.235 25.6083 101.675 26.115C102.115 26.6216 102.455 27.2016 102.695 27.855C102.949 28.495 103.075 29.1683 103.075 29.875C103.075 30.8616 102.875 31.7683 102.475 32.595C102.089 33.4216 101.542 34.0816 100.835 34.575C100.129 35.055 99.3155 35.295 98.3955 35.295ZM97.8555 33.775C98.3755 33.775 98.8421 33.6683 99.2555 33.455C99.6821 33.2283 100.042 32.935 100.335 32.575C100.642 32.2016 100.875 31.7816 101.035 31.315C101.195 30.8483 101.275 30.3683 101.275 29.875C101.275 29.355 101.182 28.8616 100.995 28.395C100.822 27.9283 100.569 27.515 100.235 27.155C99.9155 26.795 99.5355 26.515 99.0955 26.315C98.6688 26.1016 98.2021 25.995 97.6955 25.995C97.3755 25.995 97.0421 26.055 96.6955 26.175C96.3621 26.295 96.0421 26.4683 95.7355 26.695C95.4288 26.9083 95.1688 27.155 94.9555 27.435C94.7421 27.715 94.6021 28.015 94.5355 28.335V31.315C94.7355 31.7683 95.0021 32.1816 95.3355 32.555C95.6688 32.9283 96.0555 33.2283 96.4955 33.455C96.9355 33.6683 97.3888 33.775 97.8555 33.775ZM109.796 35.295C109.01 35.295 108.296 35.155 107.656 34.875C107.016 34.5816 106.463 34.1883 105.996 33.695C105.53 33.1883 105.17 32.6083 104.916 31.955C104.663 31.3016 104.536 30.615 104.536 29.895C104.536 29.1616 104.663 28.4683 104.916 27.815C105.17 27.1616 105.53 26.5883 105.996 26.095C106.463 25.5883 107.016 25.195 107.656 24.915C108.31 24.6216 109.023 24.475 109.796 24.475C110.583 24.475 111.296 24.6216 111.936 24.915C112.576 25.195 113.13 25.5883 113.596 26.095C114.076 26.5883 114.443 27.1616 114.696 27.815C114.95 28.4683 115.076 29.1616 115.076 29.895C115.076 30.615 114.95 31.3016 114.696 31.955C114.443 32.6083 114.083 33.1883 113.616 33.695C113.15 34.1883 112.59 34.5816 111.936 34.875C111.296 35.155 110.583 35.295 109.796 35.295ZM106.336 29.915C106.336 30.635 106.49 31.2883 106.796 31.875C107.116 32.4616 107.536 32.9283 108.056 33.275C108.576 33.6083 109.156 33.775 109.796 33.775C110.436 33.775 111.016 33.6016 111.536 33.255C112.07 32.9083 112.49 32.4416 112.796 31.855C113.116 31.255 113.276 30.595 113.276 29.875C113.276 29.155 113.116 28.5016 112.796 27.915C112.49 27.3283 112.07 26.8616 111.536 26.515C111.016 26.1683 110.436 25.995 109.796 25.995C109.156 25.995 108.576 26.175 108.056 26.535C107.536 26.8816 107.116 27.3483 106.796 27.935C106.49 28.5216 106.336 29.1816 106.336 29.915ZM117.189 35.095V24.655H123.629V26.215H118.949V35.095H117.189ZM131.052 35.295C130.198 35.295 129.438 35.0816 128.772 34.655C128.105 34.2283 127.578 33.6883 127.192 33.035V39.355H125.432V24.655H126.992V26.615C127.405 25.975 127.945 25.4616 128.612 25.075C129.278 24.675 130.005 24.475 130.792 24.475C131.512 24.475 132.172 24.6216 132.772 24.915C133.372 25.2083 133.892 25.6083 134.332 26.115C134.772 26.6216 135.112 27.2016 135.352 27.855C135.605 28.495 135.732 29.1683 135.732 29.875C135.732 30.8616 135.532 31.7683 135.132 32.595C134.745 33.4216 134.198 34.0816 133.492 34.575C132.785 35.055 131.972 35.295 131.052 35.295ZM130.512 33.775C131.032 33.775 131.498 33.6683 131.912 33.455C132.338 33.2283 132.698 32.935 132.992 32.575C133.298 32.2016 133.532 31.7816 133.692 31.315C133.852 30.8483 133.932 30.3683 133.932 29.875C133.932 29.355 133.838 28.8616 133.652 28.395C133.478 27.9283 133.225 27.515 132.892 27.155C132.572 26.795 132.192 26.515 131.752 26.315C131.325 26.1016 130.858 25.995 130.352 25.995C130.032 25.995 129.698 26.055 129.352 26.175C129.018 26.295 128.698 26.4683 128.392 26.695C128.085 26.9083 127.825 27.155 127.612 27.435C127.398 27.715 127.258 28.015 127.192 28.335V31.315C127.392 31.7683 127.658 32.1816 127.992 32.555C128.325 32.9283 128.712 33.2283 129.152 33.455C129.592 33.6683 130.045 33.775 130.512 33.775ZM137.073 32.075C137.073 31.4083 137.259 30.835 137.633 30.355C138.019 29.8616 138.546 29.4816 139.213 29.215C139.879 28.9483 140.653 28.815 141.533 28.815C141.999 28.815 142.493 28.855 143.013 28.935C143.533 29.0016 143.993 29.1083 144.393 29.255V28.495C144.393 27.695 144.153 27.0683 143.673 26.615C143.193 26.1483 142.513 25.915 141.633 25.915C141.059 25.915 140.506 26.0216 139.973 26.235C139.453 26.435 138.899 26.7283 138.313 27.115L137.673 25.875C138.353 25.4083 139.033 25.0616 139.713 24.835C140.393 24.595 141.099 24.475 141.833 24.475C143.166 24.475 144.219 24.8483 144.993 25.595C145.766 26.3283 146.153 27.355 146.153 28.675V33.095C146.153 33.3083 146.193 33.4683 146.273 33.575C146.366 33.6683 146.513 33.7216 146.713 33.735V35.095C146.539 35.1216 146.386 35.1416 146.253 35.155C146.133 35.1683 146.033 35.175 145.953 35.175C145.539 35.175 145.226 35.0616 145.013 34.835C144.813 34.6083 144.699 34.3683 144.673 34.115L144.633 33.455C144.179 34.0416 143.586 34.495 142.853 34.815C142.119 35.135 141.393 35.295 140.673 35.295C139.979 35.295 139.359 35.155 138.813 34.875C138.266 34.5816 137.839 34.195 137.533 33.715C137.226 33.2216 137.073 32.675 137.073 32.075ZM143.873 32.815C144.033 32.6283 144.159 32.4416 144.253 32.255C144.346 32.055 144.393 31.8883 144.393 31.755V30.455C143.979 30.295 143.546 30.175 143.093 30.095C142.639 30.0016 142.193 29.955 141.753 29.955C140.859 29.955 140.133 30.135 139.573 30.495C139.026 30.8416 138.753 31.3216 138.753 31.935C138.753 32.2683 138.839 32.595 139.013 32.915C139.199 33.2216 139.466 33.475 139.813 33.675C140.173 33.875 140.613 33.975 141.133 33.975C141.679 33.975 142.199 33.8683 142.693 33.655C143.186 33.4283 143.579 33.1483 143.873 32.815ZM148.947 35.095V24.655H150.767L154.647 31.495L158.547 24.655H160.327V35.095H158.647V27.195L155.207 33.235H154.087L150.627 27.195V35.095H148.947ZM163.146 35.095V24.655H164.966L168.846 31.495L172.746 24.655H174.526V35.095H172.846V27.195L169.406 33.235H168.286L164.826 27.195V35.095H163.146ZM177.345 35.095V24.675H179.105V32.735L184.945 24.655H186.545V35.095H184.785V27.195L179.025 35.095H177.345ZM194.978 35.295C194.124 35.295 193.364 35.0816 192.698 34.655C192.031 34.2283 191.504 33.6883 191.118 33.035V39.355H189.358V24.655H190.918V26.615C191.331 25.975 191.871 25.4616 192.538 25.075C193.204 24.675 193.931 24.475 194.718 24.475C195.438 24.475 196.098 24.6216 196.698 24.915C197.298 25.2083 197.818 25.6083 198.258 26.115C198.698 26.6216 199.038 27.2016 199.278 27.855C199.531 28.495 199.658 29.1683 199.658 29.875C199.658 30.8616 199.458 31.7683 199.058 32.595C198.671 33.4216 198.124 34.0816 197.418 34.575C196.711 35.055 195.898 35.295 194.978 35.295ZM194.438 33.775C194.958 33.775 195.424 33.6683 195.838 33.455C196.264 33.2283 196.624 32.935 196.918 32.575C197.224 32.2016 197.458 31.7816 197.618 31.315C197.778 30.8483 197.858 30.3683 197.858 29.875C197.858 29.355 197.764 28.8616 197.578 28.395C197.404 27.9283 197.151 27.515 196.818 27.155C196.498 26.795 196.118 26.515 195.678 26.315C195.251 26.1016 194.784 25.995 194.278 25.995C193.958 25.995 193.624 26.055 193.278 26.175C192.944 26.295 192.624 26.4683 192.318 26.695C192.011 26.9083 191.751 27.155 191.538 27.435C191.324 27.715 191.184 28.015 191.118 28.335V31.315C191.318 31.7683 191.584 32.1816 191.918 32.555C192.251 32.9283 192.638 33.2283 193.077 33.455C193.518 33.6683 193.971 33.775 194.438 33.775ZM206.378 35.295C205.592 35.295 204.878 35.155 204.238 34.875C203.598 34.5816 203.045 34.1883 202.578 33.695C202.112 33.1883 201.752 32.6083 201.498 31.955C201.245 31.3016 201.118 30.615 201.118 29.895C201.118 29.1616 201.245 28.4683 201.498 27.815C201.752 27.1616 202.112 26.5883 202.578 26.095C203.045 25.5883 203.598 25.195 204.238 24.915C204.892 24.6216 205.605 24.475 206.378 24.475C207.165 24.475 207.878 24.6216 208.518 24.915C209.158 25.195 209.712 25.5883 210.178 26.095C210.658 26.5883 211.025 27.1616 211.278 27.815C211.532 28.4683 211.658 29.1616 211.658 29.895C211.658 30.615 211.532 31.3016 211.278 31.955C211.025 32.6083 210.665 33.1883 210.198 33.695C209.732 34.1883 209.172 34.5816 208.518 34.875C207.878 35.155 207.165 35.295 206.378 35.295ZM202.918 29.915C202.918 30.635 203.072 31.2883 203.378 31.875C203.698 32.4616 204.118 32.9283 204.638 33.275C205.158 33.6083 205.738 33.775 206.378 33.775C207.018 33.775 207.598 33.6016 208.118 33.255C208.652 32.9083 209.072 32.4416 209.378 31.855C209.698 31.255 209.858 30.595 209.858 29.875C209.858 29.155 209.698 28.5016 209.378 27.915C209.072 27.3283 208.652 26.8616 208.118 26.515C207.598 26.1683 207.018 25.995 206.378 25.995C205.738 25.995 205.158 26.175 204.638 26.535C204.118 26.8816 203.698 27.3483 203.378 27.935C203.072 28.5216 202.918 29.1816 202.918 29.915ZM213.771 35.095V24.655H219.171C219.798 24.655 220.318 24.7816 220.731 25.035C221.144 25.275 221.451 25.5883 221.651 25.975C221.864 26.3616 221.971 26.775 221.971 27.215C221.971 27.775 221.838 28.2816 221.571 28.735C221.304 29.175 220.918 29.5083 220.411 29.735C221.011 29.9083 221.498 30.2216 221.871 30.675C222.244 31.115 222.431 31.6616 222.431 32.315C222.431 32.9016 222.291 33.4016 222.011 33.815C221.731 34.2283 221.338 34.5483 220.831 34.775C220.324 34.9883 219.738 35.095 219.071 35.095H213.771ZM215.451 33.855H219.031C219.351 33.855 219.638 33.775 219.891 33.615C220.158 33.455 220.364 33.2416 220.511 32.975C220.658 32.7083 220.731 32.4283 220.731 32.135C220.731 31.815 220.658 31.5283 220.511 31.275C220.378 31.0083 220.184 30.8016 219.931 30.655C219.691 30.495 219.411 30.415 219.091 30.415H215.451V33.855ZM215.451 29.255H218.711C219.031 29.255 219.311 29.175 219.551 29.015C219.791 28.8416 219.978 28.6216 220.111 28.355C220.244 28.0883 220.311 27.8083 220.311 27.515C220.311 27.075 220.164 26.695 219.871 26.375C219.591 26.055 219.224 25.895 218.771 25.895H215.451V29.255ZM223.85 32.075C223.85 31.4083 224.037 30.835 224.41 30.355C224.797 29.8616 225.323 29.4816 225.99 29.215C226.657 28.9483 227.43 28.815 228.31 28.815C228.777 28.815 229.27 28.855 229.79 28.935C230.31 29.0016 230.77 29.1083 231.17 29.255V28.495C231.17 27.695 230.93 27.0683 230.45 26.615C229.97 26.1483 229.29 25.915 228.41 25.915C227.837 25.915 227.283 26.0216 226.75 26.235C226.23 26.435 225.677 26.7283 225.09 27.115L224.45 25.875C225.13 25.4083 225.81 25.0616 226.49 24.835C227.17 24.595 227.877 24.475 228.61 24.475C229.943 24.475 230.997 24.8483 231.77 25.595C232.543 26.3283 232.93 27.355 232.93 28.675V33.095C232.93 33.3083 232.97 33.4683 233.05 33.575C233.143 33.6683 233.29 33.7216 233.49 33.735V35.095C233.317 35.1216 233.163 35.1416 233.03 35.155C232.91 35.1683 232.81 35.175 232.73 35.175C232.317 35.175 232.003 35.0616 231.79 34.835C231.59 34.6083 231.477 34.3683 231.45 34.115L231.41 33.455C230.957 34.0416 230.363 34.495 229.63 34.815C228.897 35.135 228.17 35.295 227.45 35.295C226.757 35.295 226.137 35.155 225.59 34.875C225.043 34.5816 224.617 34.195 224.31 33.715C224.003 33.2216 223.85 32.675 223.85 32.075ZM230.65 32.815C230.81 32.6283 230.937 32.4416 231.03 32.255C231.123 32.055 231.17 31.8883 231.17 31.755V30.455C230.757 30.295 230.323 30.175 229.87 30.095C229.417 30.0016 228.97 29.955 228.53 29.955C227.637 29.955 226.91 30.135 226.35 30.495C225.803 30.8416 225.53 31.3216 225.53 31.935C225.53 32.2683 225.617 32.595 225.79 32.915C225.977 33.2216 226.243 33.475 226.59 33.675C226.95 33.875 227.39 33.975 227.91 33.975C228.457 33.975 228.977 33.8683 229.47 33.655C229.963 33.4283 230.357 33.1483 230.65 32.815ZM235.724 35.095V24.655H237.484V28.975H242.924V24.655H244.684V35.095H242.924V30.535H237.484V35.095H235.724ZM247.502 35.095V24.675H249.262V32.735L255.102 24.655H256.702V35.095H254.942V27.195L249.182 35.095H247.502ZM264.134 35.295C263.347 35.295 262.627 35.155 261.974 34.875C261.334 34.5816 260.774 34.1883 260.294 33.695C259.827 33.1883 259.46 32.6083 259.194 31.955C258.94 31.3016 258.814 30.6083 258.814 29.875C258.814 28.8883 259.04 27.9883 259.494 27.175C259.947 26.3616 260.574 25.7083 261.374 25.215C262.187 24.7216 263.114 24.475 264.154 24.475C265.207 24.475 266.12 24.7283 266.894 25.235C267.68 25.7283 268.287 26.3816 268.714 27.195C269.154 27.995 269.374 28.8616 269.374 29.795C269.374 29.9283 269.367 30.0616 269.354 30.195C269.354 30.315 269.347 30.4083 269.334 30.475H260.674C260.727 31.155 260.914 31.7616 261.234 32.295C261.567 32.815 261.994 33.2283 262.514 33.535C263.034 33.8283 263.594 33.975 264.194 33.975C264.834 33.975 265.434 33.815 265.994 33.495C266.567 33.175 266.96 32.755 267.174 32.235L268.694 32.655C268.467 33.1616 268.127 33.615 267.674 34.015C267.234 34.415 266.707 34.7283 266.094 34.955C265.494 35.1816 264.84 35.295 264.134 35.295ZM260.614 29.255H267.734C267.68 28.575 267.487 27.975 267.154 27.455C266.82 26.935 266.394 26.5283 265.874 26.235C265.354 25.9416 264.78 25.795 264.154 25.795C263.54 25.795 262.974 25.9416 262.454 26.235C261.934 26.5283 261.507 26.935 261.174 27.455C260.854 27.975 260.667 28.575 260.614 29.255ZM276.369 35.095V24.655H278.129V28.975H283.569V24.655H285.329V35.095H283.569V30.535H278.129V35.095H276.369ZM287.346 32.075C287.346 31.4083 287.533 30.835 287.906 30.355C288.293 29.8616 288.819 29.4816 289.486 29.215C290.153 28.9483 290.926 28.815 291.806 28.815C292.273 28.815 292.766 28.855 293.286 28.935C293.806 29.0016 294.266 29.1083 294.666 29.255V28.495C294.666 27.695 294.426 27.0683 293.946 26.615C293.466 26.1483 292.786 25.915 291.906 25.915C291.333 25.915 290.779 26.0216 290.246 26.235C289.726 26.435 289.173 26.7283 288.586 27.115L287.946 25.875C288.626 25.4083 289.306 25.0616 289.986 24.835C290.666 24.595 291.373 24.475 292.106 24.475C293.439 24.475 294.493 24.8483 295.266 25.595C296.039 26.3283 296.426 27.355 296.426 28.675V33.095C296.426 33.3083 296.466 33.4683 296.546 33.575C296.639 33.6683 296.786 33.7216 296.986 33.735V35.095C296.813 35.1216 296.659 35.1416 296.526 35.155C296.406 35.1683 296.306 35.175 296.226 35.175C295.813 35.175 295.499 35.0616 295.286 34.835C295.086 34.6083 294.973 34.3683 294.946 34.115L294.906 33.455C294.453 34.0416 293.859 34.495 293.126 34.815C292.393 35.135 291.666 35.295 290.946 35.295C290.253 35.295 289.633 35.155 289.086 34.875C288.539 34.5816 288.113 34.195 287.806 33.715C287.499 33.2216 287.346 32.675 287.346 32.075ZM294.146 32.815C294.306 32.6283 294.433 32.4416 294.526 32.255C294.619 32.055 294.666 31.8883 294.666 31.755V30.455C294.253 30.295 293.819 30.175 293.366 30.095C292.913 30.0016 292.466 29.955 292.026 29.955C291.133 29.955 290.406 30.135 289.846 30.495C289.299 30.8416 289.026 31.3216 289.026 31.935C289.026 32.2683 289.113 32.595 289.286 32.915C289.473 33.2216 289.739 33.475 290.086 33.675C290.446 33.875 290.886 33.975 291.406 33.975C291.953 33.975 292.473 33.8683 292.966 33.655C293.459 33.4283 293.853 33.1483 294.146 32.815ZM309.919 35.295C309.066 35.295 308.306 35.0816 307.639 34.655C306.972 34.2283 306.446 33.6883 306.059 33.035V39.355H304.299V24.655H305.859V26.615C306.272 25.975 306.812 25.4616 307.479 25.075C308.146 24.675 308.872 24.475 309.659 24.475C310.379 24.475 311.039 24.6216 311.639 24.915C312.239 25.2083 312.759 25.6083 313.199 26.115C313.639 26.6216 313.979 27.2016 314.219 27.855C314.472 28.495 314.599 29.1683 314.599 29.875C314.599 30.8616 314.399 31.7683 313.999 32.595C313.612 33.4216 313.066 34.0816 312.359 34.575C311.652 35.055 310.839 35.295 309.919 35.295ZM309.379 33.775C309.899 33.775 310.366 33.6683 310.779 33.455C311.206 33.2283 311.566 32.935 311.859 32.575C312.166 32.2016 312.399 31.7816 312.559 31.315C312.719 30.8483 312.799 30.3683 312.799 29.875C312.799 29.355 312.706 28.8616 312.519 28.395C312.346 27.9283 312.092 27.515 311.759 27.155C311.439 26.795 311.059 26.515 310.619 26.315C310.192 26.1016 309.726 25.995 309.219 25.995C308.899 25.995 308.566 26.055 308.219 26.175C307.886 26.295 307.566 26.4683 307.259 26.695C306.952 26.9083 306.692 27.155 306.479 27.435C306.266 27.715 306.126 28.015 306.059 28.335V31.315C306.259 31.7683 306.526 32.1816 306.859 32.555C307.192 32.9283 307.579 33.2283 308.019 33.455C308.459 33.6683 308.912 33.775 309.379 33.775ZM315.94 32.075C315.94 31.4083 316.127 30.835 316.5 30.355C316.887 29.8616 317.413 29.4816 318.08 29.215C318.747 28.9483 319.52 28.815 320.4 28.815C320.867 28.815 321.36 28.855 321.88 28.935C322.4 29.0016 322.86 29.1083 323.26 29.255V28.495C323.26 27.695 323.02 27.0683 322.54 26.615C322.06 26.1483 321.38 25.915 320.5 25.915C319.927 25.915 319.373 26.0216 318.84 26.235C318.32 26.435 317.767 26.7283 317.18 27.115L316.54 25.875C317.22 25.4083 317.9 25.0616 318.58 24.835C319.26 24.595 319.967 24.475 320.7 24.475C322.033 24.475 323.087 24.8483 323.86 25.595C324.633 26.3283 325.02 27.355 325.02 28.675V33.095C325.02 33.3083 325.06 33.4683 325.14 33.575C325.233 33.6683 325.38 33.7216 325.58 33.735V35.095C325.407 35.1216 325.253 35.1416 325.12 35.155C325 35.1683 324.9 35.175 324.82 35.175C324.407 35.175 324.093 35.0616 323.88 34.835C323.68 34.6083 323.567 34.3683 323.54 34.115L323.5 33.455C323.047 34.0416 322.453 34.495 321.72 34.815C320.987 35.135 320.26 35.295 319.54 35.295C318.847 35.295 318.227 35.155 317.68 34.875C317.133 34.5816 316.707 34.195 316.4 33.715C316.093 33.2216 315.94 32.675 315.94 32.075ZM322.74 32.815C322.9 32.6283 323.027 32.4416 323.12 32.255C323.213 32.055 323.26 31.8883 323.26 31.755V30.455C322.847 30.295 322.413 30.175 321.96 30.095C321.507 30.0016 321.06 29.955 320.62 29.955C319.727 29.955 319 30.135 318.44 30.495C317.893 30.8416 317.62 31.3216 317.62 31.935C317.62 32.2683 317.707 32.595 317.88 32.915C318.067 33.2216 318.333 33.475 318.68 33.675C319.04 33.875 319.48 33.975 320 33.975C320.547 33.975 321.067 33.8683 321.56 33.655C322.053 33.4283 322.447 33.1483 322.74 32.815ZM331.094 35.235C330.081 35.235 329.221 35.0483 328.514 34.675C327.821 34.2883 327.287 33.755 326.914 33.075L328.354 32.435C328.594 32.8616 328.934 33.195 329.374 33.435C329.827 33.675 330.374 33.795 331.014 33.795C331.774 33.795 332.374 33.6283 332.814 33.295C333.254 32.9616 333.474 32.515 333.474 31.955C333.474 31.4483 333.294 31.0416 332.934 30.735C332.587 30.415 332.094 30.2483 331.454 30.235H330.394V29.075H331.514C331.794 29.075 332.041 29.0083 332.254 28.875C332.481 28.7283 332.654 28.535 332.774 28.295C332.907 28.055 332.974 27.7883 332.974 27.495C332.974 27.0283 332.807 26.655 332.474 26.375C332.141 26.0816 331.641 25.935 330.974 25.935C330.427 25.935 329.967 26.0416 329.594 26.255C329.234 26.4683 328.941 26.7883 328.714 27.215L327.374 26.495C327.707 25.8683 328.187 25.3816 328.814 25.035C329.454 24.675 330.201 24.495 331.054 24.495C331.734 24.495 332.334 24.6083 332.854 24.835C333.387 25.0483 333.801 25.3616 334.094 25.775C334.401 26.1883 334.554 26.6883 334.554 27.275C334.554 27.7683 334.434 28.2283 334.194 28.655C333.967 29.0683 333.627 29.3816 333.174 29.595C333.801 29.7816 334.281 30.1083 334.614 30.575C334.947 31.0283 335.114 31.5683 335.114 32.195C335.114 32.835 334.941 33.3816 334.594 33.835C334.247 34.2883 333.774 34.635 333.174 34.875C332.574 35.115 331.881 35.235 331.094 35.235ZM337.209 35.095V24.655H338.969V28.975H344.409V24.655H346.169V35.095H344.409V30.535H338.969V35.095H337.209ZM348.986 35.095V24.655H350.746V28.215H352.866C354.093 28.215 355.019 28.5283 355.646 29.155C356.286 29.7683 356.606 30.575 356.606 31.575C356.606 32.2416 356.466 32.8416 356.186 33.375C355.919 33.9083 355.519 34.3283 354.986 34.635C354.453 34.9416 353.786 35.095 352.986 35.095H348.986ZM350.746 33.715H352.746C353.239 33.715 353.633 33.6216 353.926 33.435C354.233 33.235 354.459 32.975 354.606 32.655C354.753 32.335 354.826 31.9883 354.826 31.615C354.826 31.255 354.759 30.9216 354.626 30.615C354.493 30.3083 354.273 30.0616 353.966 29.875C353.659 29.6883 353.239 29.595 352.706 29.595H350.746V33.715ZM358.406 35.095V24.675H360.166V35.095H358.406ZM363.79 24.655L366.55 28.495L366.71 28.815L366.89 28.495L369.63 24.655H371.59L367.73 29.895L371.61 35.095H369.65L366.89 31.275L366.71 30.975L366.55 31.275L363.79 35.095H361.83L365.71 29.895L361.85 24.655H363.79ZM377.542 35.095L380.502 30.895C379.822 30.7616 379.276 30.4416 378.862 29.935C378.449 29.415 378.242 28.7216 378.242 27.855C378.242 27.2283 378.389 26.675 378.682 26.195C378.976 25.715 379.382 25.335 379.902 25.055C380.436 24.775 381.056 24.635 381.762 24.635H386.042V35.095H384.282V31.175H382.242L379.482 35.095H377.542ZM381.882 29.875H384.282V26.015H382.082C381.456 26.015 380.956 26.195 380.582 26.555C380.209 26.9016 380.022 27.3483 380.022 27.895C380.022 28.4416 380.176 28.9083 380.482 29.295C380.802 29.6816 381.269 29.875 381.882 29.875ZM392.149 35.235C391.135 35.235 390.275 35.0483 389.569 34.675C388.875 34.2883 388.342 33.755 387.969 33.075L389.409 32.435C389.649 32.8616 389.989 33.195 390.429 33.435C390.882 33.675 391.429 33.795 392.069 33.795C392.829 33.795 393.429 33.6283 393.869 33.295C394.309 32.9616 394.529 32.515 394.529 31.955C394.529 31.4483 394.349 31.0416 393.989 30.735C393.642 30.415 393.149 30.2483 392.509 30.235H391.449V29.075H392.569C392.849 29.075 393.095 29.0083 393.309 28.875C393.535 28.7283 393.709 28.535 393.829 28.295C393.962 28.055 394.029 27.7883 394.029 27.495C394.029 27.0283 393.862 26.655 393.529 26.375C393.195 26.0816 392.695 25.935 392.029 25.935C391.482 25.935 391.022 26.0416 390.649 26.255C390.289 26.4683 389.995 26.7883 389.769 27.215L388.429 26.495C388.762 25.8683 389.242 25.3816 389.869 25.035C390.509 24.675 391.255 24.495 392.109 24.495C392.789 24.495 393.389 24.6083 393.909 24.835C394.442 25.0483 394.855 25.3616 395.149 25.775C395.455 26.1883 395.609 26.6883 395.609 27.275C395.609 27.7683 395.489 28.2283 395.249 28.655C395.022 29.0683 394.682 29.3816 394.229 29.595C394.855 29.7816 395.335 30.1083 395.669 30.575C396.002 31.0283 396.169 31.5683 396.169 32.195C396.169 32.835 395.995 33.3816 395.649 33.835C395.302 34.2883 394.829 34.635 394.229 34.875C393.629 35.115 392.935 35.235 392.149 35.235ZM398.263 35.095V24.655H400.023V28.215H402.143C403.37 28.215 404.297 28.5283 404.923 29.155C405.563 29.7683 405.883 30.575 405.883 31.575C405.883 32.2416 405.743 32.8416 405.463 33.375C405.197 33.9083 404.797 34.3283 404.263 34.635C403.73 34.9416 403.063 35.095 402.263 35.095H398.263ZM400.023 33.715H402.023C402.517 33.715 402.91 33.6216 403.203 33.435C403.51 33.235 403.737 32.975 403.883 32.655C404.03 32.335 404.103 31.9883 404.103 31.615C404.103 31.255 404.037 30.9216 403.903 30.615C403.77 30.3083 403.55 30.0616 403.243 29.875C402.937 29.6883 402.517 29.595 401.983 29.595H400.023V33.715ZM407.683 35.095V24.675H409.443V35.095H407.683ZM412.267 35.095V24.655H414.027V28.955H415.187L418.467 24.655H420.467L416.567 29.715L420.927 35.095H418.887L415.187 30.575H414.027V35.095H412.267ZM421.838 32.075C421.838 31.4083 422.025 30.835 422.398 30.355C422.785 29.8616 423.312 29.4816 423.978 29.215C424.645 28.9483 425.418 28.815 426.298 28.815C426.765 28.815 427.258 28.855 427.778 28.935C428.298 29.0016 428.758 29.1083 429.158 29.255V28.495C429.158 27.695 428.918 27.0683 428.438 26.615C427.958 26.1483 427.278 25.915 426.398 25.915C425.825 25.915 425.272 26.0216 424.738 26.235C424.218 26.435 423.665 26.7283 423.078 27.115L422.438 25.875C423.118 25.4083 423.798 25.0616 424.478 24.835C425.158 24.595 425.865 24.475 426.598 24.475C427.932 24.475 428.985 24.8483 429.758 25.595C430.532 26.3283 430.918 27.355 430.918 28.675V33.095C430.918 33.3083 430.958 33.4683 431.038 33.575C431.132 33.6683 431.278 33.7216 431.478 33.735V35.095C431.305 35.1216 431.152 35.1416 431.018 35.155C430.898 35.1683 430.798 35.175 430.718 35.175C430.305 35.175 429.992 35.0616 429.778 34.835C429.578 34.6083 429.465 34.3683 429.438 34.115L429.398 33.455C428.945 34.0416 428.352 34.495 427.618 34.815C426.885 35.135 426.158 35.295 425.438 35.295C424.745 35.295 424.125 35.155 423.578 34.875C423.032 34.5816 422.605 34.195 422.298 33.715C421.992 33.2216 421.838 32.675 421.838 32.075ZM428.638 32.815C428.798 32.6283 428.925 32.4416 429.018 32.255C429.112 32.055 429.158 31.8883 429.158 31.755V30.455C428.745 30.295 428.312 30.175 427.858 30.095C427.405 30.0016 426.958 29.955 426.518 29.955C425.625 29.955 424.898 30.135 424.338 30.495C423.792 30.8416 423.518 31.3216 423.518 31.935C423.518 32.2683 423.605 32.595 423.778 32.915C423.965 33.2216 424.232 33.475 424.578 33.675C424.938 33.875 425.378 33.975 425.898 33.975C426.445 33.975 426.965 33.8683 427.458 33.655C427.952 33.4283 428.345 33.1483 428.638 32.815ZM434.513 24.655L437.273 28.495L437.433 28.815L437.613 28.495L440.353 24.655H442.312L438.453 29.895L442.333 35.095H440.373L437.613 31.275L437.433 30.975L437.273 31.275L434.513 35.095H432.553L436.433 29.895L432.573 24.655H434.513Z" fill="black"/>
<defs>
<filter id="filter0_d_309_128" x="0" y="0" width="483" height="65" filterUnits="userSpaceOnUse" color-interpolation-filters="sRGB">
<feFlood flood-opacity="0" result="BackgroundImageFix"/>
<feColorMatrix in="SourceAlpha" type="matrix" values="0 0 0 0 0 0 0 0 0 0 0 0 0 0 0 0 0 0 127 0" result="hardAlpha"/>
<feOffset dy="5"/>
<feGaussianBlur stdDeviation="2.5"/>
<feComposite in2="hardAlpha" operator="out"/>
<feColorMatrix type="matrix" values="0 0 0 0 1 0 0 0 0 1 0 0 0 0 1 0 0 0 0.25 0"/>
<feBlend mode="normal" in2="BackgroundImageFix" result="effect1_dropShadow_309_128"/>
<feBlend mode="normal" in="SourceGraphic" in2="effect1_dropShadow_309_128" result="shape"/>
</filter>
</defs>
</svg>
