<svg xmlns="http://www.w3.org/2000/svg" width="269" height="83" fill="none"><g filter="url(#a)"><rect width="259" height="72.933" x="5" fill="#fff" rx="36.466"/></g><path fill="#000" d="M109.464 44.568v-17.04h7.344c.832 0 1.6.168 2.304.504a5.698 5.698 0 0 1 1.824 1.368c.512.56.904 1.192 1.176 1.896.288.704.432 1.416.432 2.136a5.96 5.96 0 0 1-.72 2.856 5.93 5.93 0 0 1-1.968 2.208c-.832.56-1.808.84-2.928.84h-2.784v5.232h-4.68Zm4.68-9.312h2.472c.192 0 .376-.056.552-.168.176-.112.32-.304.432-.576.128-.272.192-.632.192-1.08 0-.48-.072-.848-.216-1.104-.128-.272-.296-.456-.504-.552a1.135 1.135 0 0 0-.576-.168h-2.352v3.648Zm13.26-7.728 3.048 6.96 3.12-6.96h5.088l-5.88 11.4v5.64h-4.656V38.88l-5.784-11.352h5.064Zm25.801 4.08h-4.896v12.96h-4.68v-12.96h-4.92v-4.08h14.496v4.08Zm16.776-4.08v17.04h-4.68v-6.672h-5.712v6.672h-4.68v-17.04h4.68v6.288h5.712v-6.288h4.68Zm10.608 17.184c-1.296 0-2.472-.24-3.528-.72a8.927 8.927 0 0 1-2.736-1.968 9.4 9.4 0 0 1-1.752-2.784c-.4-1.04-.6-2.112-.6-3.216a8.25 8.25 0 0 1 .648-3.24 8.93 8.93 0 0 1 1.8-2.736 8.564 8.564 0 0 1 2.76-1.92c1.072-.464 2.24-.696 3.504-.696 1.296 0 2.472.248 3.528.744a8.162 8.162 0 0 1 2.712 1.968 8.94 8.94 0 0 1 1.728 2.808 8.343 8.343 0 0 1-.024 6.384 8.658 8.658 0 0 1-1.8 2.76c-.768.8-1.68 1.44-2.736 1.92-1.056.464-2.224.696-3.504.696Zm-3.864-8.64c0 .576.08 1.136.24 1.68.16.528.4 1.008.72 1.44.32.416.72.752 1.2 1.008.496.24 1.08.36 1.752.36.672 0 1.256-.128 1.752-.384s.896-.6 1.2-1.032c.32-.448.552-.936.696-1.464a5.84 5.84 0 0 0 0-3.312c-.16-.528-.4-1-.72-1.416a3.27 3.27 0 0 0-1.224-1.008c-.496-.24-1.072-.36-1.728-.36-.672 0-1.256.128-1.752.384-.48.256-.88.6-1.2 1.032-.32.416-.56.896-.72 1.44a6.175 6.175 0 0 0-.216 1.632Zm19.216.12v8.376h-4.68v-17.04h3.648l6.84 8.664v-8.664h4.68v17.04h-3.72l-6.768-8.376Z"/><g clip-path="url(#b)"><path fill="url(#c)" d="M55.786 11.582c-12.661 0-11.87 5.49-11.87 5.49l.013 5.689h12.083v1.708H39.13s-8.102-.919-8.102 11.856c0 12.776 7.072 12.323 7.072 12.323h4.22v-5.929s-.227-7.071 6.959-7.071h11.984s6.732.108 6.732-6.507V18.2s1.023-6.62-12.21-6.62Zm-6.662 3.825a2.173 2.173 0 1 1-1.538 3.711 2.17 2.17 0 0 1-.471-2.37 2.171 2.171 0 0 1 2.009-1.34Z"/><path fill="url(#d)" d="M56.145 61.197c12.662 0 11.871-5.49 11.871-5.49l-.014-5.689H55.92V48.31h16.882s8.102.92 8.102-11.857c0-12.775-7.072-12.322-7.072-12.322h-4.22v5.928s.227 7.072-6.959 7.072H50.67s-6.733-.109-6.733 6.507v10.94s-1.023 6.62 12.21 6.62Zm6.663-3.825a2.172 2.172 0 0 1-1.538-3.711 2.17 2.17 0 0 1 2.37-.471 2.171 2.171 0 0 1 1.176 2.84 2.171 2.171 0 0 1-2.008 1.342Z"/></g><defs><linearGradient id="c" x1="510.322" x2="2981.96" y1="457.841" y2="2904.82" gradientUnits="userSpaceOnUse"><stop stop-color="#387EB8"/><stop offset="1" stop-color="#366994"/></linearGradient><linearGradient id="d" x1="751.373" x2="3405.62" y1="786.948" y2="3296.1" gradientUnits="userSpaceOnUse"><stop stop-color="#FFE052"/><stop offset="1" stop-color="#FFC331"/></linearGradient><clipPath id="b"><path fill="#fff" d="M31 11.568h50v49.8H31z"/></clipPath><filter id="a" width="269" height="82.933" x="0" y="0" color-interpolation-filters="sRGB" filterUnits="userSpaceOnUse"><feFlood flood-opacity="0" result="BackgroundImageFix"/><feColorMatrix in="SourceAlpha" result="hardAlpha" values="0 0 0 0 0 0 0 0 0 0 0 0 0 0 0 0 0 0 127 0"/><feOffset dy="5"/><feGaussianBlur stdDeviation="2.5"/><feComposite in2="hardAlpha" operator="out"/><feColorMatrix values="0 0 0 0 0 0 0 0 0 0 0 0 0 0 0 0 0 0 0.25 0"/><feBlend in2="BackgroundImageFix" result="effect1_dropShadow_330_328"/><feBlend in="SourceGraphic" in2="effect1_dropShadow_330_328" result="shape"/></filter></defs></svg>