<svg width="429" height="65" viewBox="0 0 429 65" fill="none" xmlns="http://www.w3.org/2000/svg">
<g filter="url(#filter0_d_309_132)">
<rect x="5" width="419" height="55" rx="20" fill="white"/>
</g>
<ellipse cx="37.5" cy="27.5843" rx="14.5" ry="14.4866" fill="#36D8FF"/>
<path d="M77.78 27.8C77.78 26.9333 77.9267 26.0867 78.22 25.26C78.5267 24.42 78.9667 23.66 79.54 22.98C80.1267 22.2867 80.84 21.74 81.68 21.34C82.52 20.9267 83.4733 20.72 84.54 20.72C85.8067 20.72 86.8933 21.0133 87.8 21.6C88.7067 22.1733 89.38 22.9133 89.82 23.82L88.4 24.74C88.12 24.14 87.76 23.6667 87.32 23.32C86.8933 22.96 86.4267 22.7067 85.92 22.56C85.4267 22.4133 84.94 22.34 84.46 22.34C83.6733 22.34 82.9733 22.5 82.36 22.82C81.76 23.14 81.2533 23.5667 80.84 24.1C80.4267 24.6333 80.1133 25.2333 79.9 25.9C79.7 26.5533 79.6 27.2133 79.6 27.88C79.6 28.6133 79.72 29.32 79.96 30C80.2133 30.68 80.56 31.28 81 31.8C81.44 32.32 81.96 32.7333 82.56 33.04C83.16 33.3467 83.8133 33.5 84.52 33.5C85.0133 33.5 85.52 33.4133 86.04 33.24C86.56 33.0667 87.0467 32.8 87.5 32.44C87.9533 32.0667 88.3133 31.5867 88.58 31L90.08 31.82C89.7867 32.5267 89.3333 33.1267 88.72 33.62C88.1067 34.1133 87.42 34.4867 86.66 34.74C85.9133 34.9933 85.1733 35.12 84.44 35.12C83.4667 35.12 82.5733 34.9133 81.76 34.5C80.9467 34.0733 80.24 33.5133 79.64 32.82C79.0533 32.1133 78.5933 31.3267 78.26 30.46C77.94 29.58 77.78 28.6933 77.78 27.8ZM96.6128 35.2C95.8261 35.2 95.1128 35.06 94.4728 34.78C93.8328 34.4867 93.2795 34.0933 92.8128 33.6C92.3461 33.0933 91.9861 32.5133 91.7328 31.86C91.4795 31.2067 91.3528 30.52 91.3528 29.8C91.3528 29.0667 91.4795 28.3733 91.7328 27.72C91.9861 27.0667 92.3461 26.4933 92.8128 26C93.2795 25.4933 93.8328 25.1 94.4728 24.82C95.1261 24.5267 95.8395 24.38 96.6128 24.38C97.3995 24.38 98.1128 24.5267 98.7528 24.82C99.3928 25.1 99.9461 25.4933 100.413 26C100.893 26.4933 101.259 27.0667 101.513 27.72C101.766 28.3733 101.893 29.0667 101.893 29.8C101.893 30.52 101.766 31.2067 101.513 31.86C101.259 32.5133 100.899 33.0933 100.433 33.6C99.9661 34.0933 99.4061 34.4867 98.7528 34.78C98.1128 35.06 97.3995 35.2 96.6128 35.2ZM93.1528 29.82C93.1528 30.54 93.3061 31.1933 93.6128 31.78C93.9328 32.3667 94.3528 32.8333 94.8728 33.18C95.3928 33.5133 95.9728 33.68 96.6128 33.68C97.2528 33.68 97.8328 33.5067 98.3528 33.16C98.8861 32.8133 99.3061 32.3467 99.6128 31.76C99.9328 31.16 100.093 30.5 100.093 29.78C100.093 29.06 99.9328 28.4067 99.6128 27.82C99.3061 27.2333 98.8861 26.7667 98.3528 26.42C97.8328 26.0733 97.2528 25.9 96.6128 25.9C95.9728 25.9 95.3928 26.08 94.8728 26.44C94.3528 26.7867 93.9328 27.2533 93.6128 27.84C93.3061 28.4267 93.1528 29.0867 93.1528 29.82ZM107.285 35.14C106.272 35.14 105.412 34.9533 104.705 34.58C104.012 34.1933 103.479 33.66 103.105 32.98L104.545 32.34C104.785 32.7667 105.125 33.1 105.565 33.34C106.019 33.58 106.565 33.7 107.205 33.7C107.965 33.7 108.565 33.5333 109.005 33.2C109.445 32.8667 109.665 32.42 109.665 31.86C109.665 31.3533 109.485 30.9467 109.125 30.64C108.779 30.32 108.285 30.1533 107.645 30.14H106.585V28.98H107.705C107.985 28.98 108.232 28.9133 108.445 28.78C108.672 28.6333 108.845 28.44 108.965 28.2C109.099 27.96 109.165 27.6933 109.165 27.4C109.165 26.9333 108.999 26.56 108.665 26.28C108.332 25.9867 107.832 25.84 107.165 25.84C106.619 25.84 106.159 25.9467 105.785 26.16C105.425 26.3733 105.132 26.6933 104.905 27.12L103.565 26.4C103.899 25.7733 104.379 25.2867 105.005 24.94C105.645 24.58 106.392 24.4 107.245 24.4C107.925 24.4 108.525 24.5133 109.045 24.74C109.579 24.9533 109.992 25.2667 110.285 25.68C110.592 26.0933 110.745 26.5933 110.745 27.18C110.745 27.6733 110.625 28.1333 110.385 28.56C110.159 28.9733 109.819 29.2867 109.365 29.5C109.992 29.6867 110.472 30.0133 110.805 30.48C111.139 30.9333 111.305 31.4733 111.305 32.1C111.305 32.74 111.132 33.2867 110.785 33.74C110.439 34.1933 109.965 34.54 109.365 34.78C108.765 35.02 108.072 35.14 107.285 35.14ZM112.26 37.46V33.44H112.48C112.773 33.44 113.04 33.3533 113.28 33.18C113.533 33.0067 113.753 32.7067 113.94 32.28C114.14 31.84 114.3 31.24 114.42 30.48C114.54 29.72 114.62 28.7533 114.66 27.58L114.76 24.56H121.86V33.44H123.28V37.46H121.72V35H113.82V37.46H112.26ZM114.94 33.44H120.1V26.12H116.32L116.26 27.74C116.22 28.8733 116.14 29.8267 116.02 30.6C115.913 31.36 115.767 31.9667 115.58 32.42C115.407 32.8733 115.193 33.2133 114.94 33.44ZM124.416 31.98C124.416 31.3133 124.603 30.74 124.976 30.26C125.363 29.7667 125.89 29.3867 126.556 29.12C127.223 28.8533 127.996 28.72 128.876 28.72C129.343 28.72 129.836 28.76 130.356 28.84C130.876 28.9067 131.336 29.0133 131.736 29.16V28.4C131.736 27.6 131.496 26.9733 131.016 26.52C130.536 26.0533 129.856 25.82 128.976 25.82C128.403 25.82 127.85 25.9267 127.316 26.14C126.796 26.34 126.243 26.6333 125.656 27.02L125.016 25.78C125.696 25.3133 126.376 24.9667 127.056 24.74C127.736 24.5 128.443 24.38 129.176 24.38C130.51 24.38 131.563 24.7533 132.336 25.5C133.11 26.2333 133.496 27.26 133.496 28.58V33C133.496 33.2133 133.536 33.3733 133.616 33.48C133.71 33.5733 133.856 33.6267 134.056 33.64V35C133.883 35.0267 133.73 35.0467 133.596 35.06C133.476 35.0733 133.376 35.08 133.296 35.08C132.883 35.08 132.57 34.9667 132.356 34.74C132.156 34.5133 132.043 34.2733 132.016 34.02L131.976 33.36C131.523 33.9467 130.93 34.4 130.196 34.72C129.463 35.04 128.736 35.2 128.016 35.2C127.323 35.2 126.703 35.06 126.156 34.78C125.61 34.4867 125.183 34.1 124.876 33.62C124.57 33.1267 124.416 32.58 124.416 31.98ZM131.216 32.72C131.376 32.5333 131.503 32.3467 131.596 32.16C131.69 31.96 131.736 31.7933 131.736 31.66V30.36C131.323 30.2 130.89 30.08 130.436 30C129.983 29.9067 129.536 29.86 129.096 29.86C128.203 29.86 127.476 30.04 126.916 30.4C126.37 30.7467 126.096 31.2267 126.096 31.84C126.096 32.1733 126.183 32.5 126.356 32.82C126.543 33.1267 126.81 33.38 127.156 33.58C127.516 33.78 127.956 33.88 128.476 33.88C129.023 33.88 129.543 33.7733 130.036 33.56C130.53 33.3333 130.923 33.0533 131.216 32.72ZM136.291 35V24.56H138.051V28.88H143.491V24.56H145.251V35H143.491V30.44H138.051V35H136.291ZM148.068 35V24.58H149.828V32.64L155.668 24.56H157.268V35H155.508V27.1L149.748 35H148.068ZM164.7 35.2C163.913 35.2 163.193 35.06 162.54 34.78C161.9 34.4867 161.34 34.0933 160.86 33.6C160.393 33.0933 160.027 32.5133 159.76 31.86C159.507 31.2067 159.38 30.5133 159.38 29.78C159.38 28.7933 159.607 27.8933 160.06 27.08C160.513 26.2667 161.14 25.6133 161.94 25.12C162.753 24.6267 163.68 24.38 164.72 24.38C165.773 24.38 166.687 24.6333 167.46 25.14C168.247 25.6333 168.853 26.2867 169.28 27.1C169.72 27.9 169.94 28.7667 169.94 29.7C169.94 29.8333 169.933 29.9667 169.92 30.1C169.92 30.22 169.913 30.3133 169.9 30.38H161.24C161.293 31.06 161.48 31.6667 161.8 32.2C162.133 32.72 162.56 33.1333 163.08 33.44C163.6 33.7333 164.16 33.88 164.76 33.88C165.4 33.88 166 33.72 166.56 33.4C167.133 33.08 167.527 32.66 167.74 32.14L169.26 32.56C169.033 33.0667 168.693 33.52 168.24 33.92C167.8 34.32 167.273 34.6333 166.66 34.86C166.06 35.0867 165.407 35.2 164.7 35.2ZM161.18 29.16H168.3C168.247 28.48 168.053 27.88 167.72 27.36C167.387 26.84 166.96 26.4333 166.44 26.14C165.92 25.8467 165.347 25.7 164.72 25.7C164.107 25.7 163.54 25.8467 163.02 26.14C162.5 26.4333 162.073 26.84 161.74 27.36C161.42 27.88 161.233 28.48 161.18 29.16ZM176.935 35V24.58H178.695V32.64L184.535 24.56H186.135V35H184.375V27.1L178.615 35H176.935ZM198.566 35.2C197.779 35.2 197.066 35.06 196.426 34.78C195.786 34.4867 195.233 34.0933 194.766 33.6C194.299 33.0933 193.939 32.5133 193.686 31.86C193.433 31.2067 193.306 30.52 193.306 29.8C193.306 29.0667 193.433 28.3733 193.686 27.72C193.939 27.0667 194.299 26.4933 194.766 26C195.233 25.4933 195.786 25.1 196.426 24.82C197.079 24.5267 197.793 24.38 198.566 24.38C199.353 24.38 200.066 24.5267 200.706 24.82C201.346 25.1 201.899 25.4933 202.366 26C202.846 26.4933 203.213 27.0667 203.466 27.72C203.719 28.3733 203.846 29.0667 203.846 29.8C203.846 30.52 203.719 31.2067 203.466 31.86C203.213 32.5133 202.853 33.0933 202.386 33.6C201.919 34.0933 201.359 34.4867 200.706 34.78C200.066 35.06 199.353 35.2 198.566 35.2ZM195.106 29.82C195.106 30.54 195.259 31.1933 195.566 31.78C195.886 32.3667 196.306 32.8333 196.826 33.18C197.346 33.5133 197.926 33.68 198.566 33.68C199.206 33.68 199.786 33.5067 200.306 33.16C200.839 32.8133 201.259 32.3467 201.566 31.76C201.886 31.16 202.046 30.5 202.046 29.78C202.046 29.06 201.886 28.4067 201.566 27.82C201.259 27.2333 200.839 26.7667 200.306 26.42C199.786 26.0733 199.206 25.9 198.566 25.9C197.926 25.9 197.346 26.08 196.826 26.44C196.306 26.7867 195.886 27.2533 195.566 27.84C195.259 28.4267 195.106 29.0867 195.106 29.82ZM205.259 35L209.099 29.62L205.599 24.56H207.579L210.579 28.9H211.699V24.56H213.499V28.9H214.659L217.599 24.56H219.599L216.099 29.62L219.959 35H217.939L214.659 30.44H213.499V35H211.699V30.44H210.579L207.279 35H205.259ZM222.052 35V24.58H223.812V32.64L229.652 24.56H231.252V35H229.492V27.1L223.732 35H222.052ZM234.045 35V24.56H239.445C240.071 24.56 240.591 24.6867 241.005 24.94C241.418 25.18 241.725 25.4933 241.925 25.88C242.138 26.2667 242.245 26.68 242.245 27.12C242.245 27.68 242.111 28.1867 241.845 28.64C241.578 29.08 241.191 29.4133 240.685 29.64C241.285 29.8133 241.771 30.1267 242.145 30.58C242.518 31.02 242.705 31.5667 242.705 32.22C242.705 32.8067 242.565 33.3067 242.285 33.72C242.005 34.1333 241.611 34.4533 241.105 34.68C240.598 34.8933 240.011 35 239.345 35H234.045ZM235.725 33.76H239.305C239.625 33.76 239.911 33.68 240.165 33.52C240.431 33.36 240.638 33.1467 240.785 32.88C240.931 32.6133 241.005 32.3333 241.005 32.04C241.005 31.72 240.931 31.4333 240.785 31.18C240.651 30.9133 240.458 30.7067 240.205 30.56C239.965 30.4 239.685 30.32 239.365 30.32H235.725V33.76ZM235.725 29.16H238.985C239.305 29.16 239.585 29.08 239.825 28.92C240.065 28.7467 240.251 28.5267 240.385 28.26C240.518 27.9933 240.585 27.7133 240.585 27.42C240.585 26.98 240.438 26.6 240.145 26.28C239.865 25.96 239.498 25.8 239.045 25.8H235.725V29.16ZM244.023 35.08V33.5C244.37 33.5 244.677 33.4133 244.943 33.24C245.223 33.0533 245.47 32.7467 245.683 32.32C245.897 31.88 246.063 31.28 246.183 30.52C246.317 29.7467 246.403 28.7667 246.443 27.58L246.563 24.56H253.663V35H251.903V26.12H248.123L248.083 27.74C248.03 29.1667 247.91 30.3533 247.723 31.3C247.537 32.2467 247.277 32.9933 246.943 33.54C246.61 34.0867 246.197 34.48 245.703 34.72C245.223 34.96 244.663 35.08 244.023 35.08ZM261.126 35.2C260.339 35.2 259.619 35.06 258.966 34.78C258.326 34.4867 257.766 34.0933 257.286 33.6C256.819 33.0933 256.453 32.5133 256.186 31.86C255.933 31.2067 255.806 30.5133 255.806 29.78C255.806 28.7933 256.033 27.8933 256.486 27.08C256.939 26.2667 257.566 25.6133 258.366 25.12C259.179 24.6267 260.106 24.38 261.146 24.38C262.199 24.38 263.113 24.6333 263.886 25.14C264.673 25.6333 265.279 26.2867 265.706 27.1C266.146 27.9 266.366 28.7667 266.366 29.7C266.366 29.8333 266.359 29.9667 266.346 30.1C266.346 30.22 266.339 30.3133 266.326 30.38H257.666C257.719 31.06 257.906 31.6667 258.226 32.2C258.559 32.72 258.986 33.1333 259.506 33.44C260.026 33.7333 260.586 33.88 261.186 33.88C261.826 33.88 262.426 33.72 262.986 33.4C263.559 33.08 263.953 32.66 264.166 32.14L265.686 32.56C265.459 33.0667 265.119 33.52 264.666 33.92C264.226 34.32 263.699 34.6333 263.086 34.86C262.486 35.0867 261.833 35.2 261.126 35.2ZM257.606 29.16H264.726C264.673 28.48 264.479 27.88 264.146 27.36C263.813 26.84 263.386 26.4333 262.866 26.14C262.346 25.8467 261.773 25.7 261.146 25.7C260.533 25.7 259.966 25.8467 259.446 26.14C258.926 26.4333 258.499 26.84 258.166 27.36C257.846 27.88 257.659 28.48 257.606 29.16ZM268.302 35V24.56H270.062V28.88H275.502V24.56H277.262V35H275.502V30.44H270.062V35H268.302ZM280.08 35V24.58H281.84V32.64L287.68 24.56H289.28V35H287.52V27.1L281.76 35H280.08ZM296.712 35.2C295.925 35.2 295.205 35.06 294.552 34.78C293.912 34.4867 293.352 34.0933 292.872 33.6C292.405 33.0933 292.039 32.5133 291.772 31.86C291.519 31.2067 291.392 30.5133 291.392 29.78C291.392 28.7933 291.619 27.8933 292.072 27.08C292.525 26.2667 293.152 25.6133 293.952 25.12C294.765 24.6267 295.692 24.38 296.732 24.38C297.785 24.38 298.699 24.6333 299.472 25.14C300.259 25.6333 300.865 26.2867 301.292 27.1C301.732 27.9 301.952 28.7667 301.952 29.7C301.952 29.8333 301.945 29.9667 301.932 30.1C301.932 30.22 301.925 30.3133 301.912 30.38H293.252C293.305 31.06 293.492 31.6667 293.812 32.2C294.145 32.72 294.572 33.1333 295.092 33.44C295.612 33.7333 296.172 33.88 296.772 33.88C297.412 33.88 298.012 33.72 298.572 33.4C299.145 33.08 299.539 32.66 299.752 32.14L301.272 32.56C301.045 33.0667 300.705 33.52 300.252 33.92C299.812 34.32 299.285 34.6333 298.672 34.86C298.072 35.0867 297.419 35.2 296.712 35.2ZM293.192 29.16H300.312C300.259 28.48 300.065 27.88 299.732 27.36C299.399 26.84 298.972 26.4333 298.452 26.14C297.932 25.8467 297.359 25.7 296.732 25.7C296.119 25.7 295.552 25.8467 295.032 26.14C294.512 26.4333 294.085 26.84 293.752 27.36C293.432 27.88 293.245 28.48 293.192 29.16ZM314.587 35.2C313.734 35.2 312.974 34.9867 312.307 34.56C311.64 34.1333 311.114 33.5933 310.727 32.94V39.26H308.967V24.56H310.527V26.52C310.94 25.88 311.48 25.3667 312.147 24.98C312.814 24.58 313.54 24.38 314.327 24.38C315.047 24.38 315.707 24.5267 316.307 24.82C316.907 25.1133 317.427 25.5133 317.867 26.02C318.307 26.5267 318.647 27.1067 318.887 27.76C319.14 28.4 319.267 29.0733 319.267 29.78C319.267 30.7667 319.067 31.6733 318.667 32.5C318.28 33.3267 317.734 33.9867 317.027 34.48C316.32 34.96 315.507 35.2 314.587 35.2ZM314.047 33.68C314.567 33.68 315.034 33.5733 315.447 33.36C315.874 33.1333 316.234 32.84 316.527 32.48C316.834 32.1067 317.067 31.6867 317.227 31.22C317.387 30.7533 317.467 30.2733 317.467 29.78C317.467 29.26 317.374 28.7667 317.187 28.3C317.014 27.8333 316.76 27.42 316.427 27.06C316.107 26.7 315.727 26.42 315.287 26.22C314.86 26.0067 314.394 25.9 313.887 25.9C313.567 25.9 313.234 25.96 312.887 26.08C312.554 26.2 312.234 26.3733 311.927 26.6C311.62 26.8133 311.36 27.06 311.147 27.34C310.934 27.62 310.794 27.92 310.727 28.24V31.22C310.927 31.6733 311.194 32.0867 311.527 32.46C311.86 32.8333 312.247 33.1333 312.687 33.36C313.127 33.5733 313.58 33.68 314.047 33.68ZM325.988 35.2C325.201 35.2 324.488 35.06 323.848 34.78C323.208 34.4867 322.654 34.0933 322.188 33.6C321.721 33.0933 321.361 32.5133 321.108 31.86C320.854 31.2067 320.728 30.52 320.728 29.8C320.728 29.0667 320.854 28.3733 321.108 27.72C321.361 27.0667 321.721 26.4933 322.188 26C322.654 25.4933 323.208 25.1 323.848 24.82C324.501 24.5267 325.214 24.38 325.988 24.38C326.774 24.38 327.488 24.5267 328.128 24.82C328.768 25.1 329.321 25.4933 329.788 26C330.268 26.4933 330.634 27.0667 330.888 27.72C331.141 28.3733 331.268 29.0667 331.268 29.8C331.268 30.52 331.141 31.2067 330.888 31.86C330.634 32.5133 330.274 33.0933 329.808 33.6C329.341 34.0933 328.781 34.4867 328.128 34.78C327.488 35.06 326.774 35.2 325.988 35.2ZM322.528 29.82C322.528 30.54 322.681 31.1933 322.988 31.78C323.308 32.3667 323.728 32.8333 324.248 33.18C324.768 33.5133 325.348 33.68 325.988 33.68C326.628 33.68 327.208 33.5067 327.728 33.16C328.261 32.8133 328.681 32.3467 328.988 31.76C329.308 31.16 329.468 30.5 329.468 29.78C329.468 29.06 329.308 28.4067 328.988 27.82C328.681 27.2333 328.261 26.7667 327.728 26.42C327.208 26.0733 326.628 25.9 325.988 25.9C325.348 25.9 324.768 26.08 324.248 26.44C323.728 26.7867 323.308 27.2533 322.988 27.84C322.681 28.4267 322.528 29.0867 322.528 29.82ZM338.32 35.2C336.6 35.2 335.3 34.68 334.42 33.64C333.54 32.6 333.1 31.1333 333.1 29.24C333.1 27.9467 333.207 26.86 333.42 25.98C333.634 25.0867 333.954 24.3533 334.38 23.78C334.807 23.1933 335.334 22.72 335.96 22.36C336.587 21.9867 337.307 21.68 338.12 21.44L342.54 20.1L342.64 21.62L338.34 22.92C337.607 23.16 336.994 23.4667 336.5 23.84C336.007 24.2133 335.62 24.6933 335.34 25.28C335.06 25.8667 334.874 26.62 334.78 27.54C335.127 26.8333 335.647 26.2867 336.34 25.9C337.034 25.5 337.84 25.3 338.76 25.3C339.747 25.3 340.594 25.5067 341.3 25.92C342.02 26.32 342.567 26.8867 342.94 27.62C343.327 28.34 343.52 29.1733 343.52 30.12C343.52 31.1333 343.32 32.02 342.92 32.78C342.52 33.54 341.934 34.1333 341.16 34.56C340.387 34.9867 339.44 35.2 338.32 35.2ZM338.32 33.68C339.4 33.68 340.234 33.3667 340.82 32.74C341.42 32.1 341.72 31.2533 341.72 30.2C341.72 29.1733 341.427 28.34 340.84 27.7C340.254 27.06 339.414 26.74 338.32 26.74C337.68 26.74 337.1 26.8733 336.58 27.14C336.074 27.4067 335.667 27.8 335.36 28.32C335.067 28.8267 334.92 29.4533 334.92 30.2C334.92 30.8667 335.047 31.4667 335.3 32C335.567 32.52 335.954 32.9333 336.46 33.24C336.967 33.5333 337.587 33.68 338.32 33.68ZM350.226 35.2C349.439 35.2 348.726 35.06 348.086 34.78C347.446 34.4867 346.893 34.0933 346.426 33.6C345.959 33.0933 345.599 32.5133 345.346 31.86C345.093 31.2067 344.966 30.52 344.966 29.8C344.966 29.0667 345.093 28.3733 345.346 27.72C345.599 27.0667 345.959 26.4933 346.426 26C346.893 25.4933 347.446 25.1 348.086 24.82C348.739 24.5267 349.453 24.38 350.226 24.38C351.013 24.38 351.726 24.5267 352.366 24.82C353.006 25.1 353.559 25.4933 354.026 26C354.506 26.4933 354.873 27.0667 355.126 27.72C355.379 28.3733 355.506 29.0667 355.506 29.8C355.506 30.52 355.379 31.2067 355.126 31.86C354.873 32.5133 354.513 33.0933 354.046 33.6C353.579 34.0933 353.019 34.4867 352.366 34.78C351.726 35.06 351.013 35.2 350.226 35.2ZM346.766 29.82C346.766 30.54 346.919 31.1933 347.226 31.78C347.546 32.3667 347.966 32.8333 348.486 33.18C349.006 33.5133 349.586 33.68 350.226 33.68C350.866 33.68 351.446 33.5067 351.966 33.16C352.499 32.8133 352.919 32.3467 353.226 31.76C353.546 31.16 353.706 30.5 353.706 29.78C353.706 29.06 353.546 28.4067 353.226 27.82C352.919 27.2333 352.499 26.7667 351.966 26.42C351.446 26.0733 350.866 25.9 350.226 25.9C349.586 25.9 349.006 26.08 348.486 26.44C347.966 26.7867 347.546 27.2533 347.226 27.84C346.919 28.4267 346.766 29.0867 346.766 29.82ZM360.179 35V26.12H356.579V24.56H365.539V26.12H361.939V35H360.179ZM371.867 35.2C371.08 35.2 370.367 35.06 369.727 34.78C369.087 34.4867 368.533 34.0933 368.067 33.6C367.6 33.0933 367.24 32.5133 366.987 31.86C366.733 31.2067 366.607 30.52 366.607 29.8C366.607 29.0667 366.733 28.3733 366.987 27.72C367.24 27.0667 367.6 26.4933 368.067 26C368.533 25.4933 369.087 25.1 369.727 24.82C370.38 24.5267 371.093 24.38 371.867 24.38C372.653 24.38 373.367 24.5267 374.007 24.82C374.647 25.1 375.2 25.4933 375.667 26C376.147 26.4933 376.513 27.0667 376.767 27.72C377.02 28.3733 377.147 29.0667 377.147 29.8C377.147 30.52 377.02 31.2067 376.767 31.86C376.513 32.5133 376.153 33.0933 375.687 33.6C375.22 34.0933 374.66 34.4867 374.007 34.78C373.367 35.06 372.653 35.2 371.867 35.2ZM368.407 29.82C368.407 30.54 368.56 31.1933 368.867 31.78C369.187 32.3667 369.607 32.8333 370.127 33.18C370.647 33.5133 371.227 33.68 371.867 33.68C372.507 33.68 373.087 33.5067 373.607 33.16C374.14 32.8133 374.56 32.3467 374.867 31.76C375.187 31.16 375.347 30.5 375.347 29.78C375.347 29.06 375.187 28.4067 374.867 27.82C374.56 27.2333 374.14 26.7667 373.607 26.42C373.087 26.0733 372.507 25.9 371.867 25.9C371.227 25.9 370.647 26.08 370.127 26.44C369.607 26.7867 369.187 27.2533 368.867 27.84C368.56 28.4267 368.407 29.0867 368.407 29.82ZM379.259 35V24.56H384.659C385.286 24.56 385.806 24.6867 386.219 24.94C386.633 25.18 386.939 25.4933 387.139 25.88C387.353 26.2667 387.459 26.68 387.459 27.12C387.459 27.68 387.326 28.1867 387.059 28.64C386.793 29.08 386.406 29.4133 385.899 29.64C386.499 29.8133 386.986 30.1267 387.359 30.58C387.733 31.02 387.919 31.5667 387.919 32.22C387.919 32.8067 387.779 33.3067 387.499 33.72C387.219 34.1333 386.826 34.4533 386.319 34.68C385.813 34.8933 385.226 35 384.559 35H379.259ZM380.939 33.76H384.519C384.839 33.76 385.126 33.68 385.379 33.52C385.646 33.36 385.853 33.1467 385.999 32.88C386.146 32.6133 386.219 32.3333 386.219 32.04C386.219 31.72 386.146 31.4333 385.999 31.18C385.866 30.9133 385.673 30.7067 385.419 30.56C385.179 30.4 384.899 30.32 384.579 30.32H380.939V33.76ZM380.939 29.16H384.199C384.519 29.16 384.799 29.08 385.039 28.92C385.279 28.7467 385.466 28.5267 385.599 28.26C385.733 27.9933 385.799 27.7133 385.799 27.42C385.799 26.98 385.653 26.6 385.359 26.28C385.079 25.96 384.713 25.8 384.259 25.8H380.939V29.16Z" fill="black"/>
<defs>
<filter id="filter0_d_309_132" x="0" y="0" width="429" height="65" filterUnits="userSpaceOnUse" color-interpolation-filters="sRGB">
<feFlood flood-opacity="0" result="BackgroundImageFix"/>
<feColorMatrix in="SourceAlpha" type="matrix" values="0 0 0 0 0 0 0 0 0 0 0 0 0 0 0 0 0 0 127 0" result="hardAlpha"/>
<feOffset dy="5"/>
<feGaussianBlur stdDeviation="2.5"/>
<feComposite in2="hardAlpha" operator="out"/>
<feColorMatrix type="matrix" values="0 0 0 0 1 0 0 0 0 1 0 0 0 0 1 0 0 0 0.25 0"/>
<feBlend mode="normal" in2="BackgroundImageFix" result="effect1_dropShadow_309_132"/>
<feBlend mode="normal" in="SourceGraphic" in2="effect1_dropShadow_309_132" result="shape"/>
</filter>
</defs>
</svg>
