<svg xmlns="http://www.w3.org/2000/svg" width="270" height="84" fill="none"><g filter="url(#a)"><rect width="259" height="72.933" x="5.5" y=".346" fill="#fff" rx="36.466"/></g><path fill="#000" d="M124.904 45.144c-1.36 0-2.528-.224-3.504-.672-.976-.448-1.776-1.064-2.4-1.848a7.862 7.862 0 0 1-1.344-2.688 11.823 11.823 0 0 1-.432-3.216v-8.76h4.68v8.76c0 .56.056 1.096.168 1.608.112.512.288.968.528 1.368.24.4.544.72.912.96.384.224.848.336 1.392.336.56 0 1.032-.112 1.416-.336.384-.24.688-.56.912-.96.24-.416.416-.88.528-1.392.112-.512.168-1.04.168-1.584v-8.76h4.68v8.76c0 1.184-.16 2.288-.48 3.312-.304 1.024-.768 1.92-1.392 2.688-.624.768-1.424 1.368-2.4 1.8-.96.416-2.104.624-3.432.624Zm15.076-8.52V45h-4.68V27.96h3.648l6.84 8.664V27.96h4.68V45h-3.72l-6.768-8.376ZM153.394 45V27.96h4.68V45h-4.68Zm20.889-12.96h-4.896V45h-4.68V32.04h-4.92v-4.08h14.496v4.08Zm5.16-4.08 3.048 6.96 3.12-6.96h5.088l-5.88 11.4V45h-4.656v-5.688l-5.784-11.352h5.064Z"/><path fill="#222C37" d="m68.6 36.626 8.969-15.487 4.333 15.487-4.334 15.484L68.6 36.626Zm-4.372 2.515 8.97 15.485-15.621-4.002L46.29 39.14h17.937Zm8.969-20.518-8.969 15.486H46.291l11.286-11.483 15.62-4.004ZM86 31.355 80.528 11l-20.422 5.455-3.023 5.316-6.135-.044L36 36.627l14.948 14.899 6.133-.046 3.027 5.315 20.42 5.455L86 41.898l-3.108-5.271L86 31.357v-.001Z"/><defs><filter id="a" width="269" height="82.933" x=".5" y=".346" color-interpolation-filters="sRGB" filterUnits="userSpaceOnUse"><feFlood flood-opacity="0" result="BackgroundImageFix"/><feColorMatrix in="SourceAlpha" result="hardAlpha" values="0 0 0 0 0 0 0 0 0 0 0 0 0 0 0 0 0 0 127 0"/><feOffset dy="5"/><feGaussianBlur stdDeviation="2.5"/><feComposite in2="hardAlpha" operator="out"/><feColorMatrix values="0 0 0 0 0 0 0 0 0 0 0 0 0 0 0 0 0 0 0.25 0"/><feBlend in2="BackgroundImageFix" result="effect1_dropShadow_330_331"/><feBlend in="SourceGraphic" in2="effect1_dropShadow_330_331" result="shape"/></filter></defs></svg>