<svg width="299" height="65" viewBox="0 0 299 65" fill="none" xmlns="http://www.w3.org/2000/svg">
<g filter="url(#filter0_d_153_97)">
<rect x="5" width="289" height="55" rx="20" fill="white"/>
</g>
<ellipse cx="37.5" cy="27.647" rx="14.5" ry="14.4866" fill="#36D8FF"/>
<path d="M78.7 35.1576V20.9576H84.62C85.2467 20.9576 85.82 21.0909 86.34 21.3576C86.86 21.6109 87.3133 21.9576 87.7 22.3976C88.0867 22.8243 88.3867 23.3109 88.6 23.8576C88.8133 24.3909 88.92 24.9376 88.92 25.4976C88.92 26.2709 88.7467 27.0109 88.4 27.7176C88.0533 28.4109 87.5667 28.9776 86.94 29.4176C86.3133 29.8443 85.58 30.0576 84.74 30.0576H80.5V35.1576H78.7ZM80.5 28.4576H84.64C85.1333 28.4576 85.56 28.3243 85.92 28.0576C86.2933 27.7909 86.58 27.4309 86.78 26.9776C86.9933 26.5243 87.1 26.0309 87.1 25.4976C87.1 24.9376 86.98 24.4376 86.74 23.9976C86.5 23.5443 86.1867 23.1909 85.8 22.9376C85.4133 22.6843 84.9867 22.5576 84.52 22.5576H80.5V28.4576ZM89.9438 32.1376C89.9438 31.4709 90.1304 30.8976 90.5038 30.4176C90.8904 29.9243 91.4171 29.5443 92.0838 29.2776C92.7504 29.0109 93.5238 28.8776 94.4038 28.8776C94.8704 28.8776 95.3638 28.9176 95.8838 28.9976C96.4038 29.0643 96.8638 29.1709 97.2638 29.3176V28.5576C97.2638 27.7576 97.0238 27.1309 96.5438 26.6776C96.0638 26.2109 95.3838 25.9776 94.5038 25.9776C93.9304 25.9776 93.3771 26.0843 92.8438 26.2976C92.3238 26.4976 91.7704 26.7909 91.1838 27.1776L90.5438 25.9376C91.2238 25.4709 91.9038 25.1243 92.5838 24.8976C93.2638 24.6576 93.9704 24.5376 94.7038 24.5376C96.0371 24.5376 97.0904 24.9109 97.8638 25.6576C98.6371 26.3909 99.0238 27.4176 99.0238 28.7376V33.1576C99.0238 33.3709 99.0638 33.5309 99.1438 33.6376C99.2371 33.7309 99.3838 33.7843 99.5838 33.7976V35.1576C99.4104 35.1843 99.2571 35.2043 99.1238 35.2176C99.0038 35.2309 98.9038 35.2376 98.8238 35.2376C98.4104 35.2376 98.0971 35.1243 97.8838 34.8976C97.6838 34.6709 97.5704 34.4309 97.5438 34.1776L97.5038 33.5176C97.0504 34.1043 96.4571 34.5576 95.7238 34.8776C94.9904 35.1976 94.2638 35.3576 93.5438 35.3576C92.8504 35.3576 92.2304 35.2176 91.6838 34.9376C91.1371 34.6443 90.7104 34.2576 90.4038 33.7776C90.0971 33.2843 89.9438 32.7376 89.9438 32.1376ZM96.7438 32.8776C96.9038 32.6909 97.0304 32.5043 97.1238 32.3176C97.2171 32.1176 97.2638 31.9509 97.2638 31.8176V30.5176C96.8504 30.3576 96.4171 30.2376 95.9638 30.1576C95.5104 30.0643 95.0638 30.0176 94.6237 30.0176C93.7304 30.0176 93.0038 30.1976 92.4438 30.5576C91.8971 30.9043 91.6238 31.3843 91.6238 31.9976C91.6238 32.3309 91.7104 32.6576 91.8838 32.9776C92.0704 33.2843 92.3371 33.5376 92.6838 33.7376C93.0438 33.9376 93.4838 34.0376 94.0038 34.0376C94.5504 34.0376 95.0704 33.9309 95.5638 33.7176C96.0571 33.4909 96.4504 33.2109 96.7438 32.8776ZM105.098 35.2976C104.085 35.2976 103.225 35.1109 102.518 34.7376C101.825 34.3509 101.291 33.8176 100.918 33.1376L102.358 32.4976C102.598 32.9243 102.938 33.2576 103.378 33.4976C103.831 33.7376 104.378 33.8576 105.018 33.8576C105.778 33.8576 106.378 33.6909 106.818 33.3576C107.258 33.0243 107.478 32.5776 107.478 32.0176C107.478 31.5109 107.298 31.1043 106.938 30.7976C106.591 30.4776 106.098 30.3109 105.458 30.2976H104.398V29.1376H105.518C105.798 29.1376 106.045 29.0709 106.258 28.9376C106.485 28.7909 106.658 28.5976 106.778 28.3576C106.911 28.1176 106.978 27.8509 106.978 27.5576C106.978 27.0909 106.811 26.7176 106.478 26.4376C106.145 26.1443 105.645 25.9976 104.978 25.9976C104.431 25.9976 103.971 26.1043 103.598 26.3176C103.238 26.5309 102.945 26.8509 102.718 27.2776L101.378 26.5576C101.711 25.9309 102.191 25.4443 102.818 25.0976C103.458 24.7376 104.205 24.5576 105.058 24.5576C105.738 24.5576 106.338 24.6709 106.858 24.8976C107.391 25.1109 107.805 25.4243 108.098 25.8376C108.405 26.2509 108.558 26.7509 108.558 27.3376C108.558 27.8309 108.438 28.2909 108.198 28.7176C107.971 29.1309 107.631 29.4443 107.178 29.6576C107.805 29.8443 108.285 30.1709 108.618 30.6376C108.951 31.0909 109.118 31.6309 109.118 32.2576C109.118 32.8976 108.945 33.4443 108.598 33.8976C108.251 34.3509 107.778 34.6976 107.178 34.9376C106.578 35.1776 105.885 35.2976 105.098 35.2976ZM116.853 35.3576C115.999 35.3576 115.239 35.1443 114.573 34.7176C113.906 34.2909 113.379 33.7509 112.993 33.0976V39.4176H111.233V24.7176H112.793V26.6776C113.206 26.0376 113.746 25.5243 114.413 25.1376C115.079 24.7376 115.806 24.5376 116.593 24.5376C117.313 24.5376 117.973 24.6843 118.573 24.9776C119.173 25.2709 119.693 25.6709 120.133 26.1776C120.573 26.6843 120.913 27.2643 121.153 27.9176C121.406 28.5576 121.533 29.2309 121.533 29.9376C121.533 30.9243 121.333 31.8309 120.933 32.6576C120.546 33.4843 119.999 34.1443 119.293 34.6376C118.586 35.1176 117.773 35.3576 116.853 35.3576ZM116.313 33.8376C116.833 33.8376 117.299 33.7309 117.713 33.5176C118.139 33.2909 118.499 32.9976 118.793 32.6376C119.099 32.2643 119.333 31.8443 119.493 31.3776C119.653 30.9109 119.733 30.4309 119.733 29.9376C119.733 29.4176 119.639 28.9243 119.453 28.4576C119.279 27.9909 119.026 27.5776 118.693 27.2176C118.373 26.8576 117.993 26.5776 117.553 26.3776C117.126 26.1643 116.659 26.0576 116.153 26.0576C115.833 26.0576 115.499 26.1176 115.153 26.2376C114.819 26.3576 114.499 26.5309 114.193 26.7576C113.886 26.9709 113.626 27.2176 113.413 27.4976C113.199 27.7776 113.059 28.0776 112.993 28.3976V31.3776C113.193 31.8309 113.459 32.2443 113.793 32.6176C114.126 32.9909 114.513 33.2909 114.952 33.5176C115.393 33.7309 115.846 33.8376 116.313 33.8376ZM122.873 32.1376C122.873 31.4709 123.06 30.8976 123.433 30.4176C123.82 29.9243 124.347 29.5443 125.013 29.2776C125.68 29.0109 126.453 28.8776 127.333 28.8776C127.8 28.8776 128.293 28.9176 128.813 28.9976C129.333 29.0643 129.793 29.1709 130.193 29.3176V28.5576C130.193 27.7576 129.953 27.1309 129.473 26.6776C128.993 26.2109 128.313 25.9776 127.433 25.9776C126.86 25.9776 126.307 26.0843 125.773 26.2976C125.253 26.4976 124.7 26.7909 124.113 27.1776L123.473 25.9376C124.153 25.4709 124.833 25.1243 125.513 24.8976C126.193 24.6576 126.9 24.5376 127.633 24.5376C128.967 24.5376 130.02 24.9109 130.793 25.6576C131.567 26.3909 131.953 27.4176 131.953 28.7376V33.1576C131.953 33.3709 131.993 33.5309 132.073 33.6376C132.167 33.7309 132.313 33.7843 132.513 33.7976V35.1576C132.34 35.1843 132.187 35.2043 132.053 35.2176C131.933 35.2309 131.833 35.2376 131.753 35.2376C131.34 35.2376 131.027 35.1243 130.813 34.8976C130.613 34.6709 130.5 34.4309 130.473 34.1776L130.433 33.5176C129.98 34.1043 129.387 34.5576 128.653 34.8776C127.92 35.1976 127.193 35.3576 126.473 35.3576C125.78 35.3576 125.16 35.2176 124.613 34.9376C124.067 34.6443 123.64 34.2576 123.333 33.7776C123.027 33.2843 122.873 32.7376 122.873 32.1376ZM129.673 32.8776C129.833 32.6909 129.96 32.5043 130.053 32.3176C130.147 32.1176 130.193 31.9509 130.193 31.8176V30.5176C129.78 30.3576 129.347 30.2376 128.893 30.1576C128.44 30.0643 127.993 30.0176 127.553 30.0176C126.66 30.0176 125.933 30.1976 125.373 30.5576C124.827 30.9043 124.553 31.3843 124.553 31.9976C124.553 32.3309 124.64 32.6576 124.813 32.9776C125 33.2843 125.267 33.5376 125.613 33.7376C125.973 33.9376 126.413 34.0376 126.933 34.0376C127.48 34.0376 128 33.9309 128.493 33.7176C128.987 33.4909 129.38 33.2109 129.673 32.8776ZM139.688 35.3576C137.968 35.3576 136.668 34.8376 135.788 33.7976C134.908 32.7576 134.468 31.2909 134.468 29.3976C134.468 28.1043 134.574 27.0176 134.788 26.1376C135.001 25.2443 135.321 24.5109 135.748 23.9376C136.174 23.3509 136.701 22.8776 137.328 22.5176C137.954 22.1443 138.674 21.8376 139.488 21.5976L143.908 20.2576L144.008 21.7776L139.708 23.0776C138.974 23.3176 138.361 23.6243 137.868 23.9976C137.374 24.3709 136.988 24.8509 136.708 25.4376C136.428 26.0243 136.241 26.7776 136.148 27.6976C136.494 26.9909 137.014 26.4443 137.708 26.0576C138.401 25.6576 139.208 25.4576 140.128 25.4576C141.114 25.4576 141.961 25.6643 142.668 26.0776C143.388 26.4776 143.934 27.0443 144.308 27.7776C144.694 28.4976 144.888 29.3309 144.888 30.2776C144.888 31.2909 144.688 32.1776 144.288 32.9376C143.888 33.6976 143.301 34.2909 142.528 34.7176C141.754 35.1443 140.808 35.3576 139.688 35.3576ZM139.688 33.8376C140.768 33.8376 141.601 33.5243 142.188 32.8976C142.788 32.2576 143.088 31.4109 143.088 30.3576C143.088 29.3309 142.794 28.4976 142.208 27.8576C141.621 27.2176 140.781 26.8976 139.688 26.8976C139.048 26.8976 138.468 27.0309 137.948 27.2976C137.441 27.5643 137.034 27.9576 136.728 28.4776C136.434 28.9843 136.288 29.6109 136.288 30.3576C136.288 31.0243 136.414 31.6243 136.668 32.1576C136.934 32.6776 137.321 33.0909 137.828 33.3976C138.334 33.6909 138.954 33.8376 139.688 33.8376ZM151.593 35.3576C150.807 35.3576 150.093 35.2176 149.453 34.9376C148.813 34.6443 148.26 34.2509 147.793 33.7576C147.327 33.2509 146.967 32.6709 146.713 32.0176C146.46 31.3643 146.333 30.6776 146.333 29.9576C146.333 29.2243 146.46 28.5309 146.713 27.8776C146.967 27.2243 147.327 26.6509 147.793 26.1576C148.26 25.6509 148.813 25.2576 149.453 24.9776C150.107 24.6843 150.82 24.5376 151.593 24.5376C152.38 24.5376 153.093 24.6843 153.733 24.9776C154.373 25.2576 154.927 25.6509 155.393 26.1576C155.873 26.6509 156.24 27.2243 156.493 27.8776C156.747 28.5309 156.873 29.2243 156.873 29.9576C156.873 30.6776 156.747 31.3643 156.493 32.0176C156.24 32.6709 155.88 33.2509 155.413 33.7576C154.947 34.2509 154.387 34.6443 153.733 34.9376C153.093 35.2176 152.38 35.3576 151.593 35.3576ZM148.133 29.9776C148.133 30.6976 148.287 31.3509 148.593 31.9376C148.913 32.5243 149.333 32.9909 149.853 33.3376C150.373 33.6709 150.953 33.8376 151.593 33.8376C152.233 33.8376 152.813 33.6643 153.333 33.3176C153.867 32.9709 154.287 32.5043 154.593 31.9176C154.913 31.3176 155.073 30.6576 155.073 29.9376C155.073 29.2176 154.913 28.5643 154.593 27.9776C154.287 27.3909 153.867 26.9243 153.333 26.5776C152.813 26.2309 152.233 26.0576 151.593 26.0576C150.953 26.0576 150.373 26.2376 149.853 26.5976C149.333 26.9443 148.913 27.4109 148.593 27.9976C148.287 28.5843 148.133 29.2443 148.133 29.9776ZM161.546 35.1576V26.2776H157.946V24.7176H166.906V26.2776H163.306V35.1576H161.546ZM168.654 35.1576V24.7176H170.414V29.0176H171.574L174.854 24.7176H176.854L172.954 29.7776L177.314 35.1576H175.274L171.574 30.6376H170.414V35.1576H168.654ZM178.225 32.1376C178.225 31.4709 178.412 30.8976 178.785 30.4176C179.172 29.9243 179.698 29.5443 180.365 29.2776C181.032 29.0109 181.805 28.8776 182.685 28.8776C183.152 28.8776 183.645 28.9176 184.165 28.9976C184.685 29.0643 185.145 29.1709 185.545 29.3176V28.5576C185.545 27.7576 185.305 27.1309 184.825 26.6776C184.345 26.2109 183.665 25.9776 182.785 25.9776C182.212 25.9776 181.658 26.0843 181.125 26.2976C180.605 26.4976 180.052 26.7909 179.465 27.1776L178.825 25.9376C179.505 25.4709 180.185 25.1243 180.865 24.8976C181.545 24.6576 182.252 24.5376 182.985 24.5376C184.318 24.5376 185.372 24.9109 186.145 25.6576C186.918 26.3909 187.305 27.4176 187.305 28.7376V33.1576C187.305 33.3709 187.345 33.5309 187.425 33.6376C187.518 33.7309 187.665 33.7843 187.865 33.7976V35.1576C187.692 35.1843 187.538 35.2043 187.405 35.2176C187.285 35.2309 187.185 35.2376 187.105 35.2376C186.692 35.2376 186.378 35.1243 186.165 34.8976C185.965 34.6709 185.852 34.4309 185.825 34.1776L185.785 33.5176C185.332 34.1043 184.738 34.5576 184.005 34.8776C183.272 35.1976 182.545 35.3576 181.825 35.3576C181.132 35.3576 180.512 35.2176 179.965 34.9376C179.418 34.6443 178.992 34.2576 178.685 33.7776C178.378 33.2843 178.225 32.7376 178.225 32.1376ZM185.025 32.8776C185.185 32.6909 185.312 32.5043 185.405 32.3176C185.498 32.1176 185.545 31.9509 185.545 31.8176V30.5176C185.132 30.3576 184.698 30.2376 184.245 30.1576C183.792 30.0643 183.345 30.0176 182.905 30.0176C182.012 30.0176 181.285 30.1976 180.725 30.5576C180.178 30.9043 179.905 31.3843 179.905 31.9976C179.905 32.3309 179.992 32.6576 180.165 32.9776C180.352 33.2843 180.618 33.5376 180.965 33.7376C181.325 33.9376 181.765 34.0376 182.285 34.0376C182.832 34.0376 183.352 33.9309 183.845 33.7176C184.338 33.4909 184.732 33.2109 185.025 32.8776ZM199.798 35.3576C199.011 35.3576 198.291 35.2176 197.638 34.9376C196.998 34.6443 196.438 34.2443 195.958 33.7376C195.491 33.2309 195.124 32.6509 194.858 31.9976C194.604 31.3443 194.478 30.6509 194.478 29.9176C194.478 28.9309 194.698 28.0309 195.138 27.2176C195.578 26.4043 196.198 25.7576 196.998 25.2776C197.798 24.7843 198.724 24.5376 199.778 24.5376C200.804 24.5376 201.698 24.7709 202.458 25.2376C203.231 25.6909 203.804 26.3043 204.178 27.0776L202.458 27.6176C202.191 27.1243 201.818 26.7443 201.338 26.4776C200.858 26.1976 200.324 26.0576 199.738 26.0576C199.098 26.0576 198.511 26.2243 197.978 26.5576C197.458 26.8909 197.044 27.3509 196.738 27.9376C196.431 28.5109 196.278 29.1709 196.278 29.9176C196.278 30.6509 196.431 31.3176 196.738 31.9176C197.058 32.5043 197.478 32.9709 197.998 33.3176C198.531 33.6643 199.118 33.8376 199.758 33.8376C200.171 33.8376 200.564 33.7643 200.938 33.6176C201.324 33.4709 201.658 33.2776 201.938 33.0376C202.231 32.7843 202.431 32.5109 202.538 32.2176L204.258 32.7376C204.044 33.2443 203.718 33.6976 203.278 34.0976C202.851 34.4843 202.338 34.7909 201.738 35.0176C201.151 35.2443 200.504 35.3576 199.798 35.3576ZM205.432 32.1376C205.432 31.4709 205.619 30.8976 205.992 30.4176C206.379 29.9243 206.905 29.5443 207.572 29.2776C208.239 29.0109 209.012 28.8776 209.892 28.8776C210.359 28.8776 210.852 28.9176 211.372 28.9976C211.892 29.0643 212.352 29.1709 212.752 29.3176V28.5576C212.752 27.7576 212.512 27.1309 212.032 26.6776C211.552 26.2109 210.872 25.9776 209.992 25.9776C209.419 25.9776 208.865 26.0843 208.332 26.2976C207.812 26.4976 207.259 26.7909 206.672 27.1776L206.032 25.9376C206.712 25.4709 207.392 25.1243 208.072 24.8976C208.752 24.6576 209.459 24.5376 210.192 24.5376C211.525 24.5376 212.579 24.9109 213.352 25.6576C214.125 26.3909 214.512 27.4176 214.512 28.7376V33.1576C214.512 33.3709 214.552 33.5309 214.632 33.6376C214.725 33.7309 214.872 33.7843 215.072 33.7976V35.1576C214.899 35.1843 214.745 35.2043 214.612 35.2176C214.492 35.2309 214.392 35.2376 214.312 35.2376C213.899 35.2376 213.585 35.1243 213.372 34.8976C213.172 34.6709 213.059 34.4309 213.032 34.1776L212.992 33.5176C212.539 34.1043 211.945 34.5576 211.212 34.8776C210.479 35.1976 209.752 35.3576 209.032 35.3576C208.339 35.3576 207.719 35.2176 207.172 34.9376C206.625 34.6443 206.199 34.2576 205.892 33.7776C205.585 33.2843 205.432 32.7376 205.432 32.1376ZM212.232 32.8776C212.392 32.6909 212.519 32.5043 212.612 32.3176C212.705 32.1176 212.752 31.9509 212.752 31.8176V30.5176C212.339 30.3576 211.905 30.2376 211.452 30.1576C210.999 30.0643 210.552 30.0176 210.112 30.0176C209.219 30.0176 208.492 30.1976 207.932 30.5576C207.385 30.9043 207.112 31.3843 207.112 31.9976C207.112 32.3309 207.199 32.6576 207.372 32.9776C207.559 33.2843 207.825 33.5376 208.172 33.7376C208.532 33.9376 208.972 34.0376 209.492 34.0376C210.039 34.0376 210.559 33.9309 211.052 33.7176C211.545 33.4909 211.939 33.2109 212.232 32.8776ZM217.306 35.1576V24.7376H219.066V32.7976L224.906 24.7176H226.506V35.1576H224.746V27.2576L218.986 35.1576H217.306ZM221.926 23.5376C220.966 23.5376 220.24 23.3109 219.746 22.8576C219.253 22.3909 219.006 21.8176 219.006 21.1376H220.246C220.246 21.5109 220.373 21.8243 220.626 22.0776C220.893 22.3176 221.326 22.4376 221.926 22.4376C222.513 22.4376 222.926 22.3243 223.166 22.0976C223.406 21.8576 223.553 21.5376 223.606 21.1376H224.846C224.846 21.8176 224.6 22.3909 224.106 22.8576C223.613 23.3109 222.886 23.5376 221.926 23.5376ZM231.858 35.1576V26.2776H228.258V24.7176H237.218V26.2776H233.618V35.1576H231.858ZM243.546 35.3576C242.76 35.3576 242.046 35.2176 241.406 34.9376C240.766 34.6443 240.213 34.2509 239.746 33.7576C239.28 33.2509 238.92 32.6709 238.666 32.0176C238.413 31.3643 238.286 30.6776 238.286 29.9576C238.286 29.2243 238.413 28.5309 238.666 27.8776C238.92 27.2243 239.28 26.6509 239.746 26.1576C240.213 25.6509 240.766 25.2576 241.406 24.9776C242.06 24.6843 242.773 24.5376 243.546 24.5376C244.333 24.5376 245.046 24.6843 245.686 24.9776C246.326 25.2576 246.88 25.6509 247.346 26.1576C247.826 26.6509 248.193 27.2243 248.446 27.8776C248.7 28.5309 248.826 29.2243 248.826 29.9576C248.826 30.6776 248.7 31.3643 248.446 32.0176C248.193 32.6709 247.833 33.2509 247.366 33.7576C246.9 34.2509 246.34 34.6443 245.686 34.9376C245.046 35.2176 244.333 35.3576 243.546 35.3576ZM240.086 29.9776C240.086 30.6976 240.24 31.3509 240.546 31.9376C240.866 32.5243 241.286 32.9909 241.806 33.3376C242.326 33.6709 242.906 33.8376 243.546 33.8376C244.186 33.8376 244.766 33.6643 245.286 33.3176C245.82 32.9709 246.24 32.5043 246.546 31.9176C246.866 31.3176 247.026 30.6576 247.026 29.9376C247.026 29.2176 246.866 28.5643 246.546 27.9776C246.24 27.3909 245.82 26.9243 245.286 26.5776C244.766 26.2309 244.186 26.0576 243.546 26.0576C242.906 26.0576 242.326 26.2376 241.806 26.5976C241.286 26.9443 240.866 27.4109 240.546 27.9976C240.24 28.5843 240.086 29.2443 240.086 29.9776ZM250.939 35.1576V24.7176H256.339C256.966 24.7176 257.486 24.8443 257.899 25.0976C258.312 25.3376 258.619 25.6509 258.819 26.0376C259.032 26.4243 259.139 26.8376 259.139 27.2776C259.139 27.8376 259.006 28.3443 258.739 28.7976C258.472 29.2376 258.086 29.5709 257.579 29.7976C258.179 29.9709 258.666 30.2843 259.039 30.7376C259.412 31.1776 259.599 31.7243 259.599 32.3776C259.599 32.9643 259.459 33.4643 259.179 33.8776C258.899 34.2909 258.506 34.6109 257.999 34.8376C257.492 35.0509 256.906 35.1576 256.239 35.1576H250.939ZM252.619 33.9176H256.199C256.519 33.9176 256.806 33.8376 257.059 33.6776C257.326 33.5176 257.532 33.3043 257.679 33.0376C257.826 32.7709 257.899 32.4909 257.899 32.1976C257.899 31.8776 257.826 31.5909 257.679 31.3376C257.546 31.0709 257.352 30.8643 257.099 30.7176C256.859 30.5576 256.579 30.4776 256.259 30.4776H252.619V33.9176ZM252.619 29.3176H255.879C256.199 29.3176 256.479 29.2376 256.719 29.0776C256.959 28.9043 257.146 28.6843 257.279 28.4176C257.412 28.1509 257.479 27.8709 257.479 27.5776C257.479 27.1376 257.332 26.7576 257.039 26.4376C256.759 26.1176 256.392 25.9576 255.939 25.9576H252.619V29.3176Z" fill="black"/>
<defs>
<filter id="filter0_d_153_97" x="0" y="0" width="299" height="65" filterUnits="userSpaceOnUse" color-interpolation-filters="sRGB">
<feFlood flood-opacity="0" result="BackgroundImageFix"/>
<feColorMatrix in="SourceAlpha" type="matrix" values="0 0 0 0 0 0 0 0 0 0 0 0 0 0 0 0 0 0 127 0" result="hardAlpha"/>
<feOffset dy="5"/>
<feGaussianBlur stdDeviation="2.5"/>
<feComposite in2="hardAlpha" operator="out"/>
<feColorMatrix type="matrix" values="0 0 0 0 1 0 0 0 0 1 0 0 0 0 1 0 0 0 0.25 0"/>
<feBlend mode="normal" in2="BackgroundImageFix" result="effect1_dropShadow_153_97"/>
<feBlend mode="normal" in="SourceGraphic" in2="effect1_dropShadow_153_97" result="shape"/>
</filter>
</defs>
</svg>
