<?xml version="1.0" encoding="UTF-8"?>
<svg id="_Слой_2" data-name="Слой 2" xmlns="http://www.w3.org/2000/svg" viewBox="0 0 977.68 843.83">
  <g id="_Слой_1-2" data-name="Слой 1">
    <g>
      <path d="M624.17,.85c-6.5,1.9-12.3,10.2-12.3,17.7,0,3.8,2.5,8.5,6.4,11.9l3.6,3.1V105.15l-5.1-8.9c-7.5-13.1-13.8-21.2-24.3-31.3-20.1-19.2-42.3-30.5-73.8-37.4-9.3-2.1-12.9-2.3-37.8-2.3h-27.5l-12.8,3.3c-23.5,5.9-38.2,12.1-53.1,22.2-18.4,12.4-30.9,26.3-42.9,47.3l-4.4,7.9-.6-3.4c-.3-1.8-.7-17.6-.9-35.2l-.2-31.9,2.5-2.1c4.5-3.9,5.9-6.8,5.9-12.4,0-6.2-1.6-9.8-6.4-14-10.7-9.4-29.6-1-29.6,13.3,0,3.6,2,8.6,4.7,11.7,1.2,1.3,1.5,8.3,1.9,39.5,.5,47.5,.6,48.6,4.3,57.5,1.7,3.9,3,7.2,2.8,7.3-.1,.1-3.3,1.6-7,3.4-13.7,6.6-25.9,22.6-30.2,39.6-2.2,8.7-2,26.3,.5,36.1,6.1,24.1,22.5,40.7,44.4,44.7l6.7,1.2,3.6,6.5c11.1,20.1,30.2,38.3,53,50.7l7.3,4-5.2,1.2c-11.9,2.7-26.2,12.4-35.2,23.9l-4.7,5.9-7.7,.5c-10.2,.6-15.1,2.9-25.2,11.9-4.6,4.1-11.7,10.1-15.9,13.5-9.2,7.3-14.9,13.6-24.6,26.8-13.2,18.2-18.5,30.3-18.5,42.3,0,4.6-.7,8.6-2.1,12.3-4,10-2.4,27.2,3.6,39,2.8,5.5,9.9,12.3,15.7,15,6.3,2.9,42.7,16.6,47.8,18,2.4,.7,7.6,1.3,11.5,1.4,6.4,.2,7.5,.5,13,4.2,3.3,2.3,7.8,4.8,10.1,5.7,4.2,1.6,18.3,3.8,21.8,3.4,1.9-.2,2,.6,2.2,11.7,.3,10.8,.5,12.1,2.6,14.3,3.4,3.7,14.2,10.7,33.3,21.8,9.4,5.4,22.4,13,29,17s16.1,9.4,21.1,12c11.2,5.8,10.2,6,31.5-6.9,56.5-34.1,69.8-42.8,72.2-46.9,.7-1.4,1.2-6.5,1.2-13.5l.1-11.3,7.1-.5c10.2-.6,19.1-3.6,26.2-8.9,5.8-4.3,6.5-4.5,13.9-4.9,8.4-.4,14.5-2.4,41.7-13.6,18.4-7.5,22.2-9.7,27.4-15.6,9.3-10.6,13-34,7.2-46.4-1.4-3.1-2.1-6.5-2.1-11.1,0-13.1-7.5-28.2-24.4-48.9-8.2-10.1-11.3-13.1-23.6-22.8-5.8-4.5-13.2-10.5-16.4-13.2-6.9-5.7-12.3-7.8-22.6-8.7-6-.5-7.8-1-9-2.7-8.4-12.1-24.2-22.9-38.9-26.6l-4.4-1.2,7.4-4c10.4-5.6,24.5-16.6,32.9-25.5,7.4-7.9,17.2-21.9,20.4-28.9,1.6-3.8,2.1-4.2,6.5-4.7,11.4-1.3,25.4-9.3,32.6-18.5,6.1-7.8,9-13.4,12.1-23.7,2.2-7.4,2.7-11,2.7-20.5,0-13.4-1.6-20.9-7-32-5-10.4-17-22.4-26.6-26.5-4.9-2.1-6.7-3.4-6.3-4.5,.2-.8,1.6-4.2,3-7.5l2.6-6-.1-43.7V30.85l2.4-3.8c5.2-7.9,4.3-15.7-2.2-21.6-5.7-5.1-11.8-6.6-18.8-4.6ZM330.27,7.45c.9,2.3-1.4,4.4-4.3,4.1-3.1-.4-4.1-3.6-1.7-5.4,2.1-1.5,5.2-.8,6,1.3Zm295.6-.8c0,2.4-2.5,4.5-4.5,3.7-1.5-.5-2.1-3.7-.8-4.9,.3-.4,1.7-.7,3-.7,1.6,0,2.3,.6,2.3,1.9Zm7,.2c0,.5-.7,.9-1.5,.9-1.5,0-2-1.2-.9-2.3,.8-.8,2.4,.1,2.4,1.4Zm-293.6,5c-.8,1.4-3.4,1.1-3.4-.4,0-.8,.3-1.7,.7-2,.9-.9,3.4,1.3,2.7,2.4Zm298.5,62.4c1.1,30.5,.7,41.3-1.9,43.9-1.7,1.7-2.1,0-1-4.9,.7-3.1,.9-17.8,.6-42.9-.6-44.3,.6-42.3,2.3,3.9Zm-313.7,23c-.2,12-.7,18.4-1.2,17.5-1.1-1.8-1.3-64.3-.2-68,.9-3.3,1.8,26.5,1.4,50.5Zm179.2-48c4.5,.9,10.8,2.4,14.1,3.4,3.3,1.1,8.2,2.2,10.9,2.5,6.1,.7,13.3,5.2,18.4,11.4,2,2.5,6.1,6.1,9,8,5.1,3.2,9.1,9,9.2,13,0,.8,1.4,4.4,3,8.2,1.7,3.8,3,7.3,3,8,0,.6-1.7,1.8-3.7,2.8-3.3,1.4-11.2,1.7-60.8,2.4-31.3,.5-72.3,1-91,1.2-31.8,.2-34.3,.4-39.2,2.3-8.3,3.3-13.5,6.7-18.7,12.3-3.4,3.6-4.6,4.4-4.1,2.8,5.7-18.3,27.6-46.9,45-58.5,16.1-10.8,38-17.8,64.5-20.6,9.9-1.1,32.9-.6,40.4,.8Zm71.6,81.4c4.1,1.2,10.1,3.6,13.3,5.3,6.7,3.6,15.7,12.8,19.1,19.7,6.3,12.4,6.1,47.3-.3,59.9-2.2,4.4-8.2,9.1-17.9,14.2-8.4,4.5-11.5,8.5-15.3,20-1.8,5.2-4.3,11.7-5.7,14.4-3.1,6.3-12.1,15-19.2,18.6-3,1.6-8,5.4-11,8.5-8.5,8.7-16.9,12.3-35,14.9-16.5,2.4-24.9,2.7-34.7,1.2-9.4-1.4-11.8-2.5-19.3-8.9-4.9-4.3-12.2-7.3-21.7-9.1-10.3-1.9-13.5-3.3-19.8-8.3-6.2-4.9-12.1-15-16.9-28.6-1.9-5.5-4.7-11.5-6.2-13.4-1.6-2-6.5-5.4-10.9-7.8-9.9-5.3-16.1-10.5-18.1-15.3-4.3-10.2-5.8-30.6-3.4-47.1,2.6-18.4,18.2-32.9,40.5-37.8,6.9-1.5,15.9-1.8,64-2.4,30.8-.3,68.4-.5,83.5-.4,25.1,.2,28.2,.4,35,2.4Zm69.8,30.5c1.6,3.1,2.2,52.1,.9,61.9-1,6.6-4.3,11.5-7.1,10.4-1.5-.6-1.7-3.5-1.4-35.5,.3-31.6,.5-35,2.1-37.6,2.1-3.2,3.7-3,5.5,.8Zm-322.1-.2c.4,.7,.8,13.7,.8,28.8,.1,21.4,.5,29.5,1.8,36.3,1.8,9.4,1.7,10.7-1.2,10.7-2.7,0-5-4.2-6.8-12.3-2.2-10.4-1-61.5,1.5-63.5,.8-.6,1.9-1.2,2.3-1.2s1.1,.6,1.6,1.2Zm335.9,13.3c5.6,11.4,6.4,20.7,3.2,34.5-1.2,5.2-7.1,18.4-8.5,19.3-.6,.4-1.2-8.3-1.7-23.4-.3-13.3-.9-28.2-1.3-33.2l-.6-9.2,2.7,2.5c1.5,1.3,4.3,5.6,6.2,9.5Zm-346.7,25.4c-.2,18.1-.7,32.7-1.2,32.4-.4-.2-2-3-3.6-6.1-8.8-17.5-9.9-32.9-3.5-47.2,2.4-5.2,6.9-12,8.1-12,.3,0,.3,14.8,.2,32.9Zm294.5,43.2c-3.5,9.7-8.7,20-13.7,27.1-2.2,3.2-4.2,5.8-4.4,5.8s.7-2.1,2.1-4.8c1.3-2.6,3.6-8.8,5.1-13.7,4.5-15,5.5-17.3,9.3-20.6,2-1.8,3.8-2.7,3.9-2.2,.2,.6-.8,4.3-2.3,8.4Zm-241.6,4.2c1.1,2.9,2.6,7.7,3.3,10.7,.8,3,3,8.7,4.9,12.7,2,4,3.5,7.3,3.3,7.3-.9,0-10-13.5-12.8-19-3.2-6.4-8.5-20.2-8.5-22.1,0-.6,1.8,.3,3.9,2.1,2.7,2.1,4.6,4.7,5.9,8.3Zm197.2,90.4c8.8,2.8,18.5,8.4,25.3,14.3l4.7,4.2-4.1,4.6c-2.3,2.6-4.6,5.7-5.2,6.9-.6,1.3-1.3,2.3-1.6,2.3-.6,0-3.6-4.5-6.3-9.6-5-9.3-25.4-17.4-44-17.4h-7.1l3.9-2.7c9.9-6.7,19.6-7.5,34.4-2.6Zm-133.1,2.6c3.2,2.2,6.5,3.7,8.3,3.7,1.7,0,2.7,.4,2.3,1-.3,.5-4.5,1-9.3,1-10.6,0-20.3,1.5-25.8,3.9-4.6,2.1-11,8.1-12.8,12-.6,1.4-2.3,4.4-3.6,6.5-2.2,3.6-2.5,3.8-3.4,2.1-.6-1.1-3.1-4-5.5-6.7-2.6-2.8-4.1-5.3-3.8-6.2,1-2.5,11.7-10.4,19.8-14.6,15.5-8.1,24.8-8.8,33.8-2.7Zm112.1,23.7c8,1.7,15.5,5.6,19,9.8,7.1,8.5,11.6,23.2,14.5,46.9,2,16.3,1.2,25.9-2.9,34.8-2.4,5.2-3.8,6.8-17.6,20.1-5.8,5.4-9.5,9.9-11.5,14-2.9,5.6-3,6.7-3.5,21.4-.3,9.3-1,16.3-1.7,17.6-2.3,4.1-8.9,8.8-18.8,13.5-15.8,7.5-28.4,8.7-42,3.9-4.5-1.6-7.5-2-12.2-1.7-4.1,.3-7.7-.1-11-1.2-5.7-2-19.2-10.9-22.3-14.8-2.1-2.6-2.2-3.4-1.4-11.3,1.5-15.3,1-23-1.6-28.6-3-6.1-9.7-13.3-17.7-19.1-8.5-6-11.7-10-14.2-17.5-3.5-10.7-4.3-18.8-3.1-30.2,3.8-34.8,10.9-49.4,26.3-54.5,6.4-2.1,16.2-3.8,25.7-4.4,13.5-.9,90.7,.1,96,1.3Zm77.7,8.5c6.6,2.8,6.7,3.3,1.6,7.2-4.5,3.4-4.7,3.5-7.4,1.9-3.8-2.3-9.1-2-12.4,.6s-6.5,9.1-6.5,13.3,3.4,11.1,5.9,12.5c2.3,1.2,2.9,4,.8,4-1.9,0-7.4-6-8.7-9.5-.7-1.7-1.2-5.5-1.2-8.5-.1-6.8,2.6-12.6,7.9-16.7,8.2-6.5,13.1-7.6,20-4.8Zm-258.1,2.4c5.1,2.3,12,8.4,14.1,12.5,1.9,3.6,2.1,12.8,.4,17.8-1.5,4.3-8.6,10.5-9.5,8.2-.4-1,.5-2.5,2.4-4,3.4-2.9,5.5-9.2,4.7-14.2-1.8-10.5-13.2-16.6-19.9-10.6-1.6,1.5-2,1.4-5.3-1.5-2-1.7-4-3.1-4.5-3.1-2.5,0-.5-2.1,4.2-4.4,6.2-3.1,8-3.2,13.4-.7Zm274.4,8.9l2.3,1.9-3.5,2.1c-5.5,3.4-14.3,13.2-16.9,19-2.2,4.8-3.7,6.1-5.2,4.6-.8-.8,2.8-10.8,5.4-15.3,2.9-4.7,7.7-9.9,11.4-12.2s3.8-2.3,6.5-.1Zm-24.6,1.5c1.8,1.3,1.6,1.9-2.7,10.5l-4.6,9.2-2-2.7c-6.2-7.8,1.9-22.4,9.3-17Zm-271,2.2c2,1.4,4.8,3.7,6.2,5.3,3,3.2,10.4,17.8,10.4,20.4,0,3.7-3,1.6-5.7-3.9-3-6.2-12.2-16.2-17.4-18.9l-3.3-1.7,2.3-1.8c2.9-2.4,3.1-2.4,7.5,.6Zm26,2.6c3.1,3.6,3.6,11,1,14.7-2.1,3-2.8,2.8-4.2-1.1-.6-1.8-2.7-5.7-4.6-8.7-3.9-6.2-3.5-8,1.9-8,2.5,0,4,.8,5.9,3.1Zm287.1,3.9c6.3,2.4,17.3,15.3,25.9,30.3l2.8,4.9-2.3-.8c-5.9-1.9-12.1-.7-21.1,4-10.3,5.3-15.7,6.1-17.3,2.3-.8-1.7-1.8-2.2-4.7-2.2-3.3,0-4-.5-5.7-3.5-1.6-3-1.7-4.4-.9-9.5,.5-3.3,.7-6.8,.4-7.9-1.1-4.1,6-13.3,12.9-16.9,3.5-1.9,6.4-2.1,10-.7Zm-328,3.9c4.3,1.9,10.4,8.1,12.9,12.9,1.6,3.1,2.5,19,1.2,21.1-.4,.6-2.4,1.1-4.5,1.1-4.4,0-6.1,1.4-6.1,5.2,0,2.6-.3,2.8-4,2.8-2.8,0-6.6-1.4-12.9-4.7-9.2-4.8-16.2-6-21.9-4-2.3,.9-2.2,.7,.9-5.5,6.2-12.4,15-23.7,21.8-28,5.2-3.3,7.2-3.4,12.6-.9Zm286.4,47.7l6.3,4.5-4.5,2.9c-2.4,1.5-5.7,4.4-7.2,6.4s-3.1,3.6-3.6,3.6c-1.2,0-1.1-4.7,.1-8.8,.5-1.9,1-5.6,1.2-8.3s.5-4.9,.8-4.9c.4,0,3.4,2.1,6.9,4.6Zm-246.3-1.7c-.4,.5,.3,5.6,1.4,11.2,1.1,5.7,1.8,10.4,1.6,10.7-.2,.2-2.7-1.9-5.5-4.7s-6.5-5.7-8.2-6.6-2.9-1.9-2.6-2.2c.3-.2,3.2-2.4,6.4-4.8,5.6-4.2,8-5.5,6.9-3.6Zm313.9,4.5c1.4,.9,3.8,4,5.5,6.9,2.5,4.3,3,6.2,2.9,11.2l-.1,6-.8-4.6c-1.1-6.1-2.5-8.6-6.3-10.9-7.4-4.6-15.1-.2-17.2,9.7-2,9.8,7.8,20.1,15.6,16.3,2.1-.9,2-.8-.5,1.3-2.9,2.5-8.7,4.7-12.4,4.7-5,0-12.2-11-12.2-18.6s6.7-19.9,12.2-23.1c2.9-1.7,10-1.1,13.3,1.1Zm-371.5,6.4c14.2,14.7,9.1,41.2-7.9,41.2-6.3,0-11.5-3.3-16.4-10.1-3.5-5.1-3.9-6.3-4.1-12-.2-13.6,8-23.7,19.3-23.9,4,0,4.9,.5,9.1,4.8Zm335.1,4.9c-1.5,5.4-1.4,11.9,.6,23.7,.9,5.7,1.3,11.5,.9,12.9-1.1,4.6-5.6,8.8-10.2,9.4-5.3,.7-8.8-1.2-14.8-7.8-4.1-4.6-4.6-5.6-4.6-9.8,0-7.9,2.7-14,8.9-20.1,4.8-4.7,18.9-13.6,19.9-12.5,.2,.2-.1,2-.7,4.2Zm-304.2,5c3.1,1.9,6.9,4.7,8.4,6.2,7.8,7.2,10.9,21.7,6.5,30-3.1,6.1-6.3,8.2-12.4,8.3-6.2,.2-10.1-1.7-13.2-6.2-2.2-3.2-2.3-4.1-1.6-10,1.1-8.5,1.1-29.9,.1-32.7q-.8-2.2,2.9-.7c2.1,.9,6.3,3.2,9.3,5.1Zm343.1,.7c1.4,4.3-.2,11.1-3,12.6-5.4,2.9-9.9-.2-10.7-7.4-1.3-10.9,10.3-15.3,13.7-5.2Zm-84.5,13.8c-4.9,16-5.3,23.8-1.6,32.2l2,4.6-2.5-.6c-2.7-.7-6.4,1.8-6.4,4.2,0,.7-.8,1.7-1.7,2.2-5.1,2.7-10.9-5.5-12.6-17.4-1-7.5-1.1-7.6-2.5-4.8-1.1,2.1-1.3,4.9-.9,11,.5,8.3,1.5,11.2,7.2,19.9l2,2.9-4.4-2.4c-11.4-6.4-15.1-20.9-8.4-33.2,4.8-8.9,20.9-20.8,28.1-20.8,2.1,0,2.3,.3,1.7,2.2Zm-212.9,3.3c7.2,3.5,16.7,12.5,19.8,18.7,5.3,10.5,2.2,23.3-7.3,30.6-2.4,1.8-4.5,3.1-4.8,2.9-.2-.3,1-2.6,2.7-5.3,1.6-2.7,3.5-6.4,4-8.4,1.4-5,1.2-17.1-.4-19.9-1.2-2.2-1.4-1.6-1.8,6.5-.3,6.2-1.1,10.4-2.7,14-2.1,4.9-2.5,5.2-7.6,6.4l-5.4,1.3-3.3-3.5c-3.6-3.9-3.5-2.8-.9-15.6,1.5-7.4,1.4-10.6-1-19.2-3.6-13.6-3.7-12.4,.2-11.6,1.9,.3,5.7,1.7,8.5,3.1Zm220.8,18c.1,2.7,.6,6.3,1.1,7.8,.7,2.5,.5,2.9-1.1,2.5-5.4-.9-7.6-15.9-3.9-25.3l2-5,.8,7.5c.4,4.1,.9,9.7,1.1,12.5Zm-234-1.5c0,5.1-.6,7.6-2.7,11.7-3.5,6.7-6.8,9-10.3,7.4-2.4-1.1-2.5-1.3-1.2-3.4,6.6-10.1,9.7-18.7,9.9-26.6l.1-4.6,2.1,4.5c1.5,3.2,2.1,6.4,2.1,11Zm191.1,40.9c1.5,1.7,1.7,3.6,1.3,13.7-.4,13.5,.9,11.8-16,22.3-14.5,9.1-31.8,17.5-44.8,21.8-12.3,4.1-12,4.1-14-2.7-1.4-5.1-1.2-12.7,.4-15.9,1.3-2.3,2.8-3.1,10-5,16.6-4.4,42.4-19,53.3-30.1,3.2-3.2,6.3-5.9,6.9-5.9,.6-.1,1.9,.8,2.9,1.8Zm-130.3,15.8c10.8,7,30.4,16,40.1,18.4,10.9,2.8,12.2,4.3,12.2,13.9,0,6.6-1.9,13-3.8,13-2.6,0-16.6-4.5-25.5-8.1-10.9-4.6-17.5-8.1-34.3-18.2l-11.6-6.9-.7-7.6c-1.2-14.1-.9-17.8,1.7-19.5,2.1-1.4,2.5-1.2,8.6,4.6,3.6,3.3,9.6,8,13.3,10.4Zm87.8,47.8c0,1.3-30.8,18.1-31.6,17.2-.3-.3,.1-3.4,.7-7.1,1.1-5.8,1.5-6.6,3.5-6.6,1.2,0,2.4,.7,2.8,1.5,.3,.8,1.4,1.5,2.4,1.5,1.1,0,2.5-.7,3.2-1.5s2.4-1.5,3.9-1.6c1.9,0,12.8-2.8,14.9-3.8,.1,0,.2,.1,.2,.4Zm-52.9,4.4c4.8,1,9.7,2.5,11,3.4,1.3,1,3.1,1.7,4,1.7s2,.7,2.3,1.6c.8,2,.8,6.4,0,6.4-.3,0-5.4-2.5-11.2-5.5-11-5.6-20.3-11.2-16.7-10,1.1,.4,5.9,1.5,10.6,2.4Z"/>
      <path d="M531.87,143.05c-.3,.4-23.3,.7-51,.9-27.8,.1-61.1,.5-74,.9-27,.7-30,1.4-37.9,8.5-9.6,8.6-12.8,20.2-11.8,42.3,.5,11.7,1,14.1,3.2,18.7,3,6,7.9,10.8,14.4,13.8,4.4,2,6.1,2.1,33.1,2,42.1-.1,43.7-.7,53.5-19.3,6.2-12,10.2-16.3,16.7-18.3,3.1-.9,4.5-.8,8.2,.6,5.8,2.2,10.3,7.3,15.7,17.6,8.6,16.6,11,17.7,43.2,18.6,34,.9,44.3-1.1,52.8-10.3,6-6.5,7-9.8,7.6-24.8,1.2-27.6-5.4-42.3-21.6-48.7-5-1.9-8-2.2-28.6-2.6-12.6-.2-23.2-.2-23.5,.1Zm15.8,17.3c3.2,2.2,4.3,5.7,3.1,9.4-1.2,3.4-3.5,5-7.3,5s-5.5-1-7.1-4.1c-2.1-4-1.9-5.7,1.4-9,3.3-3.2,6.5-3.7,9.9-1.3Zm-138.5,2.6c5.7,6.8-3.1,17.3-10.1,12.1-3.8-2.8-5-6.7-3.1-10.1,3-5.4,9.5-6.4,13.2-2Zm124.2,.4c-6.9,10.1-3.3,24.4,7.5,30.2,6.4,3.4,16,2.9,21.8-1.2,8.5-5.9,11.5-17.7,6.8-27-2-4-2.1-4.5-.5-3,1.1,.9,3.1,4.1,4.5,7.1,2.3,4.7,2.6,6.2,2.2,12.3-.4,5-1.2,8.1-3.1,11.3-8.5,14.5-28.8,16.8-40.3,4.5-5.2-5.5-6.8-9.5-6.9-17.3,0-7.7,1.7-12.4,6.5-17.5,3.8-4.1,4.5-3.8,1.5,.6Zm-96.9,11.2c2,6.9,1.3,12.7-2.3,19.3-4.5,8.4-12.3,12.9-22,12.9-19,0-31.2-19.8-22.8-36.7,1.5-2.8,3.3-5.7,4.2-6.5,1.2-.9,1-.2-.6,2.9-5.9,11.7,.3,26.3,12.7,29.9,14,4.1,27.2-6,27.2-20.6,0-2.1-1.3-6.3-2.9-9.6l-3-5.9,4,4.4c2.5,2.8,4.5,6.4,5.5,9.9Z"/>
      <path d="M457.87,236.95c-3.2,1.2-4,2.5-4,6.7,0,2.9,.9,4.4,5.3,8.7,6.4,6.1,12.6,8.5,22.2,8.5,8.9,0,16.5-2.5,21.9-7.2,5.9-5.2,8.1-10,6.4-13.6-.7-1.5-2.6-3.2-4.1-3.7q-3-1.1-11.3,4.5c-9,6-16,6.1-24.7,.2-6.7-4.6-8.7-5.2-11.7-4.1Z"/>
      <path d="M288.07,460.35c-5.3,3.7-7.3,12.2-4.4,18.7,4.4,10,14.9,10.9,20.1,1.7,5.3-9.5-.2-22-9.8-22-2,0-4.7,.7-5.9,1.6Zm9.5,3.9c1.3,.9,2.8,3.3,3.4,5.4,1,3.3,.9,4.5-.7,7.7-2.3,4.6-4.3,5.9-7.7,5-4.7-1.1-7.3-9.7-4.5-14.9,2.4-4.6,5.8-5.8,9.5-3.2Z"/>
      <path d="M625.97,279.85c-5.7,12.8-16.6,24.6-29.3,31.9-3.3,1.9-6.7,4.5-7.5,5.7-1.4,2-1.3,2.4,1.1,4.6,1.4,1.3,7.6,5,13.8,8.2s15.2,8.6,20,12.1c4.8,3.4,13.8,8.8,20,11.9,15.1,7.7,21.6,12.3,32,22.2,7.4,7.1,9,8.2,10.6,7.4,4.1-2.2,3.6-25.7-.8-42.1-2.8-10.3-11.6-28-18.8-37.6-10.1-13.5-27.5-28.5-34.9-30-3.2-.6-3.3-.5-6.2,5.7Z"/>
      <path d="M324.77,280.95c-8.2,5.4-22.4,19.8-28.2,28.5-13.5,20.4-19.8,40.7-19.6,62.7,.2,18.7,1.9,19.6,14.1,7.3,9.3-9.4,15.2-13.6,31.8-22.6,6.3-3.5,14.7-8.7,18.5-11.6,6.8-5.2,10.9-7.7,26.7-16.5,4.3-2.4,8-5.2,8.4-6.2,.8-2.7-1.8-5.3-9-9.1-3.8-2-9.5-6.6-15.2-12.2-7.2-7.2-9.8-10.6-12.8-16.8-4.5-9.3-5.6-9.6-14.7-3.5Z"/>
      <path d="M668.37,521.45c-5.5,2.5-15.6,6.5-22.4,8.9l-12.4,4.3-12.2,11c-43.1,39.1-82.4,67.1-122.5,87.1-14.6,7.3-11.8,7.6-33.4-3.2-37.5-18.6-73.5-43.5-115.8-80l-13.6-11.8-11.9-3.9c-6.5-2.2-16.7-6-22.7-8.5s-11.1-4.4-11.3-4.2c-.7,.7,13.5,16.5,27.3,30.1,32.6,32.5,76.4,66.3,110.9,85.6,13.6,7.5,40.5,20,51.2,23.7,6,2.1,6.5,2.1,11,.6,8.2-2.8,35.9-16,48.1-22.9,46.8-26.7,101.5-73.4,140.1-119.8,2-2.4,.8-2.1-10.4,3Z"/>
      <path d="M20.77,718.75c-5.9,1-9.6,3-13.5,7.2-7.2,7.6-6.9,4.6-7.2,62.7-.2,38.5,0,52.7,.9,53.7,1.5,1.8,20.9,2,22.7,.2,.8-.8,1.2-4.8,1.2-11.3s.4-10.5,1.2-11.3c.9-.9,10.9-1.2,38.8-1.2,42.2,0,45.1-.4,52-6.6,2.1-1.9,4.8-5.5,6-7.9,2-4.1,2.1-5.5,1.8-36.7l-.3-32.5-3-4.9c-3.7-5.8-9.9-10-17.4-11.4-6.2-1.2-76.2-1.2-83.2,0Zm78.3,25.8c1.9,1.9,1.9,45.2-.1,47.5-1.2,1.5-5,1.7-35.8,1.7-21.8,0-35.1-.4-36.4-1-1.8-1-1.9-2.3-1.9-23.8,0-12.5,.4-23.2,.8-23.8s1.4-1.4,2.2-1.7,16.9-.5,35.7-.4c26.5,.2,34.5,.5,35.5,1.5Z"/>
      <path d="M164.77,718.75c-5.9,1-9.6,3-13.5,7.2-7.1,7.5-6.9,5.7-7.2,53.2-.3,49-.3,49.4,7.4,57,7.6,7.7,8,7.7,57,7.4,42-.3,43-.3,47-2.5,4.8-2.5,10.1-8.3,12-12.9,1.1-2.7,1.4-12.2,1.4-47.2v-43.8l-2.6-5.2c-2.8-5.6-6.5-9-13-11.9-3.5-1.6-7.9-1.8-43.9-2-22-.1-42.1,.2-44.6,.7Zm78.3,25.8c2,2,1.9,70.2-.1,72.5-1.2,1.5-5,1.7-36.5,1.7-26,0-35.5-.3-36.4-1.2-1.3-1.3-1.8-70.4-.4-72.4,.4-.6,1.4-1.4,2.2-1.7s16.9-.5,35.7-.4c26.5,.2,34.5,.5,35.5,1.5Z"/>
      <path d="M308.77,718.75c-5.9,1-9.6,3-13.5,7.2-7.1,7.5-6.9,5.7-7.2,53.2-.3,49-.3,49.4,7.4,57,7.6,7.7,8,7.7,57,7.4,42-.3,43-.3,47-2.5,4.8-2.5,10.1-8.3,12-12.9,1-2.4,1.4-8.4,1.4-22.1,0-21-.7-23.9-7.1-30.2-7-7.1-6.9-7.1-50.6-7.1-34.2,0-39.4-.2-40.7-1.6-1.2-1.2-1.6-3.7-1.6-11.2,0-5.3,.5-10.4,1-11.2,.8-1.3,6.9-1.5,43.2-1.8,31.8-.2,42.4-.6,43-1.5,1.1-1.7,1-19.9-.2-21.7-.8-1.3-6.9-1.5-43.7-1.6-23.5-.1-44.9,.2-47.4,.6Zm79.2,77.7c1.5,3.8,.8,18.6-1,20.6-1.2,1.5-5,1.7-36.5,1.7-26,0-35.5-.3-36.4-1.2-.8-.8-1.2-4.8-1.2-11.3s.4-10.5,1.2-11.3c.9-.9,10.5-1.2,37-1.2h35.8l1.1,2.7Z"/>
      <path d="M449.77,718.75c-5.9,1-9.6,3-13.5,7.2-7.1,7.5-6.9,5.7-7.2,53.2-.3,49-.3,49.4,7.4,57,7.6,7.7,8,7.7,57,7.4,42-.3,43-.3,47-2.5,4.8-2.5,10.1-8.3,12-12.9,1.1-2.7,1.4-12.2,1.4-47.2v-43.8l-2.6-5.2c-2.8-5.6-6.5-9-13-11.9-3.5-1.6-7.9-1.8-43.9-2-22-.1-42.1,.2-44.6,.7Zm78.3,25.8c2,2,1.9,70.2-.1,72.5-1.2,1.5-5,1.7-36.5,1.7-26,0-35.5-.3-36.4-1.2-1.3-1.3-1.8-70.4-.4-72.4,.4-.6,1.4-1.4,2.2-1.7s16.9-.5,35.7-.4c26.5,.2,34.5,.5,35.5,1.5Z"/>
      <path d="M571.87,718.45c-.8,.3-1.8,1.1-2.2,1.7-.9,1.3-1.1,18.8-.2,21,.5,1.4,3.5,1.6,22.4,1.6,12,0,23,.4,24.4,1l2.6,1v47.9c0,42.3,.2,48.1,1.6,49.5,2,2,20.3,2.3,22.2,.4,.9-.9,1.2-13.1,1.2-48.9,0-43.1,.2-47.8,1.7-49,1.2-1.1,7.2-1.5,24.7-1.9l23.1-.5,.3-11.3,.3-11.2-2.6-1c-2.8-1.1-116.8-1.3-119.5-.3Z"/>
      <path d="M713.87,718.45c-.8,.3-1.8,1.1-2.2,1.7s-.8,28.1-.8,61.1c0,45.4,.3,60.4,1.2,61.3,.8,.8,5,1.2,12.2,1.2h10.9l4.1-4.3c2.3-2.3,18.2-20.7,35.5-40.7,38.2-44.5,34.9-40.9,36.1-39,.6,.9,1,17.9,1,41.5,0,29.8,.3,40.4,1.2,41.3,.8,.8,4.7,1.2,10.8,1.2s10-.4,10.8-1.2c.9-.9,1.2-16,1.2-62v-60.8l-2.7-1.1c-3-1.2-20-.8-22.1,.5-.7,.4-17.3,19.3-36.8,41.9-19.6,22.7-36.3,41.3-37,41.5-1.2,.3-1.4-6.3-1.4-40.7v-41l-2.2-1.5c-1.6-1.2-4.5-1.6-10.3-1.5-4.4,0-8.7,.3-9.5,.6Z"/>
      <path d="M857.87,718.45c-.8,.3-1.8,1.1-2.2,1.7s-.8,28.1-.8,61.1c0,45.4,.3,60.4,1.2,61.3,.8,.8,4.8,1.2,11.3,1.2s10.5-.4,11.3-1.2c.9-.9,1.2-7.6,1.2-23.8s.3-22.9,1.2-23.8c.8-.8,4.9-1.2,12-1.2h10.8l20.7,23.9c11.5,13.1,21.8,24.4,23.1,25s8,1.1,15.8,1.1c10.7,0,13.6-.3,14-1.4,.3-.9-8.9-12.4-24.3-30.1-13.9-16-24.9-29.7-25.1-31-.2-1.7,5.3-8.7,24.3-30.6,13.6-15.6,24.9-29,25.2-29.8,.3-.7,0-1.7-.8-2.2-1.6-1-22.1-1.2-26.9-.3-2.6,.6-6.7,4.8-23.2,23.8-11,12.7-21.2,23.9-22.6,24.8-3.7,2.4-20.3,2.6-22.6,.2-1.4-1.3-1.6-4.9-1.6-23.7,0-12.2-.5-22.9-1-23.7-.7-1.1-3.2-1.6-10.2-1.7-5.1-.1-10,0-10.8,.4Z"/>
    </g>
  </g>
</svg>