<svg width="51" height="50" viewBox="0 0 51 50" fill="none" xmlns="http://www.w3.org/2000/svg">
<g clip-path="url(#clip0_94_15)">
<path d="M50.5635 25C50.5635 11.1929 39.3706 0 25.5635 0C11.7564 0 0.563477 11.1929 0.563477 25C0.563477 38.8071 11.7564 50 25.5635 50C39.3706 50 50.5635 38.8071 50.5635 25Z" fill="black"/>
<path d="M50.5635 25C50.5635 11.1929 39.3706 0 25.5635 0C11.7564 0 0.563477 11.1929 0.563477 25C0.563477 38.8071 11.7564 50 25.5635 50C39.3706 50 50.5635 38.8071 50.5635 25Z" fill="url(#paint0_linear_94_15)"/>
<path d="M11.8004 24.449C19.0705 21.215 23.9183 19.0829 26.344 18.0527C33.2696 15.1116 34.7088 14.6006 35.6468 14.5837C35.8531 14.5801 36.3143 14.6323 36.6132 14.8798C36.8655 15.0889 36.9348 15.3713 36.9681 15.5694C37.0013 15.7676 37.0426 16.2191 37.0097 16.5718C36.6344 20.598 35.0106 30.3688 34.1843 34.8782C33.8347 36.7864 33.1464 37.4262 32.48 37.4888C31.0318 37.6248 29.932 36.5116 28.5294 35.5727C26.3344 34.1038 25.0945 33.1892 22.9639 31.7557C20.5017 30.0991 22.0978 29.1886 23.5011 27.7004C23.8683 27.3111 30.2492 21.385 30.3727 20.8475C30.3882 20.7802 30.4025 20.5296 30.2567 20.3973C30.1109 20.265 29.8957 20.3102 29.7404 20.3462C29.5202 20.3972 26.0138 22.7636 19.2211 27.4452C18.2258 28.143 17.3243 28.4829 16.5166 28.4651C15.6262 28.4455 13.9134 27.9512 12.64 27.5286C11.0783 27.0101 9.83695 26.7362 9.94504 25.8558C10.0013 25.3973 10.6198 24.9283 11.8004 24.449Z" fill="white"/>
</g>
<defs>
<linearGradient id="paint0_linear_94_15" x1="25.5635" y1="0" x2="25.5635" y2="49.6292" gradientUnits="userSpaceOnUse">
<stop/>
<stop offset="1"/>
</linearGradient>
<clipPath id="clip0_94_15">
<rect width="50" height="50" fill="white" transform="translate(0.563477)"/>
</clipPath>
</defs>
</svg>
