<svg width="80" height="80" viewBox="0 0 80 80" fill="none" xmlns="http://www.w3.org/2000/svg">
<rect x="11.2" y="22.3999" width="59.2" height="43.2" fill="white"/>
<path fill-rule="evenodd" clip-rule="evenodd" d="M77.9768 51.6816V28.412C77.9768 7.15755 72.9584 2.10075 51.6976 2.10075C-0.294342 1.76715 1.75445 -0.347244 2.10325 51.6424C2.10325 72.8968 7.12165 77.9536 28.3825 77.9536H46.0296C68.6184 78.3432 78.5448 76.7904 77.9768 51.6816ZM63.356 56.2256H57.8232C55.7288 56.2256 55.0968 54.5264 51.3424 50.7736C48.0624 47.6128 46.6792 47.2176 45.8496 47.2176C44.7032 47.2176 44.3873 47.5336 44.3873 49.1136V54.0912C44.3873 55.4344 43.9528 56.2248 40.4352 56.2248C34.5864 56.2248 28.1457 52.6688 23.5609 46.1112C16.6849 36.5112 14.8273 29.2416 14.8273 27.78C14.8273 26.9504 15.1433 26.1992 16.7241 26.1992H22.2569C23.6792 26.1992 24.1929 26.8312 24.7465 28.2928C27.0145 35.728 34.7832 48.1 34.9024 40.9744V32.836C34.6656 29.1224 32.6897 28.8064 32.6897 27.4632C32.6897 26.8704 33.2433 26.1992 34.1121 26.1992H42.8056C43.9912 26.1992 44.3865 26.792 44.3865 28.2136V39.1968C44.5369 41.8304 46.1752 40.7944 47.8248 39.0784C51.816 34.6536 54.6216 27.7792 54.6216 27.7792C54.9776 26.9496 55.6096 26.1992 57.032 26.1992H62.5648C64.2248 26.1992 64.58 27.0288 64.2248 28.2144C63.5528 31.4536 56.7953 40.9352 56.7953 40.9752C56.2025 41.884 55.9657 42.3584 56.7953 43.4248C58.3881 45.4096 69.9944 55.8912 63.356 56.2256Z" fill="black"/>
</svg>
