<svg width="51" height="50" viewBox="0 0 51 50" fill="none" xmlns="http://www.w3.org/2000/svg">
<g clip-path="url(#clip0_94_20)">
<path d="M50.5606 37.3611C50.5606 37.6348 50.5522 38.2286 50.5358 38.6872C50.4956 39.8094 50.4066 41.2575 50.2721 41.9172C50.0699 42.9087 49.7646 43.8446 49.3667 44.6235C48.8959 45.545 48.2953 46.3704 47.5816 47.0827C46.8695 47.7937 46.0449 48.3919 45.1248 48.8608C44.3418 49.2599 43.4001 49.5652 42.4029 49.7666C41.7497 49.8984 40.3125 49.9857 39.1975 50.0253C38.7384 50.0417 38.1445 50.05 37.8718 50.05L13.2514 50.046C12.9776 50.046 12.3839 50.0376 11.9253 50.0212C10.8031 49.981 9.35503 49.892 8.69522 49.7575C7.70371 49.5553 6.76782 49.2501 5.98892 48.8521C5.06743 48.3812 4.24209 47.7807 3.52974 47.067C2.8188 46.3549 2.22056 45.5303 1.75166 44.6103C1.35254 43.8272 1.04717 42.8855 0.84585 41.8884C0.714014 41.2352 0.626758 39.798 0.587061 38.6829C0.570752 38.2238 0.5625 37.63 0.5625 37.3573L0.566406 12.7368C0.566406 12.463 0.574756 11.8693 0.591211 11.4106C0.631494 10.2884 0.72041 8.84038 0.854932 8.18062C1.05713 7.18911 1.3623 6.25322 1.7603 5.47427C2.23115 4.55283 2.83179 3.72744 3.54541 3.01509C4.25752 2.3042 5.08213 1.70591 6.0022 1.23696C6.78525 0.837939 7.727 0.532568 8.72412 0.33125C9.3773 0.199365 10.8146 0.112109 11.9296 0.0724609C12.3887 0.0561035 12.9826 0.0478516 13.2552 0.0478516L37.8757 0.0518066C38.1495 0.0518066 38.7432 0.0601563 39.2018 0.0766113C40.324 0.116895 41.772 0.205811 42.4319 0.340332C43.4233 0.542529 44.3592 0.847705 45.1382 1.2457C46.0596 1.71655 46.885 2.31719 47.5973 3.03081C48.3082 3.74292 48.9065 4.56748 49.3754 5.4876C49.7745 6.27065 50.0799 7.21235 50.2812 8.20947C50.413 8.8627 50.5002 10.2999 50.54 11.415C50.5563 11.8741 50.5646 12.4679 50.5646 12.7407L50.5606 37.3611Z" fill="url(#paint0_linear_94_20)"/>
<path d="M38.8106 11.8773C35.4254 8.48931 30.9234 6.62251 26.1269 6.62061C16.2439 6.62061 8.20044 14.661 8.19648 24.544C8.19521 27.7032 9.02085 30.7869 10.5899 33.5051L8.04614 42.7936L17.5513 40.3011C20.1702 41.729 23.1188 42.4815 26.1197 42.4828H26.1271C36.009 42.4828 44.0533 34.4414 44.0573 24.5583C44.0592 19.7689 42.1959 15.2654 38.8106 11.8773ZM26.1271 39.4555H26.121C23.4468 39.4545 20.824 38.7363 18.5358 37.3789L17.9916 37.0561L12.3511 38.5352L13.8567 33.0375L13.5022 32.4739C12.0104 30.1019 11.2226 27.3602 11.2237 24.5452C11.227 16.3309 17.9124 9.64795 26.1329 9.64795C30.1134 9.64946 33.8552 11.2012 36.6689 14.0172C39.4827 16.8332 41.0313 20.5764 41.0299 24.5572C41.0267 32.7722 34.3412 39.4555 26.1271 39.4555ZM34.3017 28.2976C33.8536 28.0734 31.651 26.9898 31.2403 26.8404C30.8296 26.6909 30.531 26.6162 30.2322 27.0646C29.9336 27.5129 29.0751 28.5218 28.8136 28.8207C28.5523 29.1196 28.291 29.157 27.843 28.9328C27.3949 28.7086 25.9514 28.2356 24.2401 26.7098C22.9083 25.5224 22.0091 24.0556 21.7478 23.6071C21.4865 23.1587 21.72 22.9164 21.9443 22.6931C22.1458 22.4924 22.3923 22.17 22.6163 21.9084C22.8403 21.647 22.915 21.4601 23.0643 21.1612C23.2137 20.8623 23.139 20.6007 23.027 20.3765C22.915 20.1523 22.0189 17.9479 21.6456 17.0511C21.282 16.1778 20.9125 16.2959 20.6375 16.2822C20.3765 16.2692 20.0775 16.2665 19.7789 16.2665C19.4803 16.2665 18.9949 16.3786 18.5842 16.827C18.1736 17.2753 17.0162 18.3589 17.0162 20.5633C17.0162 22.7678 18.6215 24.8975 18.8456 25.1964C19.0696 25.4953 22.0047 30.0192 26.4989 31.9592C27.5679 32.4206 28.4023 32.6962 29.053 32.9026C30.1263 33.2434 31.1029 33.1954 31.875 33.0801C32.7357 32.9515 34.5255 31.9966 34.899 30.9504C35.2723 29.9042 35.2723 29.0075 35.1603 28.8207C35.0483 28.6339 34.7497 28.5218 34.3017 28.2976Z" fill="white"/>
</g>
<defs>
<linearGradient id="paint0_linear_94_20" x1="25.5635" y1="0.0478516" x2="25.5635" y2="50.05" gradientUnits="userSpaceOnUse">
<stop/>
<stop offset="1"/>
</linearGradient>
<clipPath id="clip0_94_20">
<rect width="50" height="50" fill="white" transform="translate(0.563477)"/>
</clipPath>
</defs>
</svg>
