<svg width="1316" height="75" viewBox="0 0 1316 75" fill="none" xmlns="http://www.w3.org/2000/svg">
<path d="M5.696 60L5.696 14.56L24.512 14.56C26.4747 14.56 28.2667 14.9653 29.888 15.776C31.552 16.5867 32.9813 17.696 34.176 19.104C35.3707 20.4693 36.3093 22.0053 36.992 23.712C37.6747 25.376 38.016 27.0827 38.016 28.832C38.016 31.3067 37.4613 33.6533 36.352 35.872C35.2853 38.048 33.7707 39.8187 31.808 41.184C29.8453 42.5493 27.5413 43.232 24.896 43.232H10.176L10.176 60H5.696ZM10.176 39.264H24.704C26.496 39.264 28.0533 38.7733 29.376 37.792C30.6987 36.8107 31.7227 35.5307 32.448 33.952C33.1733 32.3733 33.536 30.6667 33.536 28.832C33.536 26.9547 33.1093 25.2267 32.256 23.648C31.4027 22.0693 30.272 20.832 28.864 19.936C27.4987 18.9973 25.984 18.528 24.32 18.528H10.176V39.264ZM63.8125 60.32C60.6125 60.32 57.7112 59.68 55.1085 58.4C52.5058 57.12 50.2658 55.392 48.3885 53.216C46.5112 50.9973 45.0605 48.5227 44.0365 45.792C43.0125 43.0187 42.5005 40.1813 42.5005 37.28C42.5005 34.2507 43.0338 31.3707 44.1005 28.64C45.1672 25.8667 46.6605 23.4133 48.5805 21.28C50.5432 19.104 52.8258 17.3973 55.4285 16.16C58.0312 14.88 60.8472 14.24 63.8765 14.24C67.0765 14.24 69.9778 14.9013 72.5805 16.224C75.1832 17.5467 77.4018 19.3173 79.2365 21.536C81.1138 23.7547 82.5645 26.2293 83.5885 28.96C84.6125 31.6907 85.1245 34.4853 85.1245 37.344C85.1245 40.3733 84.5912 43.2747 83.5245 46.048C82.4578 48.7787 80.9645 51.232 79.0445 53.408C77.1245 55.5413 74.8632 57.2267 72.2605 58.464C69.6578 59.7013 66.8418 60.32 63.8125 60.32ZM46.9805 37.28C46.9805 39.7547 47.3858 42.144 48.1965 44.448C49.0072 46.7093 50.1592 48.736 51.6525 50.528C53.1458 52.2773 54.9165 53.6853 56.9645 54.752C59.0552 55.776 61.3378 56.288 63.8125 56.288C66.4152 56.288 68.7405 55.7547 70.7885 54.688C72.8792 53.5787 74.6498 52.128 76.1005 50.336C77.5938 48.5013 78.7245 46.4533 79.4925 44.192C80.2605 41.9307 80.6445 39.6267 80.6445 37.28C80.6445 34.8053 80.2392 32.4373 79.4285 30.176C78.6178 27.9147 77.4445 25.888 75.9085 24.096C74.4152 22.304 72.6445 20.896 70.5965 19.872C68.5485 18.848 66.2872 18.336 63.8125 18.336C61.2525 18.336 58.9272 18.8693 56.8365 19.936C54.7885 21.0027 53.0178 22.4533 51.5245 24.288C50.0738 26.08 48.9432 28.1067 48.1325 30.368C47.3645 32.6293 46.9805 34.9333 46.9805 37.28ZM93.571 60V14.56L124.035 14.56V18.528H98.051V34.336H113.027C118.019 34.336 121.71 35.5093 124.099 37.856C126.488 40.16 127.683 43.168 127.683 46.88C127.683 49.312 127.15 51.5307 126.083 53.536C125.059 55.4987 123.48 57.0773 121.347 58.272C119.256 59.424 116.611 60 113.411 60H93.571ZM98.051 56.032H112.899C115.374 56.032 117.358 55.584 118.851 54.688C120.344 53.792 121.432 52.64 122.115 51.232C122.798 49.7813 123.139 48.288 123.139 46.752C123.139 45.216 122.84 43.7867 122.243 42.464C121.646 41.0987 120.579 40.0107 119.043 39.2C117.55 38.3467 115.438 37.92 112.707 37.92H98.051V56.032ZM153.625 60.32C150.425 60.32 147.524 59.68 144.921 58.4C142.318 57.12 140.078 55.392 138.201 53.216C136.324 50.9973 134.873 48.5227 133.849 45.792C132.825 43.0187 132.313 40.1813 132.313 37.28C132.313 34.2507 132.846 31.3707 133.913 28.64C134.98 25.8667 136.473 23.4133 138.393 21.28C140.356 19.104 142.638 17.3973 145.241 16.16C147.844 14.88 150.66 14.24 153.689 14.24C156.889 14.24 159.79 14.9013 162.393 16.224C164.996 17.5467 167.214 19.3173 169.049 21.536C170.926 23.7547 172.377 26.2293 173.401 28.96C174.425 31.6907 174.937 34.4853 174.937 37.344C174.937 40.3733 174.404 43.2747 173.337 46.048C172.27 48.7787 170.777 51.232 168.857 53.408C166.937 55.5413 164.676 57.2267 162.073 58.464C159.47 59.7013 156.654 60.32 153.625 60.32ZM136.793 37.28C136.793 39.7547 137.198 42.144 138.009 44.448C138.82 46.7093 139.972 48.736 141.465 50.528C142.958 52.2773 144.729 53.6853 146.777 54.752C148.868 55.776 151.15 56.288 153.625 56.288C156.228 56.288 158.553 55.7547 160.601 54.688C162.692 53.5787 164.462 52.128 165.913 50.336C167.406 48.5013 168.537 46.4533 169.305 44.192C170.073 41.9307 170.457 39.6267 170.457 37.28C170.457 34.8053 170.052 32.4373 169.241 30.176C168.43 27.9147 167.257 25.888 165.721 24.096C164.228 22.304 162.457 20.896 160.409 19.872C158.361 18.848 156.1 18.336 153.625 18.336C151.065 18.336 148.74 18.8693 146.649 19.936C144.601 21.0027 142.83 22.4533 141.337 24.288C139.886 26.08 138.756 28.1067 137.945 30.368C137.177 32.6293 136.793 34.9333 136.793 37.28ZM214.015 18.528H197.823V60H193.343V18.528H177.151V14.56L214.015 14.56V18.528ZM221.077 60V14.56H225.493V53.856L253.653 14.56H257.813V60H253.397V21.408L225.557 60H221.077ZM269.446 60V14.56L273.926 14.56V34.784H280.774L296.39 14.56H301.574L284.486 36.576L302.662 60H297.158L280.902 38.88H273.926V60H269.446Z" fill="#00B3FF"/>
<path d="M342.696 60V14.56L361.512 14.56C363.475 14.56 365.267 14.9653 366.888 15.776C368.552 16.5867 369.981 17.696 371.176 19.104C372.371 20.4693 373.309 22.0053 373.992 23.712C374.675 25.376 375.016 27.0827 375.016 28.832C375.016 31.3067 374.461 33.6533 373.352 35.872C372.285 38.048 370.771 39.8187 368.808 41.184C366.845 42.5493 364.541 43.232 361.896 43.232H347.176V60H342.696ZM347.176 39.264H361.704C363.496 39.264 365.053 38.7733 366.376 37.792C367.699 36.8107 368.723 35.5307 369.448 33.952C370.173 32.3733 370.536 30.6667 370.536 28.832C370.536 26.9547 370.109 25.2267 369.256 23.648C368.403 22.0693 367.272 20.832 365.864 19.936C364.499 18.9973 362.984 18.528 361.32 18.528H347.176V39.264ZM400.813 60.32C397.613 60.32 394.711 59.68 392.109 58.4C389.506 57.12 387.266 55.392 385.389 53.216C383.511 50.9973 382.061 48.5227 381.036 45.792C380.013 43.0187 379.501 40.1813 379.501 37.28C379.501 34.2507 380.034 31.3707 381.101 28.64C382.167 25.8667 383.661 23.4133 385.581 21.28C387.543 19.104 389.826 17.3973 392.429 16.16C395.031 14.88 397.847 14.24 400.877 14.24C404.077 14.24 406.978 14.9013 409.581 16.224C412.183 17.5467 414.402 19.3173 416.237 21.536C418.114 23.7547 419.565 26.2293 420.589 28.96C421.613 31.6907 422.125 34.4853 422.125 37.344C422.125 40.3733 421.591 43.2747 420.525 46.048C419.458 48.7787 417.965 51.232 416.045 53.408C414.125 55.5413 411.863 57.2267 409.261 58.464C406.658 59.7013 403.842 60.32 400.813 60.32ZM383.981 37.28C383.981 39.7547 384.386 42.144 385.197 44.448C386.007 46.7093 387.159 48.736 388.653 50.528C390.146 52.2773 391.917 53.6853 393.965 54.752C396.055 55.776 398.338 56.288 400.813 56.288C403.415 56.288 405.741 55.7547 407.789 54.688C409.879 53.5787 411.65 52.128 413.101 50.336C414.594 48.5013 415.725 46.4533 416.493 44.192C417.261 41.9307 417.645 39.6267 417.645 37.28C417.645 34.8053 417.239 32.4373 416.429 30.176C415.618 27.9147 414.445 25.888 412.909 24.096C411.415 22.304 409.645 20.896 407.597 19.872C405.549 18.848 403.287 18.336 400.813 18.336C398.253 18.336 395.927 18.8693 393.837 19.936C391.789 21.0027 390.018 22.4533 388.525 24.288C387.074 26.08 385.943 28.1067 385.133 30.368C384.365 32.6293 383.981 34.9333 383.981 37.28ZM430.571 60V14.56L461.035 14.56V18.528H435.051V34.336H450.027C455.019 34.336 458.71 35.5093 461.099 37.856C463.488 40.16 464.683 43.168 464.683 46.88C464.683 49.312 464.15 51.5307 463.083 53.536C462.059 55.4987 460.48 57.0773 458.347 58.272C456.256 59.424 453.611 60 450.411 60H430.571ZM435.051 56.032H449.899C452.374 56.032 454.358 55.584 455.851 54.688C457.344 53.792 458.432 52.64 459.115 51.232C459.798 49.7813 460.139 48.288 460.139 46.752C460.139 45.216 459.84 43.7867 459.243 42.464C458.646 41.0987 457.579 40.0107 456.043 39.2C454.55 38.3467 452.438 37.92 449.707 37.92H435.051V56.032ZM490.625 60.32C487.425 60.32 484.524 59.68 481.921 58.4C479.318 57.12 477.078 55.392 475.201 53.216C473.324 50.9973 471.873 48.5227 470.849 45.792C469.825 43.0187 469.313 40.1813 469.313 37.28C469.313 34.2507 469.846 31.3707 470.913 28.64C471.98 25.8667 473.473 23.4133 475.393 21.28C477.356 19.104 479.638 17.3973 482.241 16.16C484.844 14.88 487.66 14.24 490.689 14.24C493.889 14.24 496.79 14.9013 499.393 16.224C501.996 17.5467 504.214 19.3173 506.049 21.536C507.926 23.7547 509.377 26.2293 510.401 28.96C511.425 31.6907 511.937 34.4853 511.937 37.344C511.937 40.3733 511.404 43.2747 510.337 46.048C509.27 48.7787 507.777 51.232 505.857 53.408C503.937 55.5413 501.676 57.2267 499.073 58.464C496.47 59.7013 493.654 60.32 490.625 60.32ZM473.793 37.28C473.793 39.7547 474.198 42.144 475.009 44.448C475.82 46.7093 476.972 48.736 478.465 50.528C479.958 52.2773 481.729 53.6853 483.777 54.752C485.868 55.776 488.15 56.288 490.625 56.288C493.228 56.288 495.553 55.7547 497.601 54.688C499.692 53.5787 501.462 52.128 502.913 50.336C504.406 48.5013 505.537 46.4533 506.305 44.192C507.073 41.9307 507.457 39.6267 507.457 37.28C507.457 34.8053 507.052 32.4373 506.241 30.176C505.43 27.9147 504.257 25.888 502.721 24.096C501.228 22.304 499.457 20.896 497.409 19.872C495.361 18.848 493.1 18.336 490.625 18.336C488.065 18.336 485.74 18.8693 483.649 19.936C481.601 21.0027 479.83 22.4533 478.337 24.288C476.886 26.08 475.756 28.1067 474.945 30.368C474.177 32.6293 473.793 34.9333 473.793 37.28ZM551.015 18.528H534.823V60H530.343V18.528H514.151V14.56L551.015 14.56V18.528ZM558.077 60V14.56H562.493V53.856L590.653 14.56H594.813V60H590.397V21.408L562.557 60H558.077ZM606.446 60V14.56L610.926 14.56V34.784H617.774L633.39 14.56H638.574L621.486 36.576L639.662 60H634.158L617.902 38.88H610.926V60H606.446Z" fill="black"/>
<path d="M679.696 60V14.56L698.512 14.56C700.475 14.56 702.267 14.9653 703.888 15.776C705.552 16.5867 706.981 17.696 708.176 19.104C709.371 20.4693 710.309 22.0053 710.992 23.712C711.675 25.376 712.016 27.0827 712.016 28.832C712.016 31.3067 711.461 33.6533 710.352 35.872C709.285 38.048 707.771 39.8187 705.808 41.184C703.845 42.5493 701.541 43.232 698.896 43.232H684.176V60H679.696ZM684.176 39.264H698.704C700.496 39.264 702.053 38.7733 703.376 37.792C704.699 36.8107 705.723 35.5307 706.448 33.952C707.173 32.3733 707.536 30.6667 707.536 28.832C707.536 26.9547 707.109 25.2267 706.256 23.648C705.403 22.0693 704.272 20.832 702.864 19.936C701.499 18.9973 699.984 18.528 698.32 18.528H684.176V39.264ZM737.813 60.32C734.613 60.32 731.711 59.68 729.109 58.4C726.506 57.12 724.266 55.392 722.389 53.216C720.511 50.9973 719.061 48.5227 718.036 45.792C717.013 43.0187 716.501 40.1813 716.501 37.28C716.501 34.2507 717.034 31.3707 718.101 28.64C719.167 25.8667 720.661 23.4133 722.581 21.28C724.543 19.104 726.826 17.3973 729.429 16.16C732.031 14.88 734.847 14.24 737.877 14.24C741.077 14.24 743.978 14.9013 746.581 16.224C749.183 17.5467 751.402 19.3173 753.237 21.536C755.114 23.7547 756.565 26.2293 757.589 28.96C758.613 31.6907 759.125 34.4853 759.125 37.344C759.125 40.3733 758.591 43.2747 757.525 46.048C756.458 48.7787 754.965 51.232 753.045 53.408C751.125 55.5413 748.863 57.2267 746.261 58.464C743.658 59.7013 740.842 60.32 737.813 60.32ZM720.981 37.28C720.981 39.7547 721.386 42.144 722.197 44.448C723.007 46.7093 724.159 48.736 725.653 50.528C727.146 52.2773 728.917 53.6853 730.965 54.752C733.055 55.776 735.338 56.288 737.813 56.288C740.415 56.288 742.741 55.7547 744.789 54.688C746.879 53.5787 748.65 52.128 750.101 50.336C751.594 48.5013 752.725 46.4533 753.493 44.192C754.261 41.9307 754.645 39.6267 754.645 37.28C754.645 34.8053 754.239 32.4373 753.429 30.176C752.618 27.9147 751.445 25.888 749.909 24.096C748.415 22.304 746.645 20.896 744.597 19.872C742.549 18.848 740.287 18.336 737.813 18.336C735.253 18.336 732.927 18.8693 730.837 19.936C728.789 21.0027 727.018 22.4533 725.525 24.288C724.074 26.08 722.943 28.1067 722.133 30.368C721.365 32.6293 720.981 34.9333 720.981 37.28ZM767.571 60V14.56L798.035 14.56V18.528H772.051V34.336H787.027C792.019 34.336 795.71 35.5093 798.099 37.856C800.488 40.16 801.683 43.168 801.683 46.88C801.683 49.312 801.15 51.5307 800.083 53.536C799.059 55.4987 797.48 57.0773 795.347 58.272C793.256 59.424 790.611 60 787.411 60H767.571ZM772.051 56.032H786.899C789.374 56.032 791.358 55.584 792.851 54.688C794.344 53.792 795.432 52.64 796.115 51.232C796.798 49.7813 797.139 48.288 797.139 46.752C797.139 45.216 796.84 43.7867 796.243 42.464C795.646 41.0987 794.579 40.0107 793.043 39.2C791.55 38.3467 789.438 37.92 786.707 37.92H772.051V56.032ZM827.625 60.32C824.425 60.32 821.524 59.68 818.921 58.4C816.318 57.12 814.078 55.392 812.201 53.216C810.324 50.9973 808.873 48.5227 807.849 45.792C806.825 43.0187 806.313 40.1813 806.313 37.28C806.313 34.2507 806.846 31.3707 807.913 28.64C808.98 25.8667 810.473 23.4133 812.393 21.28C814.356 19.104 816.638 17.3973 819.241 16.16C821.844 14.88 824.66 14.24 827.689 14.24C830.889 14.24 833.79 14.9013 836.393 16.224C838.996 17.5467 841.214 19.3173 843.049 21.536C844.926 23.7547 846.377 26.2293 847.401 28.96C848.425 31.6907 848.937 34.4853 848.937 37.344C848.937 40.3733 848.404 43.2747 847.337 46.048C846.27 48.7787 844.777 51.232 842.857 53.408C840.937 55.5413 838.676 57.2267 836.073 58.464C833.47 59.7013 830.654 60.32 827.625 60.32ZM810.793 37.28C810.793 39.7547 811.198 42.144 812.009 44.448C812.82 46.7093 813.972 48.736 815.465 50.528C816.958 52.2773 818.729 53.6853 820.777 54.752C822.868 55.776 825.15 56.288 827.625 56.288C830.228 56.288 832.553 55.7547 834.601 54.688C836.692 53.5787 838.462 52.128 839.913 50.336C841.406 48.5013 842.537 46.4533 843.305 44.192C844.073 41.9307 844.457 39.6267 844.457 37.28C844.457 34.8053 844.052 32.4373 843.241 30.176C842.43 27.9147 841.257 25.888 839.721 24.096C838.228 22.304 836.457 20.896 834.409 19.872C832.361 18.848 830.1 18.336 827.625 18.336C825.065 18.336 822.74 18.8693 820.649 19.936C818.601 21.0027 816.83 22.4533 815.337 24.288C813.886 26.08 812.756 28.1067 811.945 30.368C811.177 32.6293 810.793 34.9333 810.793 37.28ZM888.015 18.528H871.823V60H867.343V18.528H851.151V14.56L888.015 14.56V18.528ZM895.077 60V14.56H899.493V53.856L927.653 14.56H931.813V60H927.397V21.408L899.557 60H895.077ZM943.446 60V14.56L947.926 14.56V34.784H954.774L970.39 14.56H975.574L958.486 36.576L976.662 60H971.158L954.902 38.88H947.926V60H943.446Z" fill="#00B3FF"/>
<path d="M1016.7 60V14.56L1035.51 14.56C1037.47 14.56 1039.27 14.9653 1040.89 15.776C1042.55 16.5867 1043.98 17.696 1045.18 19.104C1046.37 20.4693 1047.31 22.0053 1047.99 23.712C1048.67 25.376 1049.02 27.0827 1049.02 28.832C1049.02 31.3067 1048.46 33.6533 1047.35 35.872C1046.29 38.048 1044.77 39.8187 1042.81 41.184C1040.85 42.5493 1038.54 43.232 1035.9 43.232H1021.18V60H1016.7ZM1021.18 39.264H1035.7C1037.5 39.264 1039.05 38.7733 1040.38 37.792C1041.7 36.8107 1042.72 35.5307 1043.45 33.952C1044.17 32.3733 1044.54 30.6667 1044.54 28.832C1044.54 26.9547 1044.11 25.2267 1043.26 23.648C1042.4 22.0693 1041.27 20.832 1039.86 19.936C1038.5 18.9973 1036.98 18.528 1035.32 18.528H1021.18V39.264ZM1074.81 60.32C1071.61 60.32 1068.71 59.68 1066.11 58.4C1063.51 57.12 1061.27 55.392 1059.39 53.216C1057.51 50.9973 1056.06 48.5227 1055.04 45.792C1054.01 43.0187 1053.5 40.1813 1053.5 37.28C1053.5 34.2507 1054.03 31.3707 1055.1 28.64C1056.17 25.8667 1057.66 23.4133 1059.58 21.28C1061.54 19.104 1063.83 17.3973 1066.43 16.16C1069.03 14.88 1071.85 14.24 1074.88 14.24C1078.08 14.24 1080.98 14.9013 1083.58 16.224C1086.18 17.5467 1088.4 19.3173 1090.24 21.536C1092.11 23.7547 1093.56 26.2293 1094.59 28.96C1095.61 31.6907 1096.12 34.4853 1096.12 37.344C1096.12 40.3733 1095.59 43.2747 1094.52 46.048C1093.46 48.7787 1091.96 51.232 1090.04 53.408C1088.12 55.5413 1085.86 57.2267 1083.26 58.464C1080.66 59.7013 1077.84 60.32 1074.81 60.32ZM1057.98 37.28C1057.98 39.7547 1058.39 42.144 1059.2 44.448C1060.01 46.7093 1061.16 48.736 1062.65 50.528C1064.15 52.2773 1065.92 53.6853 1067.96 54.752C1070.06 55.776 1072.34 56.288 1074.81 56.288C1077.42 56.288 1079.74 55.7547 1081.79 54.688C1083.88 53.5787 1085.65 52.128 1087.1 50.336C1088.59 48.5013 1089.72 46.4533 1090.49 44.192C1091.26 41.9307 1091.64 39.6267 1091.64 37.28C1091.64 34.8053 1091.24 32.4373 1090.43 30.176C1089.62 27.9147 1088.44 25.888 1086.91 24.096C1085.42 22.304 1083.64 20.896 1081.6 19.872C1079.55 18.848 1077.29 18.336 1074.81 18.336C1072.25 18.336 1069.93 18.8693 1067.84 19.936C1065.79 21.0027 1064.02 22.4533 1062.52 24.288C1061.07 26.08 1059.94 28.1067 1059.13 30.368C1058.36 32.6293 1057.98 34.9333 1057.98 37.28ZM1104.57 60V14.56L1135.03 14.56V18.528H1109.05V34.336H1124.03C1129.02 34.336 1132.71 35.5093 1135.1 37.856C1137.49 40.16 1138.68 43.168 1138.68 46.88C1138.68 49.312 1138.15 51.5307 1137.08 53.536C1136.06 55.4987 1134.48 57.0773 1132.35 58.272C1130.26 59.424 1127.61 60 1124.41 60H1104.57ZM1109.05 56.032H1123.9C1126.37 56.032 1128.36 55.584 1129.85 54.688C1131.34 53.792 1132.43 52.64 1133.12 51.232C1133.8 49.7813 1134.14 48.288 1134.14 46.752C1134.14 45.216 1133.84 43.7867 1133.24 42.464C1132.65 41.0987 1131.58 40.0107 1130.04 39.2C1128.55 38.3467 1126.44 37.92 1123.71 37.92H1109.05V56.032ZM1164.63 60.32C1161.43 60.32 1158.52 59.68 1155.92 58.4C1153.32 57.12 1151.08 55.392 1149.2 53.216C1147.32 50.9973 1145.87 48.5227 1144.85 45.792C1143.83 43.0187 1143.31 40.1813 1143.31 37.28C1143.31 34.2507 1143.85 31.3707 1144.91 28.64C1145.98 25.8667 1147.47 23.4133 1149.39 21.28C1151.36 19.104 1153.64 17.3973 1156.24 16.16C1158.84 14.88 1161.66 14.24 1164.69 14.24C1167.89 14.24 1170.79 14.9013 1173.39 16.224C1176 17.5467 1178.21 19.3173 1180.05 21.536C1181.93 23.7547 1183.38 26.2293 1184.4 28.96C1185.43 31.6907 1185.94 34.4853 1185.94 37.344C1185.94 40.3733 1185.4 43.2747 1184.34 46.048C1183.27 48.7787 1181.78 51.232 1179.86 53.408C1177.94 55.5413 1175.68 57.2267 1173.07 58.464C1170.47 59.7013 1167.65 60.32 1164.63 60.32ZM1147.79 37.28C1147.79 39.7547 1148.2 42.144 1149.01 44.448C1149.82 46.7093 1150.97 48.736 1152.47 50.528C1153.96 52.2773 1155.73 53.6853 1157.78 54.752C1159.87 55.776 1162.15 56.288 1164.63 56.288C1167.23 56.288 1169.55 55.7547 1171.6 54.688C1173.69 53.5787 1175.46 52.128 1176.91 50.336C1178.41 48.5013 1179.54 46.4533 1180.31 44.192C1181.07 41.9307 1181.46 39.6267 1181.46 37.28C1181.46 34.8053 1181.05 32.4373 1180.24 30.176C1179.43 27.9147 1178.26 25.888 1176.72 24.096C1175.23 22.304 1173.46 20.896 1171.41 19.872C1169.36 18.848 1167.1 18.336 1164.63 18.336C1162.07 18.336 1159.74 18.8693 1157.65 19.936C1155.6 21.0027 1153.83 22.4533 1152.34 24.288C1150.89 26.08 1149.76 28.1067 1148.95 30.368C1148.18 32.6293 1147.79 34.9333 1147.79 37.28ZM1225.01 18.528H1208.82V60H1204.34V18.528H1188.15V14.56L1225.01 14.56V18.528ZM1232.08 60V14.56H1236.49V53.856L1264.65 14.56H1268.81V60H1264.4V21.408L1236.56 60H1232.08ZM1280.45 60V14.56L1284.93 14.56V34.784H1291.77L1307.39 14.56H1312.57L1295.49 36.576L1313.66 60H1308.16L1291.9 38.88H1284.93V60H1280.45Z" fill="black"/>
</svg>
