<?xml version="1.0" encoding="UTF-8"?>
<svg id="_Слой_2" data-name="Слой 2" xmlns="http://www.w3.org/2000/svg" viewBox="0 0 1500.36 663.28">
  <defs>
    <style>
      .cls-1 {
        fill: #f3f5f7;
      }

      .cls-2 {
        fill: #f6f8f9;
      }

      .cls-3 {
        fill: #f6fbfd;
      }

      .cls-4 {
        fill: #f6f7f8;
      }

      .cls-5 {
        fill: #f6f7f9;
      }

      .cls-6 {
        fill: #f6f7f7;
      }

      .cls-7 {
        fill: #f7f8f9;
      }

      .cls-8 {
        fill: #f7fbfd;
      }

      .cls-9 {
        fill: #f2f4f6;
      }

      .cls-10 {
        fill: #f2f5f7;
      }

      .cls-11 {
        fill: #f9fdfe;
      }

      .cls-12 {
        fill: #f9fafb;
      }

      .cls-13 {
        fill: #f8fcfe;
      }

      .cls-14 {
        fill: #f8f8f9;
      }

      .cls-15 {
        fill: #f9fbfd;
      }

      .cls-16 {
        fill: #032547;
      }

      .cls-17 {
        fill: #032648;
      }

      .cls-18 {
        fill: #01172e;
      }

      .cls-19 {
        fill: #002242;
      }

      .cls-20 {
        fill: #002445;
      }

      .cls-21 {
        fill: #002343;
      }

      .cls-22 {
        fill: #052748;
      }

      .cls-23 {
        fill: #051d35;
      }

      .cls-24 {
        fill: #042748;
      }

      .cls-25 {
        fill: #02182e;
      }

      .cls-26 {
        fill: #02182f;
      }

      .cls-27 {
        fill: #eef0f1;
      }

      .cls-28 {
        fill: #eef1f3;
      }

      .cls-29 {
        fill: #ebeef1;
      }

      .cls-30 {
        fill: #f0f2f4;
      }

      .cls-31 {
        fill: #eaecee;
      }

      .cls-32 {
        fill: #f4f6f8;
      }

      .cls-33 {
        fill: #e6ebef;
      }

      .cls-34 {
        fill: #e9ecf0;
      }

      .cls-35 {
        fill: #f4f5f7;
      }

      .cls-36 {
        fill: #f4f5f6;
      }

      .cls-37 {
        fill: #f4fafc;
      }

      .cls-38 {
        fill: #f5f9fc;
      }

      .cls-39 {
        fill: #f5f6f8;
      }

      .cls-40 {
        fill: #fafdfe;
      }

      .cls-41 {
        fill: #fcfdfe;
      }

      .cls-42 {
        fill: #e7ecf0;
      }

      .cls-43 {
        fill: #e8ebee;
      }

      .cls-44 {
        fill: #f1f8fc;
      }

      .cls-45 {
        fill: #f1f3f5;
      }

      .cls-46 {
        fill: #fefefe;
      }

      .cls-47 {
        fill: #fbfcfe;
      }

      .cls-48 {
        fill: #edf6fa;
      }

      .cls-49 {
        fill: #eceff2;
      }

      .cls-50 {
        fill: #eef6fa;
      }

      .cls-51 {
        fill: #eff6f7;
      }

      .cls-52 {
        fill: #fdfdfd;
      }

      .cls-53 {
        fill: #b5d0e5;
      }

      .cls-54 {
        fill: #c1d9ec;
      }

      .cls-55 {
        fill: #b4d1e8;
      }

      .cls-56 {
        fill: #31587c;
      }

      .cls-57 {
        fill: #31587b;
      }

      .cls-58 {
        fill: #32597c;
      }

      .cls-59 {
        fill: #31577a;
      }

      .cls-60 {
        fill: #2f577a;
      }

      .cls-61 {
        fill: #2f5578;
      }

      .cls-62 {
        fill: #2f567a;
      }

      .cls-63 {
        fill: #2f5679;
      }

      .cls-64 {
        fill: #b0cde5;
      }

      .cls-65 {
        fill: #adc9df;
      }

      .cls-66 {
        fill: #adcbe4;
      }

      .cls-67 {
        fill: #a7c4dc;
      }

      .cls-68 {
        fill: #a7c4db;
      }

      .cls-69 {
        fill: #b1cfe6;
      }

      .cls-70 {
        fill: #b1cfe7;
      }

      .cls-71 {
        fill: #a9c7df;
      }

      .cls-72 {
        fill: #a9c7de;
      }

      .cls-73 {
        fill: #aecbe1;
      }

      .cls-74 {
        fill: #aecbe3;
      }

      .cls-75 {
        fill: #aec9df;
      }

      .cls-76 {
        fill: #aecce4;
      }

      .cls-77 {
        fill: #afcde5;
      }

      .cls-78 {
        fill: #afcce2;
      }

      .cls-79 {
        fill: #b0cee6;
      }

      .cls-80 {
        fill: #a4c2da;
      }

      .cls-81 {
        fill: #a4c1d9;
      }

      .cls-82 {
        fill: #a6c4dc;
      }

      .cls-83 {
        fill: #bbd2e5;
      }

      .cls-84 {
        fill: #bec7cd;
      }

      .cls-85 {
        fill: #c0cad0;
      }

      .cls-86 {
        fill: #aac7df;
      }

      .cls-87 {
        fill: #dde3e8;
      }

      .cls-88 {
        fill: #d2dce4;
      }

      .cls-89 {
        fill: #acc8df;
      }

      .cls-90 {
        fill: #accae2;
      }

      .cls-91 {
        fill: #dcdfe3;
      }

      .cls-92 {
        fill: #dbdfe2;
      }

      .cls-93 {
        fill: #dfe4e8;
      }

      .cls-94 {
        fill: #abc9e1;
      }

      .cls-95 {
        fill: #c5ced4;
      }

      .cls-96 {
        fill: #dfe2e5;
      }

      .cls-97 {
        fill: #081f37;
      }

      .cls-98 {
        fill: #06284a;
      }

      .cls-99 {
        fill: #0a2138;
      }

      .cls-100 {
        fill: #0f2b46;
      }

      .cls-101 {
        fill: #355b7d;
      }

      .cls-102 {
        fill: #95b3cb;
      }

      .cls-103 {
        fill: #2a4e6f;
      }

      .cls-104 {
        fill: #2c5275;
      }

      .cls-105 {
        fill: #2d5274;
      }

      .cls-106 {
        fill: #2d5375;
      }

      .cls-107 {
        fill: #2d5478;
      }

      .cls-108 {
        fill: #2e5374;
      }

      .cls-109 {
        fill: #2e5578;
      }

      .cls-110 {
        fill: #30587b;
      }

      .cls-111 {
        fill: #30577a;
      }

      .cls-112 {
        fill: #30577b;
      }

      .cls-113 {
        fill: #30567a;
      }

      .cls-114 {
        fill: #385e80;
      }
    </style>
  </defs>
  <g id="_Слой_1-2" data-name="Слой 1">
    <path class="cls-26" d="M377.54,2.3c4.5,2.42,7.74,6.38,9.82,10.98,.74,6.69-1.33,11.49-5,17-.18,2.79-.25,5.48-.22,8.27q0,1.27,0,2.56c0,1.84,0,3.67,.01,5.51,.01,2.92,0,5.84,0,8.76-.03,8.3-.04,16.61-.01,24.91,.02,5.08,0,10.16-.03,15.24,0,1.92,0,3.85,.01,5.77,.1,12.3-1.18,21.93-6.76,32.98,.6,.17,1.2,.34,1.81,.51,14.16,4.1,24.62,14.63,31.63,27.31,2.59,4.93,4.33,9.78,5.56,15.18,.2,.7,.4,1.4,.61,2.12,4.6,17.04,.2,36.41-7.61,51.88-8.15,13.29-19.24,22.15-34.31,26.31-3.34,.62-6.3,.86-9.69,.69-.27,.88-.54,1.75-.81,2.65-9.77,27.55-35.85,46.65-60.19,60.35,.7,.12,1.41,.25,2.13,.38,16.54,3.45,30.98,13.98,40.87,27.62v2c.82-.03,1.64-.07,2.49-.11,17.21-.42,26.34,6.09,38.64,17.55,3.87,3.44,7.99,6.47,12.15,9.55,7.47,5.53,12.97,11.68,18.71,19.01,.83,1.03,1.66,2.05,2.52,3.11,6.03,7.53,11.05,15.32,15.48,23.89,.52,.99,1.04,1.97,1.57,2.99,3.04,6.41,3.86,12.22,4.05,19.23,.14,4.07,.67,7.12,2.45,10.78,5.16,11.31,1.9,25.75-2.06,37-1.63,3.41-3.49,6.17-6,9q-.79,.91-1.6,1.85c-5.55,5.56-12.59,8.2-19.74,11.07-3.08,1.25-6.14,2.54-9.21,3.82-2.36,.98-4.72,1.96-7.07,2.94q-1.66,.7-3.35,1.41c-9.9,4.06-19.9,8.06-30.71,8.16-6.46,.3-9.65,2.77-14.58,6.74-8.72,6.41-19.31,6.72-29.73,7.01,.02,.64,.04,1.27,.06,1.92,.08,2.9,.14,5.8,.19,8.7,.03,1,.07,2,.1,3.03,.08,5.99-.15,9.72-4.35,14.35-1.96,1.77-3.81,3.29-5.94,4.81-.63,.46-1.26,.91-1.9,1.38-8.01,5.64-16.56,10.43-25.04,15.32-7.66,4.42-15.19,8.99-22.62,13.79-7.24,4.67-14.55,9.18-22,13.5-.87,.51-1.73,1.02-2.63,1.55q-8.13,4.65-12.87,4.64-3.07-1.05-6.56-2.88c-.67-.35-1.33-.69-2.02-1.05-10.49-5.57-20.67-11.75-30.88-17.8-5.09-3.01-10.19-5.99-15.31-8.95-7.76-4.5-15.51-9.02-23.16-13.7-.6-.36-1.19-.71-1.81-1.08-1.8-1.12-3.53-2.31-5.26-3.55-.8-.53-1.6-1.06-2.42-1.61-3.69-2.76-6.2-4.79-7.3-9.38-.17-3.38-.07-6.64,.15-10.01,.04-1.16,.08-2.31,.12-3.5,.11-2.84,.25-5.66,.44-8.5-1,.05-2.01,.09-3.04,.14-12.03,.39-21.85-.89-31.77-8.33-5.35-3.81-9.16-4.35-15.64-4.39-15.45-.37-31.12-8.64-45.2-14.47-1.66-.68-3.33-1.34-5-1.98-.88-.34-1.76-.68-2.66-1.03q-1.19-.46-2.41-.92c-9.11-4.07-15.52-11.51-19.42-20.51C.76,488.61,.02,482.27,.05,474.72c-.02-.91-.03-1.81-.05-2.75,0-5.71,1-9.43,3.36-14.69,.23-2.76,.36-5.37,.38-8.12,.65-18.39,11.56-33.86,22.62-47.88,.66-.86,1.32-1.73,2-2.62,7.37-9.52,15.53-17.24,25.26-24.3,2.33-1.77,4.3-3.53,6.3-5.65,5.93-6.2,13.76-12.87,22.44-14.44,2.33-.03,4.67-.05,7-.06q5.18-.26,9.43-2.97c2-2.58,3.79-5.23,5.57-7.96,8.88-10.95,21.81-17.01,35-21-.94-.47-1.89-.95-2.86-1.43-12.81-6.55-23.68-14.67-34.14-24.57-.83-.77-1.67-1.54-2.53-2.33-8.18-7.8-14.66-16.37-19.1-26.79-1.89-3.63-2.74-4.65-6.66-6.01-2.62-.46-5.2-.86-7.83-1.22-13.2-2.19-23.66-11.8-31.36-22.29-2.75-4.26-4.75-8.62-6.52-13.36-.39-1.02-.79-2.04-1.2-3.09-2.79-8.52-3.22-16.68-3.3-25.6-.02-1.13-.04-2.26-.06-3.42,.12-16.07,7.1-31.11,18.17-42.67,6.41-5.97,12.87-10.06,21.39-12.22-.42-.98-.84-1.95-1.28-2.96-.55-1.29-1.11-2.57-1.66-3.86-.28-.64-.56-1.29-.84-1.95-2.47-5.75-3.38-10.23-3.44-16.44-.01-.84-.02-1.67-.04-2.53-.03-1.82-.05-3.63-.07-5.45-.05-3.87-.12-7.74-.18-11.6-.12-7.2-.24-14.4-.32-21.6-.06-5.01-.14-10.02-.24-15.03-.03-1.91-.06-3.81-.07-5.72-.02-2.67-.07-5.35-.13-8.02,0-.78,0-1.56,0-2.36-.16-5.24-1.5-8.38-4.62-12.59-2.04-3.46-1.75-7.03-1.12-10.89,1.84-5.87,5.93-8.86,11-12,5.22-1.74,9.54-1.47,14.69,.19,4.78,2.62,8.27,5.71,10.31,10.81q.3,2.84,.31,5.94c.02,1.02,.03,2.04,.05,3.09-.42,3.44-1.3,5.21-3.36,7.97-.69,.42-1.37,.84-2.08,1.27q-2.18,1.6-2.41,4.39c0,1.07,.01,2.15,.02,3.25,0,1.22,0,2.44,0,3.69,.02,1.32,.04,2.64,.05,4,0,1.37,0,2.74,0,4.11,0,2.87,.03,5.74,.06,8.61,.04,3.67,.06,7.33,.07,11,.01,3.51,.03,7.02,.05,10.53,0,1.31,.01,2.62,.02,3.97q.02,1.85,.04,3.73c0,1.08,.02,2.15,.03,3.26,.16,3.44,.61,6.77,1.15,10.18,.29-.52,.57-1.04,.87-1.57,5.68-10.22,11.3-19.71,19.13-28.43,.64-.77,1.29-1.55,1.95-2.34,5.08-6.02,10.82-10.86,17.05-15.66,.88-.68,1.75-1.36,2.66-2.06,24.49-18.44,55.92-29,86.59-29.14,.97,0,1.94-.01,2.94-.02,2.05,0,4.09-.02,6.14-.02,3.07,0,6.15-.04,9.22-.07,16.24-.09,30.93,1.89,46.52,6.56,1.02,.3,2.04,.61,3.09,.92,34.39,10.53,62.37,32.91,80.1,64.23,.36,.64,.73,1.28,1.1,1.94,.88,1.55,1.76,3.11,2.65,4.66,.16-9.02,.29-18.05,.36-27.07,.04-4.19,.09-8.38,.17-12.57,.08-4.05,.12-8.09,.14-12.14,.01-1.54,.04-3.08,.08-4.62q.51-8.32-2.29-15.83c-1.75-1.48-3.49-2.6-5.45-3.77-2.43-4.02-2.69-8.4-2-13,1.78-5.31,4.24-8.91,9-12,.6-.41,1.2-.82,1.81-1.25,5.62-1.93,11.03-.96,16.37,1.27Z"/>
    <path class="cls-70" d="M223.8,361.97c4.59,0,9.19-.01,13.78-.03,3.59-.01,7.19-.02,10.78-.01,1.69,0,3.39,0,5.08-.02,15.11-.08,30.34,.75,43.16,9.63,14.92,14.92,17.33,42.57,18.12,62.75-.09,4.95-.98,9.58-2.12,14.38-.16,.67-.31,1.33-.48,2.02-2.11,8.04-6.96,13.09-12.71,18.73q-.91,.91-1.84,1.84c-2.56,2.54-5.07,4.92-7.93,7.12-2.64,2.2-4.18,4.43-5.98,7.35q-.87,1.39-1.76,2.81c-2.79,4.95-3.8,8.67-3.86,14.38-.03,1.27-.05,2.53-.08,3.83-.04,2.65-.07,5.3-.09,7.95-.03,1.27-.05,2.53-.08,3.84-.01,1.15-.03,2.3-.04,3.49-.78,6.35-3.87,10.43-8.64,14.4-13.47,9.12-29.42,14.59-45.76,12.87-3.21-.88-6.3-1.96-9.44-3.06-4.31-1.13-8.32-1.27-12.75-1.38-7.38-.24-12.63-1.25-18.81-5.56-1.04-.72-2.09-1.45-3.16-2.19q-9.67-6.93-11.84-10.81-.33-2.8-.25-5.88c.02-1.01,.03-2.02,.05-3.05,.2-3.08,.69-6.03,1.2-9.07,.76-9.78,.06-17.61-5.95-25.59-4.81-5.59-10.16-10.02-16.05-14.41-10.8-8.35-13.23-17.53-15.69-30.69-.72-7.59-.18-14.85,.94-22.38,.13-.91,.27-1.82,.41-2.76,2.39-15.57,5.27-31.61,17.84-42.3,21.58-11.56,50.23-8.22,73.94-8.19Z"/>
    <path class="cls-18" d="M275.78,143.23c4.47-.04,8.93-.07,13.4-.09,1.67,0,3.34-.02,5.01-.04q28.71-.27,39.21,8.97c9.72,10.36,11.31,22.92,11.21,36.59,0,1.06,.02,2.12,.02,3.21-.03,12.12-1.03,21.1-9.75,29.91-10.76,9.72-26.55,8.83-40.14,8.69-1.42,0-2.83-.02-4.25-.03-4.04-.03-8.08-.09-12.12-.16-1.04-.01-2.09-.03-3.16-.04q-21.15-.36-27.27-6.37c-4.48-4.93-7.22-10.38-10.04-16.36-3.3-6.63-7.69-11.2-14.52-14.23-6.02-.54-10.35,1.37-15,5.01-3.74,3.73-5.82,8.36-8.12,13.06-4.06,8.2-7.23,14.09-15.88,17.94-13.76,2.25-27.78,2.21-41.69,2.25-.82,0-1.65,.01-2.49,.02q-26.33,.13-35.82-8.27c-10.92-11.97-9.53-26.95-9.14-42.24,.54-11.02,4.42-20.53,12.45-28.13,8.59-7.18,18.15-7.75,28.94-7.91,1.04-.02,2.09-.04,3.17-.05,3.53-.06,7.06-.11,10.58-.16,2.53-.04,5.06-.08,7.59-.12,8.8-.14,17.61-.26,26.41-.38q1.26-.02,2.55-.03c12.95-.17,25.9-.34,38.85-.49,2.73-.03,5.47-.07,8.2-.1,11.26-.14,22.52-.26,33.78-.35,2.68-.02,5.36-.05,8.03-.07Z"/>
    <path class="cls-79" d="M257.95,128.19c4.62-.04,9.25-.07,13.87-.09,2.17-.01,4.35-.03,6.52-.06,20.68-.24,42,.36,58.02,15.24,13.19,13.05,14.17,26.15,14.31,44.06q-.09,25.73-9.31,34.94c-4.17,2.98-8.54,5.49-13,8-1.68,.98-3.35,1.97-5,3-.66,.39-1.32,.78-2,1.19-5.56,5.03-7.94,11.79-10,18.81-3.52,12.01-10.03,22.09-20.93,28.8-2.02,1.1-4.04,2.19-6.06,3.28-3.34,2.13-5.9,4.66-8.57,7.54-12.5,13.07-32.53,15.17-49.86,15.57-2.32,.03-4.64,.05-6.95,.06-1.11,0-2.21,.02-3.35,.03-8.18-.03-16.19-.19-23.02-5.15-.75-.53-1.5-1.06-2.27-1.61-1.53-1.17-3.02-2.39-4.48-3.64-6.24-4.68-12.98-6.28-20.5-7.81-6.73-1.39-12.35-2.99-18-7.06q-1.52-.99-3.06-2c-9.29-8.29-13.88-22.06-17.8-33.52-3.04-8.86-7.99-12.38-16.02-16.42-7.34-3.69-13.94-7.51-17.61-15.17-4.83-18.06-8.23-40.92,.11-58.58,7.33-12.54,18.38-21.26,32.38-25.31,13.87-2.88,27.47-3.47,41.59-3.51,2.16-.02,4.32-.04,6.48-.05,5.67-.05,11.34-.08,17.01-.1,5.58-.03,11.17-.08,16.75-.12,10.01-.08,20.01-.13,30.02-.16,6.91-.03,13.83-.07,20.74-.14Zm-29.4,15.53q-1.38,.02-2.79,.03c-8.47,.11-16.94,.21-25.41,.32-9.21,.12-18.41,.23-27.62,.32-6.1,.06-12.21,.13-18.31,.21-2.43,.03-4.86,.05-7.29,.07q-22.03-.5-40.78,9.6c-9.89,10.34-11.36,22.13-11.25,35.94,0,1.01-.02,2.01-.02,3.05,.03,10.87,.82,20.59,8.27,29.01,8.79,8.01,17.83,9.15,29.32,9.17,.77,0,1.55,0,2.34,.01,2.49,0,4.97,.01,7.46,0,.85,0,1.69,0,2.57,0,10.07-.02,20.14-.09,30.18-.87,.83-.05,1.67-.11,2.53-.16,6.94-.67,11.91-3.44,16.8-8.37,3.02-4.67,5.37-9.71,7.73-14.74,2.94-5.88,6.23-9.86,12.06-13.04,4-1.26,7.14-1.69,11.14-.21,8.58,4.81,12.69,13.3,16.8,21.84,3.31,6.61,8,10.48,15.01,12.83,3.33,.87,6.63,1.12,10.06,1.22,.79,.03,1.57,.06,2.38,.09,2.87,.1,5.75,.16,8.62,.22,1.24,.03,2.47,.05,3.75,.08q27.77,2.02,52.25-8.08c8.16-7.89,9.93-15.67,10.2-26.73,.02-2.15,.04-4.3,.05-6.46,.02-1.06,.04-2.12,.06-3.21,.06-12.49-2.49-23.84-10.91-33.41-11.41-10.77-27.29-9.34-41.86-9.28-1.73,0-3.47,0-5.2,.01-19.39,.05-38.78,.27-58.16,.52Z"/>
    <path class="cls-22" d="M990.11,296.65c1.82,0,3.64,0,5.46,0,3.8,0,7.6,.01,11.4,.04,4.85,.03,9.69,.03,14.54,0,3.76-.01,7.51,0,11.27,.01,1.79,0,3.57,0,5.36,0,10.93-.02,21.35,.05,30.6,6.76,6.2,6.65,8.77,13.43,8.79,22.41q0,1.16,.02,2.34c.01,2.56,.02,5.12,.03,7.68,0,1.79,.01,3.57,.02,5.36,.01,3.75,.02,7.5,.02,11.25,0,4.78,.03,9.56,.06,14.34,.02,3.69,.02,7.39,.03,11.08,0,1.76,.01,3.52,.02,5.28q.16,23.1-6.41,31.45c-7.54,7.58-15.14,9.16-25.48,9.29-2.73,0-5.45-.01-8.18-.03-1.92,0-3.83,0-5.75,0-4,0-8-.01-12.01-.04-5.12-.03-10.23-.03-15.35,0-3.95,.01-7.91,0-11.86-.01-1.89,0-3.77,0-5.66,0-2.64,0-5.28-.02-7.92-.04-.77,0-1.54,.01-2.33,.02-7.63-.13-13.87-3.33-19.41-8.55-4.82-6.47-6.3-11.44-6.27-19.44,0-.84-.01-1.68-.02-2.54-.01-2.76-.01-5.53-.01-8.29,0-1.93,0-3.85-.01-5.78,0-4.04,0-8.07,0-12.11,0-5.16-.01-10.33-.03-15.49-.01-3.98-.02-7.96-.01-11.94,0-1.9,0-3.81-.02-5.71-.01-2.67,0-5.33,0-8q-.01-1.17-.02-2.37c.07-7.84,2.81-13.67,8.27-19.35,8.97-8.4,19.35-7.71,30.87-7.62Z"/>
    <path class="cls-22" d="M705.11,296.65c1.82,0,3.64,0,5.46,0,3.8,0,7.6,.01,11.4,.04,4.85,.03,9.69,.03,14.54,0,3.76-.01,7.51,0,11.27,.01,1.79,0,3.57,0,5.36,0,10.93-.02,21.35,.05,30.6,6.76,6.2,6.65,8.77,13.43,8.79,22.41q0,1.16,.02,2.34c.01,2.56,.02,5.12,.03,7.68,0,1.79,.01,3.57,.02,5.36,.01,3.75,.02,7.5,.02,11.25,0,4.78,.03,9.56,.06,14.34,.02,3.69,.02,7.39,.03,11.08,0,1.76,.01,3.52,.02,5.28q.16,23.1-6.41,31.45c-7.54,7.58-15.14,9.16-25.48,9.29-2.73,0-5.45-.01-8.18-.03-1.92,0-3.83,0-5.75,0-4,0-8-.01-12.01-.04-5.12-.03-10.23-.03-15.35,0-3.95,.01-7.91,0-11.86-.01-1.89,0-3.77,0-5.66,0-2.64,0-5.28-.02-7.92-.04-.77,0-1.54,.01-2.33,.02-7.63-.13-13.87-3.33-19.41-8.55-4.82-6.47-6.3-11.44-6.27-19.44,0-.84-.01-1.68-.02-2.54-.01-2.76-.01-5.53-.01-8.29,0-1.93,0-3.85-.01-5.78,0-4.04,0-8.07,0-12.11,0-5.16-.01-10.33-.03-15.49-.01-3.98-.02-7.96-.01-11.94,0-1.9,0-3.81-.02-5.71-.01-2.67,0-5.33,0-8q-.01-1.17-.02-2.37c.07-7.84,2.81-13.67,8.27-19.35,8.97-8.4,19.35-7.71,30.87-7.62Z"/>
    <path class="cls-24" d="M561.11,296.65c1.82,0,3.64,0,5.46,0,3.8,0,7.6,.01,11.4,.04,4.85,.03,9.69,.03,14.54,0,3.76-.01,7.51,0,11.27,.01,1.79,0,3.57,0,5.36,0,10.93-.02,21.35,.05,30.6,6.76,5.36,5.75,8.73,12.21,8.79,20.12,0,1.09,.02,2.17,.03,3.29,0,1.17,0,2.35,.01,3.56,0,1.21,.01,2.43,.02,3.67,0,2.57,.02,5.14,.02,7.72,0,3.91,.04,7.82,.07,11.73,0,2.5,.01,5.01,.02,7.51,.01,1.16,.02,2.32,.04,3.51-.02,8.93-.6,18.79-6.99,25.64-.61,.69-1.22,1.38-1.85,2.09-9.02,7.05-18.71,6.56-29.65,6.55-1.76,.01-3.51,.03-5.27,.04-4.6,.04-9.19,.05-13.79,.06-7.38,.02-14.77,.08-22.15,.13-2.58,.02-5.16,.02-7.74,.03-1.57,0-3.14,.01-4.7,.02-.72,0-1.44,0-2.18,0q-3.3-.27-6.04,1.14c-.13,1.54-.2,3.08-.25,4.62-.03,.94-.07,1.87-.1,2.83-.06,1.98-.12,3.97-.17,5.95q-.05,1.4-.1,2.84c-.03,.86-.05,1.73-.08,2.61q-.3,2.14-2.3,4.14-2.12,.26-4.72,.27c-.93,0-1.86,0-2.82,0-.98,0-1.95-.02-2.96-.02q-1.46,.01-2.96,.02c-.93,0-1.86,0-2.82,0-.86,0-1.71,0-2.6,0q-2.12-.26-4.12-2.26-.25-1.85-.26-4.14-.01-1.3-.02-2.63t0-2.89c0-1-.01-2.01-.02-3.04-.01-3.33-.01-6.66-.01-10,0-2.31,0-4.62-.01-6.94,0-4.85,0-9.71,0-14.56,0-6.22-.01-12.43-.03-18.65-.01-4.78-.02-9.56-.01-14.34,0-2.29,0-4.58-.02-6.87-.01-3.21,0-6.42,0-9.63,0-.94-.02-1.89-.02-2.86,.07-8.4,2.37-14.33,8.27-20.46,8.97-8.4,19.35-7.71,30.87-7.62Z"/>
    <path class="cls-17" d="M849.92,296.72c2,0,3.99,0,5.99,0,4.16,0,8.33,.03,12.49,.06,5.34,.05,10.68,.06,16.03,.06,4.11,0,8.23,.02,12.34,.04,1.97,0,3.94,.02,5.91,.02,2.75,0,5.49,.03,8.24,.06,.82,0,1.63,0,2.47,0,3.84,.05,5.7,.12,8.97,2.3q.39,2.11,.4,4.68c0,.93,0,1.85,.01,2.81-.01,.97-.02,1.94-.04,2.94,.01,.97,.02,1.93,.04,2.93,0,.93,0,1.86-.01,2.81,0,.85,0,1.7-.01,2.58q-.39,2.24-1.42,3.85c-3.07,2.16-6.3,1.82-9.92,1.8-.81,0-1.62,.02-2.45,.03-2.67,.03-5.35,.03-8.02,.03-1.85,.01-3.71,.03-5.56,.05-4.88,.04-9.76,.07-14.65,.09-7.82,.04-15.65,.1-23.47,.16-2.74,.02-5.48,.03-8.22,.04-1.67,.01-3.34,.02-5.01,.03q-1.15,0-2.33,0-3.47-.29-6.36,1.15c-.1,1.46-.13,2.93-.13,4.4,0,.89,0,1.78,0,2.7q0,1.4,.01,2.84c0,.93,0,1.87-.01,2.83q0,1.34,0,2.7c0,.82,0,1.64,0,2.49q0,2.11,1.13,4.05c.97,0,1.94,.01,2.95,.02,9.18,.06,18.36,.13,27.54,.22,4.72,.04,9.44,.08,14.16,.11,4.56,.03,9.12,.07,13.67,.12,1.73,.02,3.47,.03,5.21,.03,2.44,0,4.88,.04,7.32,.07,.71,0,1.42,0,2.15,0,7.18,.13,13.91,2.21,19.01,7.44,7.16,8.15,6.84,16.72,6.62,26.98-.05,2.65-.06,5.29-.06,7.94-.01,1.71-.03,3.41-.05,5.12q0,1.17-.01,2.36c-.17,6.77-1.59,13.44-6.62,18.35q-.78,.8-1.57,1.61c-9.77,6.96-19.44,6.23-30.93,6.17-1.92,0-3.84,0-5.76,.01-4.01,0-8.02,0-12.03-.02-5.12-.02-10.25,0-15.37,.01-3.96,.01-7.91,0-11.87,0-1.89,0-3.78,0-5.67,0-2.64,.01-5.29,0-7.93-.03q-1.16,.01-2.34,.02c-7.64-.12-13.88-3.31-19.42-8.54-4.82-6.47-6.3-11.44-6.27-19.44,0-.84-.01-1.68-.02-2.54-.01-2.76-.01-5.53-.01-8.29,0-1.93,0-3.85-.01-5.78,0-4.04,0-8.07,0-12.11,0-5.16-.01-10.33-.03-15.49-.01-3.98-.02-7.96-.01-11.94,0-1.9,0-3.81-.02-5.71-.01-2.67,0-5.33,0-8q-.01-1.17-.02-2.37c.07-7.84,2.81-13.68,8.28-19.35,9.38-8.82,20.63-7.68,32.68-7.55Z"/>
    <path class="cls-26" d="M416.36,517.28l2,1c-9.94,11.73-20.02,23.23-31,34-2.84,2.83-5.67,5.67-8.49,8.52-6.33,6.38-12.62,12.7-19.51,18.48-1.01,.87-2.02,1.75-3.03,2.62-35.86,31.07-83.39,71.95-130.97,81.38-40.51-6.92-81.48-37.13-113-62-1.15-.89-2.3-1.78-3.45-2.67-10.79-8.37-21.21-17.12-31.31-26.3-1.95-1.77-3.93-3.5-5.93-5.21-15.87-13.9-30.34-29.02-44.31-44.81,.33-.66,.66-1.32,1-2,.68,.3,1.36,.59,2.05,.9,3.21,1.4,6.42,2.78,9.63,4.16,1.18,.51,2.35,1.01,3.56,1.54,7.29,3.09,14.54,5.66,22.12,7.9,9.6,2.94,14.77,7.26,21.62,14.5,1.79,1.53,3.6,3.03,5.44,4.5,3.41,2.74,6.78,5.53,10.1,8.38,8.22,7.06,16.8,13.62,25.47,20.12,.64,.48,1.27,.96,1.93,1.45,25.54,19.19,52.88,36.65,81.82,50.23,.93,.45,1.86,.89,2.82,1.35,.88,.4,1.76,.81,2.67,1.22q1.16,.54,2.35,1.09c4.94,1.32,9.13-.46,13.55-2.66,.96-.48,1.92-.95,2.91-1.44,1.02-.52,2.03-1.04,3.08-1.57,1.07-.54,2.13-1.08,3.23-1.64,36.29-18.61,69.08-43.22,99.99-69.64,1.77-1.51,3.55-3.01,5.32-4.51,5.42-4.59,10.75-9.16,15.71-14.26,5.64-5.72,10.36-8.67,18.12-10.89,9.4-2.88,18.28-6.54,27.21-10.64q1.39-.63,2.8-1.27c.82-.38,1.64-.76,2.48-1.15q.99-.34,2.01-.69Z"/>
    <path class="cls-70" d="M218.75,48.1c2.23,0,4.47-.02,6.7-.04,1.44,0,2.88,0,4.32,0,1.29,0,2.58,0,3.9-.01,3.82,.25,7.04,1.08,10.68,2.24,1.68,.36,3.37,.69,5.06,1,2.74,.53,5.23,1.1,7.88,2,2.84,.93,5.36,1.34,8.31,1.75,10.07,1.8,16.04,7.16,22.45,14.81,2.37,2.51,4.68,4.09,7.61,5.88,4.85,3.19,6.24,6.15,7.81,11.65,1.21,4.04,3.11,7.66,5.02,11.41,1.01,2.97,.87,4.56-.14,7.51-5.78,3.31-12.74,3.15-19.23,3.19-.81,0-1.61,.02-2.44,.03-1.75,.02-3.5,.03-5.25,.05-2.81,.02-5.63,.05-8.44,.08-5.01,.05-10.02,.09-15.03,.14-8.85,.08-17.69,.16-26.54,.24q-1.45,.01-2.94,.03c-14.47,.14-28.93,.45-43.39,.87-9.86,.28-19.69,.44-29.56,.3q-1.51-.02-3.04-.04c-3.91-.05-7.81-.11-11.72-.21-14.86-.33-28.1-.06-39.97,10.19q-1.45,1.14-3.45,1.14c-.25,.54-.5,1.07-.75,1.62-1.55,2.94-3.38,5.63-5.25,8.38q-1-2-.36-4.48c5.04-13.58,12.88-25.59,22.36-36.52,.7-.82,1.39-1.63,2.11-2.48,11.84-13.56,25.08-23.86,41.89-30.52,1.06-.42,2.12-.84,3.21-1.27,11.28-4.11,22.94-6.01,34.79-7.73l2.11-.32c7.06-.95,14.17-.86,21.28-.86Z"/>
    <path class="cls-24" d="M1240.71,296.88c.83,0,1.67,0,2.53-.01q1.3,.02,2.63,.04c.87-.01,1.74-.02,2.63-.04q1.25,0,2.53,.01t2.31,.01c2.74,.52,3.42,1.1,5.04,3.39,.28,2.7,.38,5.17,.34,7.87q0,1.2,0,2.42c0,2.65-.03,5.29-.05,7.94,0,1.83,0,3.67-.01,5.5-.01,4.83-.04,9.66-.07,14.49-.03,4.93-.04,9.85-.06,14.78-.03,9.67-.08,19.33-.15,29,3.75-1.25,4.65-2.78,7.06-5.88,3.2-4.01,6.46-7.86,9.94-11.62,3.29-3.58,6.45-7.22,9.5-11,3.84-4.76,7.89-9.26,12.03-13.75,2.41-2.69,4.7-5.44,6.97-8.25,3.83-4.75,7.88-9.25,12.02-13.73,2.48-2.76,4.79-5.61,7.1-8.52,.75-.9,1.5-1.8,2.27-2.72q2.08-2.43,3.7-4.77c2.59-3.05,4.71-4.52,8.75-5.09q16.63-1.2,20.26,1.55c1.83,2.34,1.77,3.72,1.77,6.67,0,1.01,.02,2.02,.03,3.06,0,1.11-.01,2.21-.02,3.35,0,1.17,.01,2.33,.02,3.53,.01,3.87,0,7.73,0,11.6,0,2.68,0,5.36,0,8.04,0,5.62,0,11.24-.02,16.86-.02,6.5-.01,13,0,19.49,.01,5.58,.02,11.15,0,16.73,0,3.33,0,6.66,0,10,0,3.71,0,7.43-.02,11.14,0,1.11,.01,2.21,.02,3.35,0,1.01-.02,2.02-.03,3.06,0,.88,0,1.76,0,2.66-.46,2.71-1.21,3.59-3.38,5.23q-2.13,.39-4.56,.4c-.88,0-1.76,0-2.66,.01q-1.37-.02-2.77-.04-1.37,.02-2.77,.04c-.88,0-1.76,0-2.66-.01q-1.2,0-2.43-.01c-2.81-.51-3.48-1.05-5.13-3.39-.28-2.7-.38-5.17-.34-7.87q0-1.2,0-2.42c0-2.65,.03-5.29,.05-7.94,0-1.83,0-3.67,.01-5.5,.01-4.83,.04-9.66,.07-14.49,.03-4.93,.04-9.85,.06-14.78,.03-9.67,.08-19.33,.15-29-8.07,8.04-15.61,16.41-22.75,25.29-2.33,2.82-4.77,5.52-7.25,8.21-3.29,3.58-6.45,7.22-9.5,11-3.84,4.76-7.9,9.26-12.04,13.75-2.39,2.66-4.66,5.39-6.9,8.18-3.37,4.17-6.84,8.21-10.44,12.19q-.7,.78-1.41,1.58c-2.83,3.09-4.66,4.66-8.95,4.94-2.78,.02-5.55,.04-8.33,.04q-1.46,.02-2.94,.04c-.93,0-1.85,0-2.81,0q-1.28,0-2.58,.01-2.11-.24-4.11-2.24-.25-2.13-.26-4.81c0-1.02-.01-2.03-.02-3.08,0-1.12,0-2.24,0-3.39,0-1.18-.01-2.35-.02-3.56-.01-3.23-.01-6.46-.01-9.69,0-2.69,0-5.39,0-8.08-.01-6.35-.01-12.71,0-19.06,0-6.56,0-13.12-.03-19.68-.02-5.63-.02-11.26-.02-16.88,0-3.36,0-6.73-.01-10.09-.01-3.75,0-7.5,0-11.25,0-1.12-.02-2.24-.02-3.39,0-1.02,.01-2.04,.02-3.09,0-.89,0-1.77,0-2.69,.76-4.56,3.43-5.63,7.72-5.65Z"/>
    <path class="cls-16" d="M1383.83,297.02c.88,0,1.76,0,2.67,0,.92,0,1.85,.02,2.8,.02,.92,0,1.84-.02,2.79-.02q1.33,0,2.68,0c.81,0,1.62,0,2.45,0q2.14,.26,5.14,2.26,.39,1.97,.42,4.42,.02,1.37,.05,2.77c0,.99,0,1.98,0,3,.02,1.01,.03,2.03,.05,3.07,.05,3.25,.08,6.49,.1,9.74,.04,3.25,.08,6.49,.12,9.74,.03,2.02,.05,4.05,.06,6.07,.01,.91,.02,1.83,.03,2.77q0,1.21,.02,2.44,.02,2.05,1.14,3.97c3.25,.06,6.5,.09,9.75,.12,.92,.02,1.84,.03,2.79,.05,.89,0,1.78,.01,2.7,.02q1.23,.02,2.48,.03c3.76-.37,5.75-1.63,8.26-4.41,.69-.89,1.38-1.78,2.09-2.7,3.34-4.2,6.78-8.21,10.44-12.12,3.45-3.71,6.77-7.49,9.94-11.44,3.52-4.37,7.2-8.56,11-12.69,.52-.57,1.04-1.14,1.58-1.72q4.73-5.1,8.78-5.26,1.74,0,3.52,.02c1.26,0,2.51,0,3.81,0,1.32,0,2.64,.02,4,.03,1.34,0,2.68,0,4.02,.01,3.29,.01,6.57,.03,9.86,.05q.6,1.86,1,4-1.55,2.19-3.88,4.56c-3.34,3.53-6.52,7.08-9.56,10.88-3.86,4.78-7.94,9.3-12.1,13.82-3.17,3.53-6.12,7.21-9.09,10.91-1.74,2.07-3.48,4.01-5.35,5.95-.5,.52-1.01,1.05-1.52,1.59-1.43,1.47-2.87,2.93-4.32,4.38-2.64,3.53-3.34,5.52-3.19,9.92,1.58,2.32,2.88,3.87,4.88,5.75,1.03,1.04,2.06,2.09,3.08,3.14q.77,.78,1.56,1.58c2.16,2.25,4.1,4.66,6.04,7.1,3.03,3.77,6.16,7.38,9.44,10.94,4.08,4.44,7.91,9.02,11.68,13.72,1.66,1.99,3.33,3.89,5.1,5.77,.46,.49,.93,.98,1.4,1.49,1.31,1.38,2.62,2.74,3.94,4.1q1.87,2.41,1.87,6.41c-4.18,.12-8.36,.21-12.54,.27-1.42,.03-2.84,.06-4.26,.1-2.05,.06-4.09,.09-6.14,.11l-3.73,.08c-4.25-.73-5.59-2.32-8.32-5.57-.5-.52-1.01-1.05-1.53-1.59-5.96-6.38-11.71-12.84-17.18-19.65-3.01-3.63-6.19-7.08-9.39-10.54-2.55-2.75-5.05-5.53-7.46-8.41q-2.13-2.82-4.44-3.81c-1.58-.1-3.17-.13-4.75-.13-.94,0-1.87,0-2.84,0q-1.47,0-2.97,.01t-2.98-.01c-.94,0-1.87,0-2.83,0-.86,0-1.72,0-2.61,0q-2.01-.09-3.01,1.13c-.11,1.43-.16,2.87-.17,4.3-.01,.91-.03,1.83-.04,2.77-.01,.99-.02,1.99-.03,3.01-.03,2.08-.07,4.17-.1,6.25-.05,3.3-.09,6.61-.13,9.91-.04,3.18-.09,6.35-.14,9.53,0,.99-.02,1.99-.03,3.01-.02,.92-.03,1.84-.05,2.78-.01,.81-.02,1.62-.03,2.45q-.27,1.98-2.27,3.98-2.12,.26-4.72,.27c-.93,0-1.86,0-2.82,0-.98,0-1.95-.02-2.96-.02q-1.46,.01-2.96,.02c-.93,0-1.86,0-2.82,0-.86,0-1.71,0-2.6,0q-2.12-.26-4.12-2.26-.25-2.15-.25-4.86c0-1.03-.01-2.05-.02-3.11,0-1.13,0-2.26,.01-3.43,0-1.19,0-2.37-.01-3.6,0-3.26,0-6.52,0-9.78,0-3.41,0-6.82,0-10.22,0-5.72,0-11.45,.01-17.17,.01-6.62,0-13.24,0-19.87,0-5.68-.01-11.36,0-17.04,0-3.39,0-6.79,0-10.18,0-3.78,0-7.57,.01-11.35,0-1.13,0-2.26-.01-3.43,0-1.03,.01-2.05,.02-3.11,0-.9,0-1.79,0-2.71,.51-4.31,2.98-4.4,6.72-4.41Z"/>
    <path class="cls-98" d="M1098.18,297.02c1.02,0,2.03-.01,3.08-.02,1.12,0,2.24,0,3.39,0q1.76,0,3.56-.02c3.23-.01,6.46-.01,9.69-.01,2.69,0,5.39,0,8.08,0,6.35-.01,12.71-.01,19.06,0,6.56,0,13.12,0,19.68-.03,5.63-.02,11.26-.02,16.88-.02,3.36,0,6.73,0,10.09-.01,3.75-.01,7.5,0,11.25,0,1.12,0,2.24-.02,3.39-.02,1.02,0,2.04,.01,3.09,.02,.89,0,1.77,0,2.69,0,2.72,.45,3.61,1.2,5.25,3.37q.39,2.13,.4,4.56c0,.88,0,1.76,.01,2.66-.01,.92-.02,1.83-.04,2.77,.01,.92,.02,1.83,.04,2.77,0,.88,0,1.76-.01,2.66,0,.8,0,1.61-.01,2.43-.49,2.7-1.25,3.44-3.39,5.13q-2.1,.39-4.55,.42c-.92,.02-1.83,.03-2.78,.05-.99,0-1.98,0-2.99,0-1.01,.02-2.03,.03-3.07,.05-3.24,.05-6.49,.08-9.73,.1-3.25,.04-6.5,.08-9.75,.12-2.02,.03-4.05,.05-6.07,.06-.91,.01-1.82,.02-2.76,.03q-1.21,0-2.44,.02-1.86-.06-2.85,1.14c-.11,2.97-.16,5.92-.17,8.89q-.01,1.4-.02,2.83c-.01,2.03-.03,4.07-.04,6.1-.02,3.21-.04,6.43-.06,9.64-.07,9.14-.13,18.28-.18,27.42-.03,5.58-.07,11.17-.12,16.75-.02,2.13-.03,4.27-.04,6.4-.01,2.98-.04,5.96-.06,8.94,0,.89,0,1.78,0,2.69q-.07,6.1-2.3,8.33-2.12,.26-4.72,.27c-.93,0-1.86,0-2.82,0-.98,0-1.95-.02-2.96-.02q-1.46,.01-2.96,.02c-.93,0-1.86,0-2.82,0-.86,0-1.71,0-2.6,0q-2.12-.26-4.12-2.26c-.22-3.07-.31-6.06-.32-9.13-.01-.95-.02-1.89-.03-2.87-.03-3.14-.05-6.28-.06-9.41-.02-2.17-.04-4.34-.06-6.52-.05-5.72-.09-11.45-.13-17.17-.04-5.84-.09-11.68-.14-17.51-.1-11.46-.18-22.92-.26-34.38-.57,0-1.14-.01-1.73-.02-5.92-.06-11.84-.15-17.76-.24-2.21-.03-4.42-.06-6.63-.08-3.18-.03-6.35-.09-9.52-.14-.99,0-1.98-.01-3-.02-.92-.02-1.84-.04-2.79-.06-.81-.01-1.62-.02-2.46-.03-2.61-.49-3.51-1.31-5.11-3.4q-.37-2.24-.36-4.82c0-.93,0-1.86,0-2.81,.02-.97,.03-1.93,.05-2.93,0-.97,0-1.94,0-2.94q.07-9.74,7.14-9.75Z"/>
    <path class="cls-46" d="M981.84,324.52c1.27,0,2.54,0,3.85,0q1.05,0,2.12,0c2.32,0,4.64,0,6.97,.02,1.61,0,3.22,0,4.83,0,3.37,0,6.75,0,10.12,.02,4.33,.02,8.67,.02,13,.02,3.32,0,6.64,0,9.97,.01,1.6,0,3.2,0,4.8,0,2.23,0,4.46,.01,6.69,.02,1.27,0,2.54,0,3.85,.01q2.84,.13,3.84,1.13c.1,2.23,.14,4.46,.15,6.69,0,.7,0,1.4,.01,2.12,0,2.32,.01,4.64,.01,6.97,0,1.61,0,3.22,.01,4.82,0,3.38,0,6.75,0,10.13,0,4.33,.01,8.66,.03,13,.01,3.32,.01,6.64,.01,9.97,0,1.6,0,3.2,.01,4.79,0,2.23,0,4.46,0,6.69,0,1.27,0,2.54,0,3.85q-.25,2.97-2.25,4.97-2.92,.25-6.71,.26c-.69,0-1.38,0-2.09,.01-2.28,0-4.57,0-6.85,0-1.58,0-3.17,0-4.75,0-3.32,0-6.64,0-9.97-.01-4.26-.01-8.53,0-12.79,0-3.27,0-6.54,0-9.82,0-1.57,0-3.15,0-4.72,0-2.2,0-4.39,0-6.59-.01-1.25,0-2.5,0-3.79,0q-2.92-.25-4.92-2.25-.25-2.92-.26-6.71c0-.69,0-1.38-.01-2.09,0-2.28,0-4.57,0-6.85,0-1.58,0-3.17,0-4.75,0-3.32,0-6.64,.01-9.97,.01-4.26,0-8.53,0-12.79,0-3.27,0-6.54,0-9.82,0-1.57,0-3.15,0-4.72,0-2.2,0-4.39,.01-6.59,0-1.25,0-2.5,0-3.79,.35-4.06,1.16-4.83,5.22-5.17Z"/>
    <path class="cls-46" d="M696.33,323.04c1.27,0,2.54,0,3.85,0q1.05,0,2.12,0c2.32,0,4.64,0,6.97,.02,1.61,0,3.22,0,4.83,0,3.37,0,6.75,0,10.12,.02,4.33,.02,8.67,.02,13,.02,3.32,0,6.64,0,9.97,.01,1.6,0,3.2,0,4.8,0,2.23,0,4.46,.01,6.69,.02,1.27,0,2.54,0,3.85,.01q2.84,.13,3.84,1.13c.1,2.23,.14,4.46,.15,6.69,0,.7,0,1.4,.01,2.12,0,2.32,.01,4.64,.01,6.97,0,1.61,0,3.22,.01,4.82,0,3.38,0,6.75,0,10.13,0,4.33,.01,8.66,.03,13,.01,3.32,.01,6.64,.01,9.97,0,1.6,0,3.2,.01,4.79,0,2.23,0,4.46,0,6.69,0,1.27,0,2.54,0,3.85q-.25,2.97-2.25,4.97-2.92,.25-6.71,.26c-.69,0-1.38,0-2.09,.01-2.28,0-4.57,0-6.85,0-1.58,0-3.17,0-4.75,0-3.32,0-6.64,0-9.97-.01-4.26-.01-8.53,0-12.79,0-3.27,0-6.54,0-9.82,0-1.57,0-3.15,0-4.72,0-2.2,0-4.39,0-6.59-.01-1.25,0-2.5,0-3.79,0q-2.92-.25-4.92-2.25-.25-2.92-.26-6.71c0-.69,0-1.38-.01-2.09,0-2.28,0-4.57,0-6.85,0-1.58,0-3.17,0-4.75,0-3.32,0-6.64,.01-9.97,.01-4.26,0-8.53,0-12.79,0-3.27,0-6.54,0-9.82,0-1.57,0-3.15,0-4.72,0-2.2,0-4.39,.01-6.59,0-1.25,0-2.5,0-3.79,.35-4.06,1.16-4.83,5.22-5.17Z"/>
    <path class="cls-25" d="M367.36,274.28c5.54,.31,9.2,1.93,13.56,5.19,.6,.44,1.19,.88,1.81,1.33,11.59,8.79,20.94,19.16,28.63,31.48q.92,1.39,1.86,2.81c12.4,19.71,16.43,42.06,14.89,65.02q-.74,3.16-2.8,4.6c-.64,.19-1.28,.37-1.94,.56-4.05-3.45-7.94-6.91-11.56-10.81-9.12-9.16-20.57-14.9-32.09-20.43-5.92-2.9-11.15-6.2-16.41-10.14-5.4-4.04-11.13-7.33-17.04-10.57-2.83-1.55-5.66-3.13-8.48-4.7-1.42-.79-2.84-1.58-4.27-2.37-2.67-1.49-4.98-2.8-7.15-4.97,.1-2.87,.88-3.88,2.94-5.88,2.52-1.75,5.02-3.24,7.69-4.75,13.1-7.8,23.12-19.57,28.72-33.77q.66-1.61,1.66-2.61Z"/>
    <path class="cls-18" d="M74.36,277.28c.45,.94,.9,1.89,1.36,2.86,7.7,15.59,18.97,28.12,34.73,36.04,2.1,1.21,3.51,2.12,4.91,4.11q.14,2.42-1,5c-2.42,1.68-4.64,2.99-7.25,4.31-1.47,.79-2.94,1.58-4.41,2.37q-1.1,.59-2.23,1.18c-6.87,3.71-13.47,7.87-19.73,12.55-6.98,5.2-14.31,9.42-21.95,13.59-12.92,7.08-25.77,14.78-34.56,26.94q-1.88,2.06-4.5,2.56-2.38-.5-4.38-3.5c-.45-4.05-.33-8.12-.31-12.19,0-1.18,.01-2.35,.02-3.57,.34-24.83,9.63-49.6,26.3-68.24,.69-.82,1.37-1.63,2.08-2.47q18.88-21.98,30.92-21.53Z"/>
    <path class="cls-52" d="M552.33,323.04c1.27,0,2.54,0,3.85,0q1.05,0,2.12,0c2.32,0,4.64,0,6.97,.02,1.61,0,3.22,0,4.83,0,3.37,0,6.75,0,10.12,.02,4.33,.02,8.67,.02,13,.02,3.32,0,6.64,0,9.97,.01,1.6,0,3.2,0,4.8,0,2.23,0,4.46,.01,6.69,.02,1.27,0,2.54,0,3.85,.01q2.84,.13,3.84,1.13c.1,1.46,.14,2.93,.15,4.4,0,.93,.01,1.87,.02,2.83,0,1.02,0,2.03,0,3.08q0,1.56,.01,3.14c0,2.2,0,4.4,0,6.59,0,3.37,.02,6.75,.04,10.12,0,2.13,0,4.26,0,6.39,0,1.01,.01,2.03,.02,3.07,0,.94,0,1.88,0,2.84,0,.83,0,1.65,0,2.51q-.25,2.02-2.25,4.02-2.92,.26-6.71,.27c-.69,0-1.38,.01-2.09,.02-2.28,.01-4.57,.01-6.85,.01-1.58,0-3.17,0-4.75,.01-3.32,0-6.64,0-9.97,0-4.26,0-8.53,.01-12.79,.03-3.27,.01-6.54,.02-9.82,.01-1.57,0-3.15,0-4.72,.02-2.2,.01-4.39,0-6.59,0-1.25,0-2.5,0-3.79,0-.96-.12-1.93-.25-2.92-.37-2.09-3.14-2.25-3.86-2.26-7.44,0-.89-.01-1.79-.02-2.71,0-.96,0-1.93,.01-2.92,0-.99,0-1.98,0-3,0-2.09,0-4.18,.01-6.28,.01-3.21,0-6.42-.01-9.63,0-2.03,0-4.06,0-6.09,0-.96,0-1.93-.01-2.92,0-.89,.01-1.78,.02-2.7q0-1.18,0-2.38c.46-3.48,1.91-3.9,5.22-4.18Z"/>
    <path class="cls-60" d="M240.36,49.28c30.03,1.06,59.14,12.82,80.02,34.73,11.29,12.91,25.02,28.96,27.98,46.27q-.99-1.05-2-2.12c-11.15-11-23.22-14.04-38.56-14-1.06,0-2.11,0-3.2,0-3.51,0-7.02,0-10.54,0-2.48,0-4.96,0-7.45,0-6.63,0-13.27,0-19.9,0-3.42,0-6.83,0-10.25,0q-47.16,.02-94.31,.47c-1.96,.03-3.92,.05-5.87,.07-11.42,.14-22.79,.39-34.16,1.46-.79,.07-1.59,.14-2.4,.22-6.73,.72-12.36,2.74-18.36,5.9l-4,2v-2c13.63-12.47,29.13-12.66,46.44-12.25,3.92,.07,7.83,.12,11.75,.17,1.05,.01,2.09,.03,3.17,.04,9.62,.1,19.23-.14,28.85-.42,14.59-.42,29.17-.67,43.76-.79,1.94-.02,3.88-.03,5.83-.05,7.88-.07,15.77-.13,23.65-.18,4.93-.03,9.85-.07,14.78-.12,1.85-.02,3.69-.03,5.54-.04,2.56-.01,5.11-.04,7.67-.06,.74,0,1.48,0,2.24,0,5.85-.08,12.04-.65,17.33-3.3-.48-4.68-1.92-8.32-3.92-12.51q-1.08-2.49-1.84-5.23c-2.08-7.37-5.13-10.23-11.5-14.36-2.63-1.83-4.32-3.54-6.3-6.03-6.8-8.15-14.96-10.61-25.12-12.23-2.94-.57-4.71-1.31-7.32-2.64-2.07-.43-4.16-.81-6.25-1.12-1.08-.17-2.16-.34-3.27-.51-.82-.12-1.64-.24-2.48-.37v-1Z"/>
    <path class="cls-79" d="M295.36,538.28c2.87,.57,3.86,.86,6,3,.45,3.58,.32,7.2,.31,10.81,.02,1,.03,2,.05,3.03,0,.97,0,1.93,0,2.93,0,.88,0,1.77,0,2.68-.6,4.13-2.28,6.67-5.49,9.28-.81,.51-1.62,1.02-2.46,1.54-.91,.57-1.81,1.15-2.74,1.74-.97,.59-1.93,1.19-2.93,1.8-1,.62-1.99,1.24-3.02,1.88q-39.35,24.31-56.73,24.31c-3.01-6.51-4.21-12.84-3-20,1.92-3.89,3.03-5.62,7.11-7.21,1.2-.24,2.4-.48,3.64-.72,18.33-4.17,36.08-13.83,50.25-26.06,.87-.68,1.73-1.36,2.62-2.06,2.54-2.08,4.41-4.32,6.38-6.94Z"/>
    <path class="cls-69" d="M149.36,539.28q1.39,1.21,2.81,2.44c.65,.55,1.29,1.1,1.96,1.66,1.54,1.31,3.06,2.64,4.58,3.98,7.62,6.56,15.76,11.32,24.65,15.91,.69,.36,1.38,.72,2.09,1.09,8.77,4.53,17.35,7.98,27.02,10.1,3.51,.83,5.69,1.63,8.37,4.09,2.94,5.27,2.36,11.55,.83,17.28-.69,1.85-1.49,3.65-2.32,5.44-22.12-1.35-44.31-15.17-62.6-26.53-1.57-.96-3.17-1.9-4.78-2.79-.73-.41-1.45-.83-2.2-1.25-.64-.35-1.28-.7-1.93-1.06-2.61-2.39-2.42-5.43-2.66-8.81-.07-2.73-.11-5.45-.14-8.18-.03-.95-.06-1.91-.09-2.89,0-.92-.02-1.83-.03-2.77-.01-.83-.03-1.66-.04-2.52q.47-2.19,2.5-3.98,.98-.6,1.97-1.21Z"/>
    <path class="cls-52" d="M839.33,373.04c1.27,0,2.54,0,3.85,0q1.05,0,2.12,0c2.32,0,4.64,0,6.97,.02,1.61,0,3.22,0,4.83,0,3.37,0,6.75,0,10.12,.02,4.33,.02,8.67,.02,13,.02,3.32,0,6.64,0,9.97,.01,1.6,0,3.2,0,4.8,0,2.23,0,4.46,.01,6.69,.02,1.27,0,2.54,0,3.85,.01q2.84,.13,3.84,1.13c.25,3.64,.19,7.29,.19,10.94,.01,1.03,.02,2.06,.04,3.12,0,.98,0,1.96,0,2.97,0,.9,0,1.81,.01,2.74q-.24,2.23-2.24,4.23-2.92,.25-6.71,.26-1.03,0-2.09,.01c-2.28,0-4.57,0-6.85,0-1.58,0-3.17,0-4.75,0-3.32,0-6.64,0-9.97-.01-4.26-.01-8.53,0-12.79,0-3.27,0-6.54,0-9.82,0-1.57,0-3.15,0-4.72,0-2.2,0-4.39,0-6.59-.01q-1.88,0-3.79,0-2.92-.25-4.92-2.25-.26-2.12-.27-4.72c0-.93,0-1.86,0-2.82,0-.98,.02-1.95,.02-2.96,0-.98-.02-1.95-.02-2.96,0-.93,0-1.86,0-2.82,0-.86,0-1.71,0-2.6,.44-3.59,1.76-4.08,5.23-4.37Z"/>
    <path class="cls-57" d="M96.36,221.28c1.01,.82,2.02,1.65,3.06,2.5,4.51,3.43,9.37,5.93,14.48,8.34,8.28,4.13,12.01,10.31,14.96,18.84,.59,1.6,1.18,3.19,1.77,4.78q.43,1.16,.87,2.34c1.91,4.92,4.28,9.59,6.85,14.19,.37,.67,.75,1.35,1.13,2.04,4.45,7.07,11.53,11.65,19.55,13.65,2.1,.45,4.21,.89,6.31,1.31,8.9,1.99,16.03,3.91,23,10,1.46,1.11,2.94,2.2,4.44,3.25,.66,.48,1.32,.96,2,1.45,7.48,3.78,15.73,3.65,23.94,3.61,1.14,0,2.28,0,3.46-.01,17.32-.23,39.61-1.69,52.49-14.63q1.23-1.29,2.49-2.61c3.35-3.48,6.29-5.88,10.62-8,10.6-5.35,17.74-13.89,21.56-25.06,.61-1.9,1.21-3.81,1.81-5.71,3.29-10.38,6.75-16.41,16.44-21.77,3.04-1.68,5.95-3.52,8.87-5.39,.93-.6,1.86-1.19,2.82-1.8q1.02-.65,2.05-1.32c0,4.14-1.1,5.03-4,8-4.38,3.02-8.71,5.97-14,7-.16,.73-.32,1.45-.48,2.2-5.07,21.87-17.15,42.09-36.41,54.33-17.12,10.49-35.39,19.6-55.9,19.63q-1.11,0-2.23,.01c-1.56,0-3.11,0-4.67,0-2.34,0-4.68,.02-7.02,.04-24.08,.09-45.62-7.24-65.29-21.22-.83-.58-1.65-1.16-2.5-1.76-16.49-12.33-26.1-29.66-31.5-49.24v-2c-1.28-.31-2.56-.62-3.88-.94-6.22-2.06-10.84-6.19-15.12-11.06q-1.29-2.79-2-5Z"/>
    <path class="cls-110" d="M130.36,434.28h1c.17,1.04,.34,2.08,.52,3.15,2.71,15.89,6.26,24.1,19.55,33.85,8.81,6.53,14.45,13.53,17.94,24,.1,2.1,.13,4.21,.12,6.31q0,1.66,0,3.36c-.13,3.2-.59,6.17-1.13,9.32-.16,2.02-.26,4.04-.31,6.06-.04,1-.07,2-.11,3.04,.64,4.34,2.67,6.53,6.08,9.2,1.9,1.35,3.83,2.63,5.78,3.89,.66,.44,1.31,.88,1.99,1.33,6.46,4.24,11.28,5.7,19.08,5.86,5.78,.2,10.74,.76,16.25,2.69,15.09,5.2,29.41,.71,43.22-5.87,5.95-2.97,12.09-6.19,15.1-12.4,1.07-3.22,1.15-5.81,1.13-9.2q.02-1.86,.04-3.75c0-2.57,0-5.15-.02-7.72,.16-11.79,3.86-20.72,11.94-29.33,2.49-2.42,5.09-4.69,7.73-6.95,10.64-9.23,14.87-16.97,17.12-30.84h1c.04,3.4,.06,6.78,.02,10.18-.01,2.32,.03,4.64,.18,6.95,.05,3.01-.05,5.07-1.2,7.87-2.78,2.24-5.61,3.74-8.79,5.34-10.21,5.27-16.6,14.27-20.38,24.98-.96,4.25-1.16,8.15-1.14,12.49-.02,.74-.03,1.49-.05,2.25,0,6.04,1.39,11.25,3.36,16.94-21.04,17.17-44.03,29.5-72.12,26.69-18.69-2.51-34.3-9.93-48.88-21.69-.94-.75-1.87-1.5-2.84-2.27-.71-.57-1.43-1.14-2.16-1.73,.52-2.76,1.11-5.33,2-8,.87-13.74,.45-26.99-8.96-37.95-5.99-6.02-12.35-10.59-20.11-14.05-5.06-5.26-3.06-16.76-3-23.63,0-1,0-2.01,.01-3.04,.01-2.44,.03-4.89,.05-7.33Z"/>
    <path class="cls-70" d="M62.36,397.28c6.43,3.28,12.15,9.32,15,16q.24,2.18,.23,4.51c0,.84,0,1.68,0,2.54q-.02,1.3-.04,2.63c0,.88,0,1.76,0,2.67q-.05,6.51-1.19,7.65c-1.52,.07-3.04,.08-4.56,.06-.83,0-1.65-.02-2.5-.03-.64-.01-1.28-.02-1.93-.04l-1,8c-7.98,1.11-12.55-1.08-19.25-5.31-6.31-3.88-12.98-4.65-20.25-3.19q-.74,.25-1.5,.5c5.34-14.32,18.84-40.29,37-36Z"/>
    <path class="cls-70" d="M392.36,394.28c12.23,8.36,19.77,21.45,27,34-3.35,1.12-5.32,.84-8.81,.56-6.84-.11-10.6,2-16.13,5.57-5.12,3.2-9.16,3.84-15.05,2.86-.25-.65-.49-1.3-.75-1.97q-1.03-2.21-3.12-2.5-1.05-.02-2.12-.03-2.12-.03-4-.5c-2.65-4.26-2.4-8.38-2.44-13.25-.03-.82-.07-1.64-.1-2.49-.06-7.36,2.47-11.96,7.42-17.29,.56-.45,1.11-.89,1.68-1.35,.56-.46,1.12-.92,1.69-1.4,4.99-3.5,8.91-4.22,14.75-2.23Z"/>
    <path class="cls-99" d="M415.36,447.28c5.86,2.75,9.54,7.16,12.15,13.02,2.37,8.33,2.13,17.5-2.03,25.18-.37,.59-.74,1.18-1.12,1.79-.58,.93-1.16,1.86-1.75,2.81-4.28,4.16-8.87,6.39-14.88,6.69-4.53-.27-7.02-1.3-10.38-4.5-5.44-7-6.9-13.49-6.52-22.27,1.17-8.34,4.47-15.83,10.52-21.73,4.62-2.86,8.88-2.29,14-1Z"/>
    <path class="cls-73" d="M40.36,450.28c7.41,4.31,10.9,10.99,13.31,18.94,1.57,7.14,.02,13.64-3.31,20.06-2.37,3.44-4.16,5.41-8,7-5.49,.99-9.97,.48-14.75-2.44-5.46-4.08-10-9.74-11.25-16.56-.96-8.23,1.38-14.83,6.38-21.38,5.03-5.03,10.59-7.27,17.62-5.62Z"/>
    <path class="cls-35" d="M257.95,128.19c4.62-.04,9.25-.07,13.87-.09,2.17-.01,4.35-.03,6.52-.06,20.68-.24,42,.36,58.02,15.24,10.53,10.41,13.63,19.74,14.12,34.57,0,2.81-.02,5.62-.12,8.43h-1q-.26-1.42-.52-2.86c-2.79-14.78-5.91-30.34-18.86-39.61-14.26-8.32-29.71-9.68-45.83-9.68-1.3,0-2.59,0-3.93-.01-3.54,0-7.08-.01-10.62-.01-2.23,0-4.45,0-6.68,0-7.8,0-15.61-.01-23.41-.01-7.21,0-14.41,0-21.62-.03-6.23-.01-12.47-.02-18.7-.02-3.7,0-7.4,0-11.1-.01q-44.8-2.01-84.22,15.48c-4.98,5.76-8.24,12.94-11.52,19.76h-1c-.95-8.56,2.68-13.42,7.57-20.17,10.72-13.39,26.47-17.44,42.7-19.54,8.41-.89,16.88-.78,25.32-.8,2.16-.02,4.32-.04,6.48-.05,5.67-.05,11.34-.08,17.01-.1,5.58-.03,11.17-.08,16.75-.12,10.01-.08,20.01-.13,30.02-.16,6.91-.03,13.83-.07,20.74-.14Z"/>
    <path class="cls-56" d="M67.36,155.28c.02,1.3,.04,2.6,.06,3.94,.4,25.65,1,51.23,2.77,76.83,.18,3.42,.2,6.81,.17,10.23-2.46-.52-4.64-1.15-7-2-.77-.26-1.55-.52-2.34-.79-2.97-1.42-4.61-2.59-6.66-5.21-1.23-6.21-.89-12.32-.62-18.62,.05-1.83,.09-3.66,.14-5.49,.09-3.76,.21-7.52,.34-11.28,.17-5.37,.15-10.73,.09-16.11,0-2.45,0-4.89,0-7.34,0-1.55-.02-3.1-.05-4.66q-.21-11.95,3.08-15.81c3.42-2.38,5.83-3.69,10.03-3.69Z"/>
    <path class="cls-69" d="M63.36,458.28c11.82,4.7,22.41,10.66,28.38,22.25,2.67,6.56,2.61,13.47,.44,20.19-2.2,4.33-4.52,6.42-8.81,8.56-5.26,.52-9.66,.62-14.5-1.62-3.26-3.1-5.23-5.79-5.71-10.36-.05-2.87,.12-5.6,.72-8.41,.53-2.79,.62-5.36,.63-8.2,0-1.05,0-2.1,0-3.18,0-1.08,0-2.17-.01-3.29,0-1.09,0-2.18,.01-3.3,0-1.05,0-2.09,0-3.17,0-.95,0-1.91,0-2.89-.12-2.35-.46-4.33-1.13-6.58Z"/>
    <path class="cls-64" d="M110.36,479.28c11.69,.76,20.19,7.72,28,16,5.58,7.32,6.97,13.83,6,23-2.1,6.76-5.89,12.29-12,16q-2.21,.65-4,1,.74-1.25,1.5-2.52c.64-1.09,1.28-2.17,1.94-3.29,.64-1.08,1.28-2.16,1.93-3.27,1.98-3.54,2.76-6.12,2.76-10.11,0-.8,0-1.6,0-2.42q0-1.24-.01-2.51c0-.84,0-1.67,.01-2.54q.39-3.99-1.14-7.34-.02,1.31-.04,2.64c-.34,8.4-1.23,16.19-5.96,23.36q-3.5,1.75-7,2c-.87,.17-1.73,.33-2.62,.5-2.99-.63-4.65-1.9-6.5-4.32-2.11-5.26-.7-11.93,.66-17.3,1.91-7.71-.12-14.69-2.66-22q-.88-2.88-.88-6.88Z"/>
    <path class="cls-70" d="M380.36,455.28c1.1,3.3,.84,3.82,0,7-.44,7.02,.03,13.8,1.06,20.75q1.88,13.11-1.88,19.19c-3.28,3.09-5.05,3.94-9.56,4.44-7.02-.73-11.6-5.65-16.04-10.81-3.16-5.12-2.22-10.02-1.2-15.69,2.71-9.45,10.83-15.84,19.05-20.44,2.83-1.54,5.69-3,8.56-4.44Z"/>
    <path class="cls-2" d="M223.8,361.97c4.59,0,9.19-.01,13.78-.03,3.59-.01,7.19-.02,10.78-.01,1.69,0,3.39,0,5.08-.02,15.11-.08,30.34,.75,43.16,9.63,5.44,5.44,8.09,11.18,10.56,18.44,.22,.64,.44,1.28,.66,1.94,1.15,3.56,1.77,6.63,1.52,10.37-2.09-3.13-3.54-6.27-5.12-9.69-5.04-10.3-12.1-16.99-22.88-21.31-8.93-2.82-17.34-3.47-26.66-3.51-1.4-.02-2.8-.04-4.19-.05-3.66-.05-7.33-.08-10.99-.1-3.64-.03-7.27-.08-10.91-.12-17.42-.21-34.83-.25-52.25-.21,.66,.66,1.32,1.32,2,2q.12,2.75-1,6c-3.42,3.59-6.53,5.84-11.5,6.38-.83-.12-1.65-.25-2.5-.38q-.88-2.06-1-5c2.09-3.24,4.52-6.26,8-8-9.1,1.27-17.32,3.32-24,10-1.62,2.47-3.12,4.99-4.57,7.56-1.34,2.29-2.8,4.35-4.43,6.44,.91-9.09,5.64-16.29,12.5-22.12,21.58-11.56,50.23-8.22,73.94-8.19Z"/>
    <path class="cls-4" d="M335.36,477.28c-.51,2.69-1.08,5.33-1.75,7.98-2.99,11.84-3.07,19.7,1.75,31.02h-8l-2,6q-2.62,.56-6,0c-6.47-6-7.65-14.68-9-23-2.47,4.94-1.76,12.6-1,18,1.56,4.32,3.65,8.07,6,12,.33,.99,.66,1.98,1,3-6.37-2-9.64-6-12.81-11.69-3-6.47-3.54-11.61-1.08-18.36,5.39-11.64,13.86-18.9,25.55-24.14,2.58-.89,4.63-.96,7.34-.81Z"/>
    <path class="cls-23" d="M246.36,237.28q2,2,2.62,5.56c-.13,5.11-2.89,7.91-6.33,11.45-8.75,7.56-19.08,7.76-30.15,7.21-8.06-.83-14.17-6.18-19.15-12.22-1.52-3.05-1.24-5.64-1-9q1.06-1.94,3-3c4.95-.89,7.61,.14,11.62,2.88,.71,.53,1.43,1.07,2.16,1.62,4.66,3.18,8.6,4.07,14.21,3.51,4.75-1.56,8.74-3.69,12.62-6.81,3.57-2.72,6.05-2.46,10.38-1.19Z"/>
    <path class="cls-12" d="M205.36,49.28c-.57,2.82-.87,3.87-2.94,6-7.61,4.97-15.27,6.56-24.19,7.38-19.81,2.21-35.27,10.38-50.88,22.62q-1.28,.97-2.59,1.97c-6.7,5.17-12.51,10.98-18.41,17.03-1.66,1.67-3.33,3.34-5,5,7.01-20.03,29.92-38.13,47.75-47.43,2.72-1.3,5.45-2.46,8.25-3.57,1.06-.42,2.12-.84,3.21-1.27,7.74-2.82,15.49-4.6,23.6-6.04,.95-.17,1.91-.34,2.89-.52,6.15-1.02,12.07-1.37,18.3-1.17Z"/>
    <path class="cls-76" d="M310.67,341.53c6.99,3.67,13.11,8.17,18.69,13.75-.31,3.65-2.24,5.85-4.5,8.62q-2.5,3.03-4.5,6.38h-2c-1.87-2.58-3.55-5.14-5.02-7.97-5.18-9.51-15.07-12.98-24.98-16.03-.69-.22-1.38-.43-2.1-.65-7.75-2.04-15.94-2-23.9-2.35,2.93-2.43,5.69-4.54,9.12-6.19,.66-.32,1.33-.65,2.01-.98,11.94-5.32,26.07,.14,37.18,5.42Z"/>
    <path class="cls-77" d="M167.36,340.28q1.02,.84,2.06,1.69c2.82,1.91,5.6,1.99,8.94,2.31v2q-1.02,.03-2.06,.06c-3.13,.1-6.25,.21-9.38,.31-1.07,.03-2.14,.06-3.24,.09-11.13,.41-21.76,1.69-29.89,10.16-2.89,3.89-5.09,8.26-7.32,12.55q-1.11,1.82-3.11,2.82c-.39-.53-.77-1.06-1.17-1.61q-3.36-4.56-7.27-8.64-.77-.87-1.56-1.75c.18-2.89,.97-3.96,2.98-6.08,13.63-11.17,33.85-24.87,51.02-13.92Z"/>
    <path class="cls-51" d="M272.36,160.28l2,1q-.54,.66-1.09,1.33c-4.41,6.03-4.93,11.35-3.91,18.67,1.53,6.01,5.05,9.75,10.3,12.93,6.41,2.55,13.84,2.24,20.2-.43,5.09-3,7.68-8.04,9.5-13.5,.55-6.18,.19-10.55-3-16v-3c.97,1.22,1.92,2.45,2.88,3.69,.53,.68,1.07,1.37,1.62,2.07,4.11,6.1,4.25,12.08,3.51,19.24-2.15,7.38-5.8,12.89-12.5,16.75-6.03,3.26-11.69,4.09-18.5,3.25-8.88-2.82-14.32-8.42-18.94-16.31-2.21-7.67-1.88-14.52,1.71-21.67,1.81-2.98,3.86-5.46,6.22-8.02Z"/>
    <path class="cls-66" d="M378.36,159.28q2.44,.38,5,1c1.19,2.38,1.2,4.01,1.32,6.67,.04,.96,.08,1.93,.13,2.92,.04,1.04,.08,2.08,.12,3.16,.04,1.07,.08,2.14,.13,3.25q1.63,45.33-3.69,56-.99,.99-2,2-2.12-.38-4-1c-.07-8.61-.12-17.23-.16-25.84-.02-4-.04-8-.07-12-.03-3.86-.05-7.73-.06-11.59,0-1.47-.02-2.94-.03-4.41-.02-2.07-.02-4.14-.02-6.2,0-1.17-.01-2.35-.02-3.56,.43-4.03,1.61-6.75,3.36-10.39Z"/>
    <path class="cls-51" d="M166.36,162.28c5.03,3.49,7.55,7.24,9.75,12.94,1.08,8.93-.76,16.37-5.62,24-5.94,5.77-12.2,8.33-20.44,8.5-7.35-.13-12.1-2.12-17.46-7.08-6.25-6.77-7.85-12.95-7.65-22.05,.65-5.03,2.47-9.2,5.43-13.3,.99-.66,1.98-1.32,3-2q-1.88,4.75-3,7c-.7,7.41-.6,13.9,4,20,4.34,4.64,8.88,7.02,15.19,7.44,6.76-.16,12.59-3.21,17.31-7.94,3.64-6.06,4.36-11.52,3.5-18.5-1.08-2.64-2.38-4.62-4-7v-2Z"/>
    <path class="cls-41" d="M179.36,69.28q1.94,1.19,3,3c-.52,5.06-2.37,6.97-6.17,10.1-10.81,7.25-26.62,15.37-39.83,13.9l-2-2c.4-4.65,3.45-6.83,6.81-9.71,4.04-2.9,8.24-5.27,12.63-7.61q1.18-.63,2.38-1.27c6.9-3.54,15.25-7.57,23.18-6.41Z"/>
    <path class="cls-53" d="M388.36,163.28c9.38,9.26,13.71,19.14,14.38,32.31-.12,12.36-4.87,24.34-11.38,34.69h-1c-.29-6.97-.57-13.94-.85-20.91-.1-2.36-.19-4.73-.29-7.09-.54-13-1.03-25.98-.85-39Z"/>
    <path class="cls-74" d="M415.36,447.28c5.09,2.72,8.07,7.66,10,13,.38,3.71,.31,7.28,0,11h-1c-.09-.59-.17-1.18-.26-1.79-.99-5.55-2.17-8.55-6.74-12.21-3.54-1.77-7-1.25-10.75-.31q-2.37,1.14-3.5,3.38c-1.75,6.85-2.69,11.92,1.02,18.27,1.83,2.47,3.35,3.59,6.23,4.66q3.71,.25,7,0c-3.31,4.09-8,5.67-13.06,6.5-4.08-.69-6.47-2.28-8.94-5.5-3.43-6.86-5.52-13.4-3.05-20.88,2.46-6.33,4.92-12.53,10.89-16.27,4.02-1.57,8.03-.74,12.16,.16Z"/>
    <path class="cls-54" d="M49.36,167.28h1v66c-3.4-3.4-4.73-4.97-6.56-9.12-.39-.87-.79-1.74-1.19-2.63-3.06-7.95-4.81-15.07-4.75-23.62q0-1.37,.02-2.78c.28-10.87,4.05-19.84,11.48-27.85Z"/>
    <path class="cls-97" d="M36.36,459.28c3.82,2.1,6.36,4.97,8,9,.79,5.62,.22,10.22-3,15-2.82,3.06-4.91,4.27-9,4.5-4.1-.24-6.21-1.39-9-4.5-2.83-4.81-3.42-8.46-2.58-13.85,2.14-7.91,7.57-11.65,15.58-10.15Z"/>
    <path class="cls-6" d="M110.36,479.28c11.69,.76,20.19,7.72,28,16,5.58,7.32,6.97,13.83,6,23-2.1,6.76-5.89,12.29-12,16q-2.21,.65-4,1,.74-1.25,1.5-2.52c.64-1.09,1.28-2.17,1.94-3.29,.64-1.08,1.28-2.16,1.93-3.27,1.99-3.56,2.76-6.13,2.73-10.15q0-1.2,0-2.43c0-.83-.02-1.67-.03-2.53,0-.84,0-1.69-.01-2.56-.01-2.08-.03-4.17-.05-6.25-6.19-3.55-10.8-5.88-18-5-.99,.66-1.98,1.32-3,2-.84-2.58-1.67-5.16-2.5-7.75-.24-.73-.48-1.46-.72-2.21l-.68-2.15c-.21-.65-.42-1.3-.63-1.97q-.46-1.92-.46-5.92Z"/>
    <path class="cls-76" d="M58.36,160.28c.99,.33,1.98,.66,3,1,0,.6,.01,1.2,.02,1.82,.07,6.38,.15,12.76,.24,19.13,.03,2.36,.06,4.73,.08,7.09,.16,15.86,1.18,31.28,3.65,46.95q-1.9,.57-4,1c-2.54-1.85-3.58-3.9-4.62-6.81-.24-.65-.48-1.29-.73-1.96-1.73-5.97-1.81-11.76-1.77-17.92,0-.96,0-1.93,.01-2.92,.02-3.46,.07-6.93,.11-10.39,0-.72,.02-1.43,.03-2.17,.06-4.75,.14-9.5,.24-14.25,.03-1.59,.06-3.19,.08-4.78,.03-2.25,.09-4.5,.14-6.76,.03-1.31,.05-2.62,.08-3.97q.21-1.52,.43-3.07c.99-.66,1.98-1.32,3-2Z"/>
    <path class="cls-62" d="M372.36,152.28c3.21,.73,5.48,1.76,8.25,3.56,.71,.46,1.41,.91,2.14,1.38q.8,.52,1.61,1.06c-.33,1.32-.66,2.64-1,4l-1-2h-4c-1.7,4.44-2.24,8.09-2.23,12.83q0,.98,0,1.98c0,2.14,.02,4.29,.03,6.43,0,1.49,0,2.99,0,4.48,0,3.92,.03,7.83,.05,11.75,.02,4,.03,8,.04,12.01,.02,7.84,.06,15.68,.1,23.52q1.96-.22,4-1c3.57-7.68,3.68-15.66,4-24h2c.29,4.37,.47,8.74,.62,13.12q.13,1.86,.25,3.75c.1,3.63,.06,6.62-.88,10.12-4.3,4.32-10.17,6.47-16,8-.03-1.65-.05-3.29-.06-4.94-.01-.92-.02-1.83-.04-2.78q.1-3.29,.58-6.96c.82-7.21,.75-14.48,.83-21.73,.02-1.58,.04-3.16,.06-4.74,.05-4.13,.1-8.26,.15-12.38,.05-4.22,.11-8.45,.16-12.67,.11-8.27,.21-16.53,.31-24.8Z"/>
    <path class="cls-5" d="M62.36,397.28c4.35,2.39,7.6,5.4,11,9l-1,2-2.5-2c-3.05-1.99-5.72-2.72-9.43-2.5-7.65,1.86-13.38,9.65-18.07,15.5-1.59,3.18-1.42,5.5-1,9,2.2,2.66,4.91,4.45,8,6l-1,2c-.7-.29-1.4-.58-2.12-.88-7.14-2.79-13.3-4.65-20.88-2.12,5.32-14.26,18.86-40.37,37-36Z"/>
    <path class="cls-7" d="M392.36,394.28c12.23,8.36,19.77,21.45,27,34-3.37,1.12-5.77,1-9.31,.88-5.27-.06-8.27,.38-12.69,3.12-.66-.33-1.32-.66-2-1,.49-.34,.99-.68,1.5-1.02,.64-.45,1.28-.89,1.94-1.35,.64-.44,1.28-.88,1.93-1.34,2.25-1.78,2.58-3.04,3.13-5.85-1.06-7.3-7.37-12.67-12.82-17.25-4.39-3.12-8.31-3.9-13.68-3.19q-3.4,1.36-6,3c1.77-4.77,5.64-7.62,9.94-10.14,3.86-1.62,7.15-1.2,11.06,.14Z"/>
    <path class="cls-79" d="M327.36,494.28c2.31,1.63,2.91,2.67,3.62,5.42,.12,.91,.25,1.83,.38,2.77,.78,4.96,2.08,9.18,4,13.81h-8c-.66,1.98-1.32,3.96-2,6q-2.62,.56-6,0c-5.15-5.12-7.61-11.83-8-19,.44-3.76,.64-4.67,3.5-7.31,4.21-2.03,7.89-2.66,12.5-1.69Z"/>
    <path class="cls-28" d="M149.36,539.28q1.39,1.21,2.81,2.44,11.08,9.48,23.19,17.56-3,1-5.35,.1c-7.53-4.09-13.6-9.05-19.65-15.1-.68,9.88,.84,17.48,7.17,25.29,5.71,6.26,13.03,9.35,20.58,12.89,1.4,.68,2.81,1.36,4.21,2.04,2.72,1.32,5.45,2.63,8.18,3.93,5.33,2.54,10.6,5.19,15.86,7.85v1c-6.07-.55-11.06-2.39-16.62-4.81-.91-.39-1.82-.78-2.75-1.19-9.51-4.22-18.47-9.3-27.38-14.66-1.98-1.18-3.97-2.34-5.97-3.49-1-.59-2-1.18-3.02-1.79-.82-.48-1.64-.97-2.48-1.46-2.75-2.49-2.68-5.46-2.94-9.05-.07-2.73-.11-5.45-.14-8.18-.03-.95-.06-1.91-.09-2.89,0-.92-.02-1.83-.03-2.77-.01-.83-.03-1.66-.04-2.52q.47-2.19,2.5-3.98,.98-.6,1.97-1.21Z"/>
    <path class="cls-40" d="M281.36,249.28c0,4.37-1.27,6.68-4.19,9.75-7.24,6.79-20.32,18.93-30.56,19.37-.74-.04-1.49-.08-2.25-.12q-.73-2.24-1-5c6.65-9.9,25.56-25.64,38-24Z"/>
    <path class="cls-113" d="M230.43,190.17c6.9,3.98,10.05,11.86,13.18,18.8,.86,1.86,1.72,3.72,2.58,5.57q.56,1.22,1.12,2.47t1.05,2.27c.34,.73,.67,1.47,1.02,2.23,1.3,2.35,2.51,2.79,4.98,3.77,.91,.37,1.82,.74,2.75,1.12,.74,.29,1.49,.58,2.25,.88-2.33,.82-3.57,1.15-5.93,.32-7.98-4.9-11.33-11.86-15.51-20.01-3.53-6.68-7.5-11.38-14.56-14.31-6.02-.54-10.35,1.37-15,5.01-3.74,3.73-5.82,8.36-8.12,13.06q-6.95,14.02-15.25,17.25-1.3,.34-2.62,.69c2.08-2.08,4.12-4.1,6.38-6,4.99-5.7,7.74-12.89,10.69-19.81,2.91-6.55,5.92-11.57,12.7-14.53,6.04-1.77,12.56-1.37,18.31,1.23Z"/>
    <path class="cls-112" d="M381.36,483.28c2.42,3.63,4.82,7.27,7.19,10.94,.48,.72,.95,1.43,1.44,2.17,.45,.7,.89,1.39,1.35,2.11,.41,.63,.82,1.26,1.25,1.91,.98,2.38,.7,3.51-.23,5.88-6.25,5.52-14.3,7.63-22.51,7.44-5.88-1.04-9.88-5.39-13.43-9.94-2.04-3.07-2.79-5.8-3.06-9.5,.7,.72,1.4,1.44,2.12,2.19q6.11,6.34,14.12,9.12c4.45-.37,6.38-1.42,9.75-4.31,2.09-3.99,2.22-7.35,2.12-11.81q-.03-1.74-.05-3.52c-.02-.88-.05-1.76-.07-2.67Z"/>
    <path class="cls-63" d="M420.36,451.28c5.29,4.72,7.68,8.49,8.32,15.47,.23,7.74-.16,13.91-4.32,20.53-.58,.93-1.15,1.86-1.75,2.81-4.28,4.16-8.87,6.39-14.88,6.69-4.53-.27-7.02-1.3-10.38-4.5-4.35-6.24-6.86-11.36-6-19,1.01,2,2,4,2.93,6.04q2.4,5.55,7.07,8.96c5.49,.14,10.44-.86,15-4,5.96-6.59,8.46-12.37,8.34-21.27-.5-4.03-2.07-6.4-4.34-9.73v-2Z"/>
    <path class="cls-58" d="M159.36,336.28c13.93-1.15,25.22,4,37,11v1c-.83,.01-1.65,.03-2.5,.04q-32.47,.49-61.5,13.96l-3,2c2.39-7.38,6.22-10.84,12.94-14.31,5.96-2.93,11.28-3.82,17.9-3.79,1.06,0,2.13,0,3.22,0q1.64,.01,3.32,.03c1.12,0,2.24,0,3.39,.01,2.75,.01,5.49,.03,8.24,.05v-2c-.97,.12-1.94,.25-2.94,.38-5.33,.04-8.97-3.31-13.06-6.38-.99-.66-1.98-1.32-3-2Z"/>
    <path class="cls-45" d="M295.36,538.28c2.87,.57,3.86,.86,6,3,.45,3.58,.32,7.2,.31,10.81,.02,1,.03,2,.05,3.03q0,9.54-3.36,13.16c-2.58,1.99-5.28,3.69-8.06,5.38-.73,.46-1.47,.93-2.22,1.4q-4.04,2.48-5.72,3.22c-.66-.33-1.32-.66-2-1q1.26-1.12,2.55-2.27c1.11-.99,2.21-1.99,3.32-2.98q.83-.74,1.68-1.49c4.34-3.92,6.33-6.1,6.63-11.95q.19-3.16-1.19-4.31c-5.89-.65-9.77,.13-15,3l-3-1c1.73-1.42,3.46-2.83,5.19-4.25,.96-.79,1.93-1.58,2.92-2.39,1.86-1.51,3.73-3.01,5.61-4.48,2.5-2.05,4.34-4.29,6.28-6.88Z"/>
    <path class="cls-111" d="M64.36,482.28c.98,3.47,.72,5.46,0,9-.36,5.61-.25,9.19,3,14,3.91,3.66,8.23,3.43,13.33,3.3,3.36-.38,5.84-1.47,8.67-3.3-1.37,3.15-2.86,5.01-5.5,7.19-.61,.51-1.22,1.02-1.84,1.54-4.17,3.19-8.61,2.67-13.66,2.27-5.74-1.24-10.31-3.52-15-7,.14-6.33,2.79-10.02,6.28-15.2,2.35-3.82,3.52-7.5,4.72-11.8Z"/>
    <path class="cls-9" d="M96.36,373.28c7.45,3.42,14.26,8.52,18,16q1.01,14.93-3,21c-2.24,1.94-4.47,3.42-7,5q-.64-1.85-1-4c1.62-1.71,3.29-3.37,5-5,2.22-4.01,2.4-7.46,2-12-1.61-4.11-3.37-7.42-7-10-4.23-1.14-7.67-1.75-11.56,.44q-.71,.77-1.44,1.56c-3.58-1.65-6.81-3.68-10-6v-2q11.08-6.13,16-5Z"/>
    <path class="cls-10" d="M356.62,372.11q5.47,2.63,6.74,5.17c-.95,.62-1.9,1.24-2.88,1.88q-3.07,1.94-5.12,4.12c-2.26-.35-3.95-.98-6-2q-5.69-.5-10.81,1.62c-3.42,3.72-5.01,6.76-5.56,11.81,.67,6.34,2.87,10.21,7.38,14.56v3c-3.54-.56-4.96-1.68-7.19-4.44-.51-.62-1.02-1.23-1.54-1.87-3.92-5.22-2.82-12.48-2.27-18.69,2.36-7.22,8.64-11.53,15.01-15.14,4.07-1.76,8.18-1.52,12.25-.03Z"/>
    <path class="cls-7" d="M63.36,458.28c11.82,4.7,22.41,10.66,28.38,22.25,2.11,5.11,2.39,10.3,1.62,15.75-.66,.99-1.32,1.98-2,3-.16-.71-.32-1.43-.48-2.16-2.17-8.89-4.5-14.19-12.39-19.09-3.04-1.76-5.68-2.92-9.06-3.75-4.06-2.65-3.99-4.53-5-9.19-.38-2.27-.75-4.54-1.06-6.81Z"/>
    <path class="cls-7" d="M380.36,455.28c1.28,3.83,1.2,6.42,.39,10.36-2.49,4.72-7.3,6.59-11.91,8.85-7.59,3.9-10.89,8.41-13.73,16.23q-.37,1.27-.75,2.56h-2c-.5-9.98,.41-16.18,6.81-24,6.01-6.41,13.42-10.12,21.19-14Z"/>
    <path class="cls-112" d="M311.36,503.28h1c.17,.8,.34,1.59,.52,2.41q1.81,8.5,6.48,15.59,3.13,.97,6,1c.66-1.98,1.32-3.96,2-6q2.69-.81,6-1,2.56,2.12,5,5l2.81,2.81,2.19,2.19c-1.13,3.39-1.49,3.63-4.5,5.19-4.54,2.11-8.56,2.69-13.5,1.81-5.86-2.64-9.12-7.42-12-13-1.86-5.3-2.24-10.43-2-16Z"/>
    <path class="cls-113" d="M275.36,336.28c-.54,.27-1.09,.53-1.64,.8-.72,.35-1.43,.71-2.17,1.07-.71,.35-1.42,.7-2.14,1.05q-2.26,1.14-5.04,3.07c.57,.04,1.15,.08,1.74,.12,15.24,1.11,32.36,2.41,44.06,13.6q1.39,1.66,3.2,4.28c-.33,.66-.66,1.32-1,2l-2.69-2.69c-13.77-11.84-34.56-11.5-51.56-11.38-1.23,0-2.47,0-3.74,.01-3,.01-6.01,.03-9.01,.05,6.81-5.82,20.64-15.12,30-12Z"/>
    <path class="cls-61" d="M179.36,597.28q.77,.26,1.55,.52c12.48,3.95,25.34,6.97,38.45,7.48,1.65,3.66,2.34,6.81,2.62,10.81,.07,.98,.15,1.95,.23,2.96,.05,.74,.1,1.47,.15,2.23-6.44-2.01-12.16-5.01-18.12-8.12q-1.67-.87-3.38-1.76c-7.43-3.92-14.89-7.86-21.49-13.11v-1Z"/>
    <path class="cls-5" d="M151.36,337.28c-2.82,2.3-5.39,3.66-8.81,4.88-5.91,2.3-10.15,5.09-14.62,9.56-2.14,4.88-1.72,9.15-1.41,14.42q-.15,3.14-1.65,5.07c-.5,.35-.99,.71-1.5,1.07-.39-.53-.77-1.06-1.17-1.61q-3.36-4.56-7.27-8.64-.77-.87-1.56-1.75c.18-2.89,.97-3.96,2.98-6.08,9.26-7.59,22.51-17.66,35.02-16.92Z"/>
    <path class="cls-32" d="M292.36,336.28c14.62,1.08,26.55,9.15,37,19-.6,3.67-2.17,5.77-4.5,8.62q-2.5,3.03-4.5,6.38h-2c-1.49-2.97-1.08-5.81-1.12-9.12-.29-5.98-1.14-10.02-5.57-14.23-5.92-4.23-12.56-7-19.3-9.64v-1Z"/>
    <path class="cls-94" d="M33.49,463.28c2.95,1.02,3.97,1.62,5.88,4,1.26,4.25,1.5,7.88-.31,11.94q-1.69,2.06-3.69,4.06c-3.9-.07-6.16-.14-8.94-3-1.45-4.11-1.89-7.7-1.06-12,2.51-3.69,3.6-5,8.12-5Z"/>
    <path class="cls-90" d="M412.86,459.6q3.5,.69,5.94,3.25c1.78,3.91,2.1,6.19,1.56,10.44q-2.2,4.6-5,6-5.37,.46-7.81-1.31c-2.69-3.82-2.8-8.19-2.19-12.69,2.07-3.97,3.09-4.82,7.5-5.69Z"/>
    <path class="cls-39" d="M48.36,168.28q1,2,.04,5.23c-.46,1.32-.94,2.64-1.41,3.96-5.85,16.14-4.47,33.1,1.92,48.98,.56,2.25,.17,3.66-.55,5.83-1.11-2.12-2.22-4.25-3.31-6.38-.31-.58-.62-1.17-.94-1.77-4.34-8.5-6.32-16.7-6.25-26.23,0-.92,0-1.83,.01-2.77,.27-10.63,3.93-18.6,10.49-26.85Z"/>
    <path class="cls-71" d="M104.36,484.28c4.03,5.18,5.47,10.02,5.32,16.56-.83,6.34-3.63,13.03-8.32,17.44-3.35,1.14-4.6,1.13-8,0,.6-3.02,1.54-5,3.31-7.5,5.16-8.04,7.27-17.04,7.69-26.5Z"/>
    <path class="cls-57" d="M366.36,411.28h2c-.01,1.18-.02,2.36-.04,3.58,0,1.56-.02,3.11-.03,4.67,0,.78-.02,1.55-.03,2.36q0,1.13,0,2.29c0,.69-.01,1.38-.02,2.09,.12,2.11,.54,3.98,1.11,6.01q1.92-.06,3.88-.12,2.18-.07,4.12,.12,2,2,2,5h8c-3.4,3.4-7.75,3.79-12.38,4.56-5.44-.84-9.09-3.35-12.62-7.56-2.2-6.66,.97-16.95,4-23Z"/>
    <path class="cls-58" d="M77.36,415.28c3.7,5.55,4.48,12.34,5.75,18.81-1.06,4.52-3.44,6.25-7.17,8.87-5.24,2.68-9.66,1.86-15.14,.32-.8-.33-1.61-.66-2.44-1v-1h8c-.02-.95-.04-1.9-.06-2.88q.06-3.12,1.06-5.12,2.07-.41,4.56-.62c.83-.07,1.65-.15,2.5-.23q.96-.07,1.93-.15c-.01-1.06-.02-2.12-.04-3.21,0-1.39-.02-2.78-.03-4.16,0-.7-.02-1.4-.03-2.12q-.03-5.28,1.09-7.51Z"/>
    <path class="cls-31" d="M373.36,33.28h1c.89,6.34,1.29,12.62,1.54,19.02q.06,1.58,.13,3.18c.09,2.22,.18,4.44,.26,6.67,.13,3.33,.27,6.66,.41,9.99,.41,10.1,.76,20.2,.85,30.31,.01,.8,.03,1.59,.04,2.41,0,4.83-.46,8.89-2.22,13.42q-1.49,.5-3,1c.16-.99,.33-1.98,.49-3,.57-4.02,.64-8,.62-12.05,0-.77,0-1.54,0-2.34,0-2.53,0-5.05-.02-7.58,0-1.76,0-3.52,0-5.28,0-4.62-.01-9.24-.02-13.85-.01-4.72-.01-9.44-.02-14.16-.01-9.25-.03-18.49-.05-27.74Z"/>
    <path class="cls-14" d="M143.46,160.87q1.91,.41,4.41,1.98c2.08,3.39,2.06,5.53,1.5,9.44-2.05,2.99-3.51,3.83-6.94,5q-3.06,0-5.88-1.5c-2.85-3.25-3.26-5.2-3.19-9.5,2.38-4.87,4.96-5.78,10.09-5.41Z"/>
    <path class="cls-14" d="M281.36,158.66c3.81,.79,5.47,1.64,8,4.62,.66,2.8,.61,5.19,0,8q-1.56,2.5-4,4c-3.95,.56-6.05,.65-9.38-1.62-2.06-3.01-2.7-4.71-2.62-8.38,2.3-3.76,3.61-5.71,8-6.62Z"/>
    <path class="cls-68" d="M372.11,383.16l2.25,1.12v3c-1.37,.93-2.75,1.84-4.15,2.72-6.84,4.75-11.26,10.88-14.85,18.28-.67,1.33-1.33,2.67-2,4h-4c1.86-11.36,6.97-20.71,16-28q3.51-2.15,6.75-1.12Z"/>
    <path class="cls-72" d="M72.36,385.28c7.87,2.19,12.64,7.16,16.88,14.05,2.59,5,4.39,9.33,5.12,14.95l-3,1q-.65-1.18-1.32-2.38c-6.01-10.61-11.43-16.96-21.68-23.62l4-4Z"/>
    <path class="cls-86" d="M256.36,605.28c-3.71,2.11-7.42,4.21-11.12,6.31-1.05,.59-2.09,1.19-3.17,1.8-1.02,.58-2.04,1.15-3.09,1.75-.93,.53-1.86,1.06-2.82,1.6q-8.25,4.53-10.79,4.53c.14-1.77,.29-3.54,.44-5.31,.08-.99,.16-1.97,.25-2.99q.32-2.7,1.32-5.7h5c.33,.66,.66,1.32,1,2q3.29-.38,6-2c1.6-.37,3.2-.7,4.81-1q3.69-.69,7.32-1.62,1.86-.38,4.86,.62Z"/>
    <path class="cls-67" d="M92.36,236.28c4.75,1.36,7.53,3.81,10,8,1.79,4.28,3.21,8.65,4.62,13.06,.76,2.33,1.52,4.65,2.29,6.97,.33,1.02,.66,2.05,1,3.11q1.01,2.93,2.78,5.61c.43,.74,.86,1.49,1.31,2.25l-1,2c-10.46-12.07-16.15-25.99-21-41Z"/>
    <path class="cls-11" d="M167.36,565.28c8.07,.18,14.43,4.87,20.35,10.06,.55,.64,1.09,1.28,1.65,1.94q-.25,2.75-1,5c-7.89-.88-14.41-5.44-20.25-10.69q-1.75-2.31-1.56-4.62,.4-.84,.81-1.69Z"/>
    <path class="cls-82" d="M346.36,234.28c1.32,3.97,.07,6.39-1.38,10.12-.27,.7-.53,1.4-.81,2.12-2.16,5.46-4.66,10.69-7.38,15.88-.36,.7-.73,1.4-1.1,2.11-2.37,4.38-5.03,8.04-8.34,11.76,0-3.79,1.21-6.19,2.69-9.69,2.31-5.53,4.17-11.05,5.81-16.81,1.77-6.08,3.78-10.2,8.5-14.5l2-1Z"/>
    <path class="cls-112" d="M112.36,513.28h1q-.07,1-.14,2.01c-.17,4.17-.15,7.28,1.45,11.18,4.34,2.93,8.72,1.68,13.69,.81q-5.52,6.83-9.1,7.24c-6.47,.19-10.33-.94-15.9-4.24,.61-3.36,1.8-5.3,3.94-7.94,2.27-2.91,3.95-5.49,5.06-9.06Z"/>
    <path class="cls-27" d="M103.36,443.28q.07,1.05,.15,2.12c.36,4.53,.74,8.91,1.91,13.31q.94,3.56,.94,7.56c-3.58-1.33-5.18-3.45-7.5-6.4-2.7-2.86-6.1-4.69-9.5-6.6q9.23-10,14-10Z"/>
    <path class="cls-94" d="M97.67,386.78q3.69,.5,6.62,2.88c2.57,3.56,2.58,6.98,2.53,11.26-.56,2.82-1.51,4.28-3.47,6.37h-2l-9-18q2-2,5.31-2.5Z"/>
    <path class="cls-94" d="M349.36,385.28c.79,2.3,1.14,3.58,.38,5.92-.34,.65-.68,1.3-1.03,1.97-.36,.71-.73,1.42-1.1,2.15-.39,.73-.78,1.46-1.18,2.21-.39,.75-.77,1.49-1.17,2.26-.95,1.84-1.92,3.67-2.89,5.49q-4.82-4.28-5.63-7.5c.11-4.29,.22-6.83,2.5-10.56,3.67-3.34,5.37-2.87,10.12-1.94Z"/>
    <path class="cls-1" d="M40.36,450.28c4.1,2.46,7.48,5.01,8.72,9.74,.09,.75,.19,1.49,.28,2.26-.52-.36-1.04-.72-1.58-1.09-6.11-3.85-11.23-5.11-18.42-3.91-4.46,2.23-7.59,5.39-11,9,.29-5.92,2.81-9.11,7-13,4.65-3.21,9.48-4.31,15-3Z"/>
    <path class="cls-36" d="M342.36,441.28c4.84,2.61,8.87,5.37,13,9-.68,.54-1.36,1.07-2.06,1.62-2.22,1.8-4.44,3.6-6.62,5.44q-.87,.73-1.76,1.47-1.79,1.58-3.55,4.46h-2c-.16-5.23,.39-9.86,1.5-14.94,.14-.68,.29-1.37,.43-2.07,.35-1.66,.71-3.33,1.07-4.99Z"/>
    <path class="cls-81" d="M49.36,188.28h1v45h-1c-1.02-3.47-2.01-6.95-3-10.44-.29-.97-.57-1.95-.87-2.95-1.71-6.08-2.45-11.29-2.13-17.61,1.65-.66,3.3-1.32,5-2,.33-3.96,.66-7.92,1-12Z"/>
    <path class="cls-83" d="M192.36,605.28c3.23,.59,6.46,1.2,9.69,1.81q1.37,.25,2.76,.5c4.78,.92,8.5,1.85,12.55,4.69l2.25,.56,1.75,.44c1.35,2.71,1.07,5.01,1,8-6.34-1.98-11.95-4.93-17.81-8-1.06-.55-2.12-1.09-3.22-1.66-1.01-.53-2.01-1.05-3.05-1.59-.92-.48-1.84-.96-2.79-1.45q-2.13-1.3-3.13-3.3Z"/>
    <path class="cls-41" d="M177.36,368.28q.81,2.19,1,5-2.19,2.62-5,5c-.64,.6-1.28,1.2-1.94,1.81-2.77,1.59-4.93,1.4-8.06,1.19q-.88-2.06-1-5c4.21-6.52,7.27-8.14,15-8Z"/>
    <path class="cls-80" d="M340.36,481.28h1c1.14,9.99,2.25,19.97,3,30h-4c-3.67-7.71-5.76-14.48-3.09-22.85,.96-2.43,1.97-4.79,3.09-7.15Z"/>
    <path class="cls-68" d="M97.9,379.9c6.58,1.01,10.65,6.34,14.46,11.38,2.46,4.91,2.36,10.62,1,15.81-2.52,4.02-4.99,5.69-9,8.19q-.64-1.85-1-4c1.62-1.71,3.29-3.37,5-5,2.22-4.01,2.4-7.46,2-12-1.61-4.11-3.37-7.42-7-10-4.23-1.14-7.67-1.75-11.56,.44q-.71,.77-1.44,1.56l-4-2c3.14-4.56,6.38-4.61,11.54-4.38Z"/>
    <path class="cls-107" d="M343.36,498.28c2.59,3.88,4.84,7.94,7.15,11.99q1.78,3.05,4.08,5.7,1.77,2.3,1.77,5.3c-5.91-.69-9.4-2.14-13.31-6.69-.56-.76-1.11-1.53-1.69-2.31,.99-.33,1.98-.66,3-1q-.5-1.58-1-3.19c-.84-3.2-1.29-5.55-1-8.81l1-1Z"/>
    <path class="cls-101" d="M267.36,598.28c-7.63,5.82-15.04,8.53-24.56,9.56q-3.5,.09-5.44,2.44-2.62-.38-5-1v-2h-4v-2q1.51-.11,3.05-.23c9.4-.84,17.88-2.69,26.79-5.83,.76-.26,1.52-.53,2.31-.8,.67-.24,1.34-.49,2.04-.74q1.81-.41,4.81,.59Z"/>
    <path class="cls-43" d="M389.36,164.28c7.73,6.6,12.06,15.97,13,26q.79,11.51-3,17c-1.14-3.56-.97-6.72-.81-10.44,.06-10.27-2.8-19.09-8.23-27.76q-.95-1.8-.95-4.8Z"/>
    <path class="cls-59" d="M17.36,481.28c2.39,2.22,4.12,4.19,5.81,7,2.57,3.53,5.08,5.61,9.19,7,5.12,.8,8.82,.62,13.44-1.81q2.9-2.47,5.56-5.19c-1.32,5.69-3.4,7.72-8,11-4.19,1.4-7.84,1.93-12.02,.13-6.07-3.55-11.34-8.15-13.35-15.07q-.31-1.52-.62-3.06Z"/>
    <path class="cls-49" d="M173.36,364.28l-1,2c-.72-.06-1.44-.12-2.19-.19-3.45,.23-4.9,1.33-7.81,3.19-1.45,.64-2.91,1.26-4.38,1.88-7.93,3.53-12.04,7.01-16.27,14.72-1.3,2.3-2.73,4.33-4.36,6.4,.91-9.09,5.64-16.29,12.5-22.12,7.19-3.85,15.28-6.64,23.5-5.88Z"/>
    <path class="cls-21" d="M98.36,185.28c.99,.33,1.98,.66,3,1q.02,.91,.04,1.85c.07,2.78,.17,5.56,.27,8.34,.02,.96,.05,1.92,.07,2.91,.2,5.22,.54,8.53,3.62,12.9v4q-1.81-.5-4-2c-3.08-6.46-3.38-11.92-3.19-19,.01-.97,.03-1.93,.04-2.93,.04-2.36,.08-4.72,.15-7.07Z"/>
    <path class="cls-20" d="M188.49,150.16q1.1,0,2.23-.01c4.97,0,9.73,.43,14.65,1.14q-.99,1.48-2,3-2.43,.34-5.45,.29c-1.08,0-2.15-.02-3.26-.03-1.13-.03-2.26-.05-3.42-.08-1.14-.01-2.27-.03-3.44-.04-2.81-.04-5.62-.08-8.43-.15-.33-.99-.66-1.98-1-3,3.19-1.59,6.63-1.14,10.12-1.12Z"/>
    <path class="cls-28" d="M256.36,605.28c-3.71,2.11-7.42,4.21-11.12,6.31-1.05,.59-2.09,1.19-3.17,1.8-1.02,.58-2.04,1.15-3.09,1.75-.93,.53-1.86,1.06-2.82,1.6q-8.25,4.53-10.79,4.53v-3c3.91-2.15,7.83-4.3,11.75-6.44,1.11-.61,2.22-1.22,3.37-1.85,1.07-.58,2.14-1.17,3.24-1.77q1.48-.81,2.98-1.63c3.82-1.88,5.55-2.67,9.66-1.31Z"/>
    <path class="cls-37" d="M275.36,461.28l2,1c-7.62,8.84-15.83,16.78-25,24l-2-1c4.98-5.84,10.14-11.05,16-16,1.67-1.47,3.34-2.95,5-4.44,.76-.68,1.53-1.36,2.31-2.06,.56-.5,1.11-.99,1.69-1.5Z"/>
    <path class="cls-80" d="M333.36,386.28l2,1c-.33,.52-.66,1.03-1,1.56-1.9,4.64-1.33,8.46,.25,13.12,1.64,3.11,3.25,4.9,5.75,7.31v3c-4.39-.72-6.04-2.82-8.73-6.18-3-4.32-2.35-8.73-1.72-13.73,.57-2.6,1.58-4.22,3.46-6.09Z"/>
    <path class="cls-91" d="M373.36,33.28h1c1.2,7.8,1.34,15.63,1.56,23.5,.04,1.41,.09,2.82,.13,4.23,.11,3.42,.21,6.85,.31,10.27h-1c-.33,3.63-.66,7.26-1,11h-1V33.28Z"/>
    <path class="cls-45" d="M72.36,385.28c5.99,1.31,9.03,4.61,13,9q-3,0-6-1l-1,3c-3.3-2.31-6.6-4.62-10-7l4-4Z"/>
    <path class="cls-30" d="M369.36,382.28q2.62,.94,5,2v3c-3.16,2.37-6.41,4.34-10,6v-3c-1.65,.66-3.3,1.32-5,2,1.73-4.68,5.59-7.8,10-10Z"/>
    <path class="cls-48" d="M282.36,463.28q0,3-1.27,4.62c-.58,.57-1.17,1.15-1.77,1.74-.65,.64-1.29,1.28-1.96,1.94-.68,.66-1.37,1.33-2.07,2.01-.66,.65-1.31,1.3-1.99,1.97-4.17,4.1-8.47,7.96-12.95,11.71l-2-1c7.47-8.46,15.12-16.02,24-23Z"/>
    <path class="cls-29" d="M410.11,446.66c.8,.11,1.6,.22,2.42,.34,.6,.1,1.21,.19,1.83,.29v1c-.56,.14-1.11,.27-1.69,.41-8.53,2.41-14.13,7.47-19.31,14.59,.87-6.11,3.94-10.45,8-15,3.13-1.99,5.12-2.16,8.75-1.62Z"/>
    <path class="cls-65" d="M395.36,211.28h1q-1.23,14.23-6,19v-17c1.32,.33,2.64,.66,4,1,.33-.99,.66-1.98,1-3Z"/>
    <path class="cls-8" d="M392.36,190.28l4,1c.03,1.77,.05,3.54,.06,5.31,.01,.99,.02,1.97,.04,2.99q-.1,2.7-1.1,5.7c-.99-.33-1.98-.66-3-1v-14Z"/>
    <path class="cls-15" d="M49.36,477.28h2c-.4,5.62-2.02,8.2-6,12q-2.81,.38-5,0c1.45-3.39,3.37-5.45,6-8,.54-.74,1.07-1.48,1.62-2.25,.45-.58,.91-1.15,1.38-1.75Z"/>
    <path class="cls-55" d="M49.36,167.28h1v18c-1.65-.99-3.3-1.98-5-3,.57-5.45,1.95-9.91,4-15Z"/>
    <path class="cls-89" d="M352.36,377.28q2.44,2,4,4l-1,2c-2.17-.51-4-1-6-2q-1.92-.16-4-.12c-.7,0-1.4,0-2.12,0q-1.97,.02-3.88,1.13,1-3,3.12-4.19c3.52-.99,6.24-1.21,9.88-.81Z"/>
    <path class="cls-105" d="M95.36,413.28c.34,1.42,.67,2.83,1,4.25,.19,.79,.37,1.58,.56,2.39q.44,2.36,.44,6.36c-1.32,.33-2.64,.66-4,1-.66-3.96-1.32-7.92-2-12q3-2,4-2Z"/>
    <path class="cls-47" d="M188.99,79.16c.78,.04,1.57,.08,2.38,.12,.33,1.65,.66,3.3,1,5q-3,2-5.19,1.62c-.6-.21-1.2-.41-1.81-.62q-.62-1.88-1-4,2-2,4.62-2.12Z"/>
    <path class="cls-104" d="M349.36,412.28l4,1-3,12c-.99-.66-1.98-1.32-3-2,.14-1.65,.29-3.29,.44-4.94,.08-.92,.16-1.83,.25-2.78q.32-2.29,1.32-3.29Z"/>
    <path class="cls-13" d="M289.36,253.28h5q.69,1.81,1,4-1.19,1.81-3,3-2.19-.31-4-1c.33-1.98,.66-3.96,1-6Z"/>
    <path class="cls-32" d="M151.36,337.28c-2.87,2.33-5.55,3.76-9,5.06-3.09,1.17-6.06,2.41-9,3.94q.14-1.83,1-4,2.55-1.48,5.75-2.75,1.57-.64,3.17-1.3c2.91-.9,5.06-1.15,8.08-.95Z"/>
    <path class="cls-109" d="M92.36,516.28l1,2h8c-2.52,3.12-3.73,3.95-7.75,4.75q-1.61,.12-3.25,.25,.88-4.75,2-7Z"/>
    <path class="cls-75" d="M333.36,386.28l2,1q-.48,.81-.96,1.64c-1.22,2.78-1.45,5.09-1.66,8.11-.07,.98-.15,1.97-.23,2.98-.05,.75-.1,1.5-.15,2.27h-3c.09-1.92,.2-3.83,.31-5.75,.06-1.07,.12-2.13,.18-3.23,.54-3.2,1.36-4.64,3.51-7.02Z"/>
    <path class="cls-78" d="M108.36,387.28c3.91,3.79,5.08,5.72,5.56,11.12,.08,.91,.17,1.82,.25,2.76,.06,.7,.12,1.4,.18,2.12-1.32,.33-2.64,.66-4,1,.02-.64,.05-1.28,.07-1.94,.11-5.47-.27-9.89-2.07-15.06Z"/>
    <path class="cls-114" d="M240.36,49.28c7.53,.44,14.68,1.14,22,3v3q-1.67-.43-3.38-.88c-4.08-1.03-8.19-1.82-12.33-2.56-2.33-.57-4.2-1.41-6.3-2.56Z"/>
    <path class="cls-50" d="M45.36,192.28h2c1.48,2.96,1.06,5.74,1,9h-4c.33-2.97,.66-5.94,1-9Z"/>
    <path class="cls-95" d="M305.36,161.28c3.28,3.1,5.93,5.97,8,10v2h-2c-.33,1.32-.66,2.64-1,4q-.16-1.01-.33-2.05c-.16-.89-.32-1.78-.48-2.7q-.23-1.32-.46-2.67c-.79-2.78-1.95-4.34-3.73-6.58v-2Z"/>
    <path class="cls-84" d="M132.36,163.28q0,3-.96,4.89c-1.17,2.37-1.43,4.24-1.66,6.86-.07,.8-.15,1.6-.23,2.42-.05,.6-.1,1.21-.15,1.83-2-2.16-3-3.32-3-6.31,1.38-3.71,3.58-6.59,6-9.69Z"/>
    <path class="cls-38" d="M171.36,243.28l4,1c-.33,1.32-.66,2.64-1,4-1.32,.33-2.64,.66-4,1-.33-.99-.66-1.98-1-3,.66-.99,1.32-1.98,2-3Z"/>
    <path class="cls-88" d="M192.36,605.28c1.82,.42,3.63,.86,5.44,1.31,1.01,.24,2.02,.49,3.06,.74,.83,.31,1.65,.63,2.5,.95,.33,.99,.66,1.98,1,3-4.75-.58-7.97-2.55-12-5v-1Z"/>
    <path class="cls-103" d="M267.36,598.28c-1.1,.84-2.2,1.67-3.31,2.5-.61,.46-1.23,.93-1.86,1.41q-1.82,1.09-4.82,1.09,.12-1.88,1-4c3.61-1.65,5.19-2.27,9-1Z"/>
    <path class="cls-3" d="M192.36,576.28c1.65,.33,3.3,.66,5,1-.33,1.32-.66,2.64-1,4-1.32-.33-2.64-.66-4-1v-4Z"/>
    <path class="cls-85" d="M272.36,160.28l2,1c-.74,1.3-1.49,2.59-2.25,3.88q-.63,1.08-1.27,2.18c-1.64,2.15-3,2.94-5.48,3.95,1.49-4.59,3.85-7.44,7-11Z"/>
    <path class="cls-108" d="M331.36,406.28l4.39,3.71c1.47,1.18,3.04,2.24,4.61,3.29l-2,3c-1.17-1.29-2.34-2.58-3.5-3.88-.65-.72-1.3-1.44-1.97-2.18q-1.53-1.95-1.53-3.95Z"/>
    <path class="cls-106" d="M109.36,410.28l2,1c-.78,1.17-1.58,2.34-2.38,3.5-.44,.65-.88,1.3-1.34,1.97-.43,.51-.85,1.01-1.29,1.53h-2c.54-3.8,2.2-5.47,5-8Z"/>
    <path class="cls-96" d="M173.36,364.28l-1,2c-.78-.04-1.57-.08-2.38-.12q-2.79-.16-4.62,2.12-2.12-.38-4-1,1-2,2.62-2.62c3.14-.5,6.2-.44,9.38-.38Z"/>
    <path class="cls-44" d="M392.36,209.28h3v5h-4c.33-1.65,.66-3.3,1-5Z"/>
    <path class="cls-19" d="M202.36,155.28l4,1c-.66,1.32-1.32,2.64-2,4h-3c.33-1.65,.66-3.3,1-5Z"/>
    <path class="cls-100" d="M98.36,123.28l2,1c-2.31,2.31-4.62,4.62-7,7-.33-.66-.66-1.32-1-2q3.75-4.88,6-6Z"/>
    <path class="cls-93" d="M306.36,390.28c2.02,3.04,2.32,4.19,2.62,7.69,.07,.81,.15,1.62,.23,2.45,.05,.61,.1,1.23,.15,1.86-2.21-3.31-3.09-6.14-4-10l1-2Z"/>
    <path class="cls-42" d="M106.36,100.28c.99,.33,1.98,.66,3,1-2.31,2.64-4.62,5.28-7,8,0-4,1.73-5.8,4-9Z"/>
    <path class="cls-87" d="M151.36,337.28c-2.91,2.48-5.16,3.7-9,4-.66-.66-1.32-1.32-2-2,3.82-1.42,6.91-2.24,11-2Z"/>
    <path class="cls-102" d="M109.36,267.28q3.6,5.4,5,8l-1,2q-3.61-3.88-5-6,.19-2.38,1-4Z"/>
    <path class="cls-92" d="M373.36,112.28c.99,.33,1.98,.66,3,1-.33,1.65-.66,3.3-1,5-.99,.33-1.98,.66-3,1,.33-2.31,.66-4.62,1-7Z"/>
    <path class="cls-33" d="M167.36,555.28c3.38,1.19,5.65,2.28,8,5-3.82-.53-6.06-1.5-9-4l1-1Z"/>
    <path class="cls-34" d="M377.36,396.28l2,1q-4.62,5.88-8,7c1.44-3.37,3.33-5.51,6-8Z"/>
  </g>
</svg>